<?xml version="1.0" standalone="no"?>
<!DOCTYPE svg PUBLIC "-//W3C//DTD SVG 20010904//EN"
 "http://www.w3.org/TR/2001/REC-SVG-20010904/DTD/svg10.dtd">
<svg version="1.0" xmlns="http://www.w3.org/2000/svg"
 width="563.000000pt" height="309.000000pt" viewBox="0 0 563.000000 309.000000"
 preserveAspectRatio="xMidYMid meet">
<metadata>
Created by potrace 1.15, written by Peter Selinger 2001-2017
</metadata>
<g transform="translate(0.000000,309.000000) scale(0.100000,-0.100000)"
fill="#000000" stroke="none">
<path d="M2482 2930 c-8 -14 -23 -20 -46 -20 -18 0 -39 -7 -47 -16 -14 -17
-62 -44 -79 -44 -7 0 -9 8 -5 20 5 16 2 20 -14 20 -12 0 -21 5 -21 10 0 22
-30 8 -75 -33 l-46 -43 18 -33 c17 -30 17 -33 1 -45 -11 -8 -18 -26 -18 -45 0
-37 -4 -38 -33 -11 -15 14 -29 19 -45 15 -15 -4 -28 0 -36 9 -7 8 -35 16 -73
18 -59 4 -61 3 -66 -21 -3 -14 -10 -42 -14 -61 l-9 -35 -19 28 c-14 22 -23 27
-42 22 -16 -4 -23 -2 -22 7 1 7 -1 21 -6 31 -4 9 -5 26 -2 37 5 18 1 19 -36
14 -23 -4 -46 -12 -52 -18 -6 -7 -29 -10 -58 -8 -45 4 -52 1 -86 -32 -24 -23
-43 -34 -53 -31 -9 4 -19 2 -23 -4 -11 -19 -25 -12 -22 12 2 18 -4 23 -27 25
-16 2 -39 -1 -50 -7 -12 -5 -30 -11 -41 -13 -11 -2 -19 -8 -17 -13 5 -14 -27
-24 -80 -24 -36 -1 -48 -5 -48 -16 0 -9 -11 -20 -24 -24 -13 -5 -26 -17 -30
-27 -5 -13 -15 -15 -46 -11 -31 4 -40 2 -40 -9 0 -8 -12 -19 -28 -25 -30 -10
-55 -66 -41 -92 5 -8 0 -31 -13 -55 -16 -34 -18 -45 -8 -57 7 -9 11 -36 8 -69
l-3 -55 40 6 c22 3 42 10 43 15 6 14 39 9 53 -8 8 -10 21 -13 36 -9 19 4 23 1
23 -17 0 -39 -12 -68 -27 -68 -27 0 -9 -35 20 -38 27 -3 27 -4 23 -70 l-4 -67
24 30 c13 17 29 35 34 42 6 7 10 17 10 23 0 17 25 12 71 -15 24 -14 56 -25 71
-25 22 0 29 -6 33 -27 4 -16 11 -36 16 -46 13 -23 2 -77 -17 -84 -8 -3 -20 -1
-27 5 -18 14 -85 24 -91 13 -4 -5 -30 -13 -59 -16 -28 -4 -68 -9 -87 -11 -19
-3 -59 -8 -88 -10 -42 -5 -52 -9 -52 -24 0 -10 -6 -21 -12 -23 -22 -9 14 -27
54 -27 25 0 47 -8 68 -26 30 -26 31 -26 45 -8 8 11 14 14 15 7 0 -7 11 -13 24
-13 13 0 26 -7 30 -15 3 -8 11 -15 18 -15 23 -1 71 -80 88 -147 15 -54 16 -66
4 -78 -8 -7 -14 -22 -14 -33 0 -16 10 -20 61 -26 96 -10 118 -7 139 14 24 24
26 50 5 50 -10 0 -15 9 -14 28 2 24 2 25 6 4 3 -18 9 -22 21 -16 36 15 73 16
90 2 11 -10 30 -14 55 -11 33 5 37 8 37 35 0 49 28 30 69 -47 l38 -70 63 -3
c35 -2 73 -10 86 -19 14 -9 27 -13 31 -10 3 4 18 0 34 -8 15 -8 45 -15 66 -15
36 0 42 -4 73 -52 34 -51 37 -53 75 -50 50 4 69 20 20 17 -20 -1 -38 -5 -42
-8 -8 -9 -62 61 -69 89 -3 13 -3 28 1 33 9 15 -5 81 -17 81 -6 0 -8 -14 -4
-34 10 -51 0 -66 -43 -66 -20 1 -47 7 -60 14 -14 8 -30 12 -36 9 -7 -2 -18 4
-26 13 -11 14 -11 18 6 30 10 8 16 16 13 20 -4 3 -16 -4 -27 -15 -17 -17 -34
-21 -80 -21 l-58 0 -38 75 c-27 53 -44 75 -57 75 -18 0 -40 -37 -31 -52 6 -12
-65 -9 -72 2 -3 6 -14 10 -24 10 -11 0 -25 14 -34 32 -15 31 -15 34 4 54 10
11 19 33 18 50 l-1 29 -10 -30 c-6 -16 -18 -38 -26 -48 -13 -15 -14 -23 -4
-49 10 -27 9 -33 -6 -44 -14 -11 -17 -10 -20 7 -6 35 -32 22 -32 -16 0 -25 4
-35 15 -35 13 0 14 -4 5 -21 -16 -29 -31 -32 -115 -24 -55 5 -75 11 -75 21 0
8 4 14 9 14 46 0 -35 228 -87 247 -9 4 -21 12 -25 20 -4 7 -17 13 -27 13 -11
0 -20 5 -20 10 0 14 -28 12 -33 -2 -3 -9 -13 -7 -35 10 -20 14 -46 22 -73 22
-33 0 -40 3 -35 16 3 9 6 20 6 25 0 5 22 9 49 9 28 0 53 5 56 11 4 6 13 8 21
5 17 -7 121 11 150 25 15 8 32 6 65 -6 24 -8 48 -17 54 -18 5 -1 16 17 24 40
12 32 12 47 4 65 -6 13 -14 35 -17 51 -5 20 -12 27 -30 27 -28 0 -92 25 -101
40 -3 5 -22 10 -40 10 -26 0 -33 -3 -29 -15 4 -8 2 -15 -4 -15 -5 0 -13 -12
-17 -27 l-8 -28 -7 25 c-4 14 -5 40 -2 58 4 29 2 32 -20 32 -35 0 -39 9 -17
31 10 10 19 33 19 49 0 17 5 30 10 30 6 0 9 -14 8 -32 -3 -28 0 -32 32 -41 24
-6 41 -5 54 3 16 10 22 10 30 -2 16 -21 63 -28 77 -12 16 19 73 19 66 0 -7
-17 23 -46 46 -46 9 0 19 -4 22 -10 3 -5 27 -10 53 -10 56 1 40 15 -27 24 -54
7 -76 23 -60 42 6 8 21 14 32 14 11 0 17 3 14 6 -11 11 -129 6 -140 -5 -16
-16 -64 -13 -71 4 -6 18 -37 20 -54 3 -8 -8 -15 -8 -25 1 -8 6 -23 8 -32 4
-19 -7 -19 4 0 50 6 13 2 17 -16 17 -23 1 -22 2 6 17 17 8 37 21 45 28 18 15
90 27 90 16 0 -5 -9 -15 -20 -22 -10 -8 -22 -25 -25 -39 -5 -24 -3 -25 40 -28
33 -2 45 1 45 12 0 8 14 15 35 18 41 5 42 2 13 -22 -13 -10 -21 -20 -18 -23
11 -11 63 -11 67 -1 2 7 -6 10 -22 7 -30 -6 -34 13 -4 22 11 4 18 12 16 18 -5
16 -79 10 -92 -7 -6 -8 -23 -11 -41 -9 -25 4 -31 9 -27 24 3 10 9 19 14 19 4
0 20 11 35 25 15 14 32 25 39 25 7 0 19 8 26 17 13 15 12 16 -6 8 -11 -4 -47
-14 -80 -22 -33 -8 -71 -21 -85 -28 -14 -8 -44 -24 -67 -35 l-42 -21 -38 21
c-31 17 -40 18 -48 7 -5 -8 -22 -16 -37 -19 -25 -5 -26 -3 -26 44 -1 27 -6 56
-12 63 -15 18 13 85 34 85 9 0 16 5 16 10 0 6 -7 10 -16 10 -13 0 -15 7 -9 38
4 20 8 37 8 37 1 0 16 10 34 23 22 15 47 22 78 22 38 0 45 3 43 18 -3 18 8 20
59 8 l28 -6 -22 19 c-34 29 -28 41 20 42 23 0 60 3 82 7 33 6 37 9 20 16 -17
7 -15 9 20 22 41 14 85 19 85 8 0 -3 -5 -14 -10 -24 -14 -26 6 -37 29 -16 10
9 25 14 33 11 9 -4 29 8 52 31 31 31 41 36 74 32 20 -3 45 -8 55 -12 13 -6 17
-3 17 12 0 15 8 21 34 24 32 4 34 2 40 -32 3 -19 6 -51 6 -70 l1 -35 15 28
c15 27 44 37 44 16 0 -12 29 -38 43 -39 4 0 7 7 7 16 0 9 5 34 12 55 11 39 11
39 63 39 36 0 57 -5 66 -16 7 -8 21 -13 31 -11 13 4 18 0 18 -15 0 -17 2 -19
16 -7 13 10 17 10 24 0 4 -8 16 -11 27 -7 15 5 19 13 15 36 -3 21 1 32 12 36
20 8 20 27 2 62 -13 26 -12 28 31 66 42 37 45 38 63 21 11 -10 20 -24 20 -32
0 -7 7 -13 15 -13 22 0 95 39 95 50 0 6 18 10 40 10 29 0 42 5 50 20 16 31 30
24 30 -15 0 -19 3 -35 6 -35 3 0 17 14 31 30 17 20 34 30 53 30 41 0 47 -29
16 -90 -23 -46 -24 -50 -7 -50 14 0 20 10 25 40 6 37 8 40 36 37 40 -5 46 -13
21 -27 -12 -6 -21 -15 -21 -21 0 -6 5 -7 10 -4 6 3 13 -1 16 -9 3 -9 17 -16
30 -16 25 0 47 -30 42 -58 -2 -10 8 -24 24 -34 15 -10 28 -24 28 -33 0 -8 14
-21 30 -30 25 -13 30 -22 30 -52 0 -27 8 -43 33 -67 17 -18 40 -35 49 -38 9
-4 16 -15 16 -25 -2 -24 31 -74 44 -67 5 4 7 15 5 25 -3 12 -1 18 7 17 16 -4
104 62 111 83 3 9 19 19 36 23 18 3 36 16 46 34 14 24 23 29 55 29 20 0 49 8
62 17 14 9 30 16 36 16 16 0 12 -40 -5 -46 -19 -8 -19 -20 0 -28 9 -3 25 4 38
17 l22 22 3 -22 c2 -12 10 -27 18 -33 8 -7 14 -21 14 -31 0 -24 16 -25 25 -1
7 16 8 15 14 -3 7 -17 11 -14 32 23 21 37 28 42 59 42 29 0 38 -6 55 -33 10
-17 20 -36 20 -42 0 -5 6 -25 14 -42 7 -18 11 -42 8 -53 -7 -27 7 -25 22 3 9
16 9 30 2 50 -7 17 -7 28 -1 32 19 12 10 35 -14 35 -16 0 -26 7 -30 23 -11 40
-7 67 10 67 9 0 18 9 21 19 5 20 41 31 99 31 l34 0 -17 -35 c-14 -30 -15 -38
-3 -60 18 -33 70 -49 134 -41 28 4 65 9 81 11 17 2 40 7 52 11 18 5 25 -1 42
-37 12 -24 19 -51 15 -61 -3 -10 0 -18 6 -18 6 0 10 -6 8 -12 -4 -24 32 -78
52 -78 10 0 23 -7 27 -15 5 -8 23 -17 41 -21 28 -6 34 -3 49 24 10 18 28 33
44 36 18 3 30 15 37 34 8 25 14 29 36 25 14 -3 31 -11 37 -19 6 -8 25 -14 41
-14 59 0 69 -14 68 -88 -2 -70 4 -137 15 -172 5 -14 -2 -32 -20 -56 -29 -37
-34 -73 -16 -117 6 -16 11 -42 11 -58 0 -29 25 -136 40 -174 20 -47 21 -67 6
-90 -12 -19 -25 -25 -51 -25 -42 0 -70 -25 -80 -71 -4 -19 -14 -44 -22 -57 -8
-13 -12 -30 -9 -37 3 -8 -4 -17 -15 -20 -12 -4 -18 -13 -15 -21 3 -7 1 -16 -4
-19 -6 -4 -10 -16 -10 -28 0 -12 -4 -28 -9 -36 -14 -21 -88 4 -123 41 -22 23
-35 28 -73 28 -42 0 -45 -2 -35 -19 15 -28 13 -34 -11 -28 -12 3 -22 0 -26 -9
-3 -8 -11 -14 -19 -14 -31 0 -93 -42 -103 -71 -7 -22 -16 -29 -35 -29 -14 0
-27 -4 -30 -9 -3 -5 -41 -7 -85 -4 -53 4 -80 2 -85 -6 -4 -6 -18 -11 -31 -11
-13 0 -27 -5 -30 -10 -5 -8 -11 -7 -21 1 -12 10 -19 8 -37 -10 -13 -11 -31
-21 -40 -21 -9 0 -17 -5 -17 -11 0 -6 -9 -8 -20 -4 -20 6 -26 -6 -21 -44 2 -7
-1 -20 -5 -30 -3 -9 -7 -35 -7 -58 -1 -38 -4 -43 -29 -48 -22 -5 -28 -12 -28
-33 -1 -26 -1 -26 -15 -8 -12 16 -19 18 -40 8 -19 -9 -26 -8 -32 2 -13 22 -52
0 -69 -39 -12 -29 -18 -34 -32 -26 -11 6 -24 6 -32 1 -9 -6 -20 -4 -31 6 -18
16 -49 9 -49 -12 0 -8 -6 -14 -14 -14 -9 0 -12 8 -8 25 3 16 11 25 23 25 11 0
19 6 19 13 0 19 -21 37 -42 37 -10 0 -18 5 -18 10 0 13 -37 13 -45 0 -3 -5
-15 -10 -26 -10 -19 0 -19 0 1 20 11 11 20 25 20 30 0 6 -9 10 -20 10 -11 0
-20 -4 -20 -10 0 -5 8 -6 18 -3 15 6 16 5 2 -11 -14 -17 -15 -17 -24 3 -5 12
-13 21 -18 21 -11 0 -10 -17 2 -25 6 -3 10 -15 10 -26 0 -14 7 -19 28 -19 15
0 33 5 39 11 7 7 17 7 29 1 11 -6 27 -13 37 -16 32 -10 19 -28 -15 -20 -29 6
-31 5 -19 -10 8 -9 11 -26 7 -41 -6 -22 -3 -25 19 -25 15 0 25 6 25 14 0 17
27 29 32 14 3 -7 25 -12 51 -13 44 0 48 1 58 32 10 32 46 54 58 35 3 -6 17
-10 31 -9 14 0 35 -2 48 -7 19 -6 22 -4 22 19 0 20 6 27 30 32 17 3 29 11 28
17 -1 6 2 44 6 84 6 57 11 72 22 68 8 -3 17 1 20 9 4 8 12 15 19 15 6 0 20 9
30 20 12 14 22 17 30 10 11 -9 55 0 97 21 23 12 85 11 125 0 24 -7 35 -6 43 4
6 8 23 15 38 17 19 2 28 11 34 33 6 22 19 35 50 48 61 27 81 34 101 41 13 4
17 12 12 26 -6 17 -2 20 29 20 28 0 40 -7 58 -30 12 -16 29 -30 39 -30 9 0 33
-7 53 -15 36 -15 36 -15 46 10 6 15 10 32 10 40 0 8 5 17 11 20 6 4 8 14 5 22
-4 9 1 17 14 20 15 4 19 11 14 25 -3 11 1 27 9 36 8 9 17 31 20 49 9 49 35 73
78 73 49 0 73 34 63 88 -4 20 -10 42 -14 47 -13 17 -36 123 -55 255 -6 40 -4
50 19 77 26 30 26 33 15 100 -7 37 -11 100 -10 139 l2 71 -33 14 c-18 7 -43
12 -55 11 -13 -2 -26 4 -32 15 -15 29 -63 23 -79 -11 -9 -17 -24 -29 -43 -33
-16 -3 -29 -11 -29 -18 0 -6 -9 -20 -20 -30 -17 -15 -24 -16 -45 -7 -14 6 -25
16 -25 22 0 5 -11 10 -23 10 -25 0 -47 33 -47 70 0 11 -5 20 -11 20 -8 0 -8 4
0 14 9 10 8 16 -4 26 -9 7 -14 19 -11 26 2 6 -5 21 -17 32 -23 22 -25 22 -178
-4 -82 -14 -150 38 -115 87 22 32 21 62 -1 55 -10 -2 -44 -7 -75 -11 -47 -5
-58 -10 -58 -25 0 -10 -9 -20 -20 -23 -15 -4 -20 -14 -21 -39 -1 -18 -3 -26
-6 -16 -3 12 -18 17 -60 20 -30 1 -57 0 -60 -4 -2 -5 1 -8 6 -8 15 0 13 -11
-5 -35 -12 -14 -18 -16 -21 -7 -4 9 -8 10 -18 2 -10 -8 -17 -5 -29 12 -9 12
-16 30 -16 40 0 21 -4 22 -32 7 -19 -10 -20 -9 -16 15 7 37 -19 50 -51 25 -17
-14 -39 -19 -83 -19 -54 0 -59 -2 -53 -19 6 -21 -18 -51 -41 -51 -8 0 -38 -23
-66 -51 -40 -40 -56 -50 -75 -46 -22 4 -24 2 -19 -22 l6 -26 -19 22 c-11 13
-17 31 -14 43 4 14 -1 21 -21 26 -14 3 -26 13 -26 20 0 8 -11 19 -25 24 -21 8
-25 16 -25 53 0 37 -4 46 -25 55 -14 7 -30 23 -35 36 -5 13 -18 27 -29 31 -15
4 -21 15 -21 35 0 33 -23 60 -50 60 -21 0 -34 28 -21 44 13 15 -2 38 -20 31
-20 -7 -35 5 -46 40 -5 17 -13 29 -16 28 -4 -2 -18 -3 -32 -3 -15 0 -36 -11
-50 -26 l-25 -27 0 32 c0 37 -28 43 -48 11z"/>
<path d="M2300 1385 c0 -9 7 -30 16 -47 9 -17 13 -41 10 -53 -10 -38 10 -75
38 -75 26 0 114 -67 115 -87 1 -7 6 -13 11 -13 30 0 65 -110 40 -125 -13 -8
-13 -51 0 -76 6 -10 21 -19 35 -19 22 0 23 1 10 28 -15 29 -19 59 -16 107 1
24 4 27 11 14 7 -13 23 -16 69 -14 43 1 61 -2 65 -11 3 -8 16 -14 30 -14 13 0
26 -7 30 -15 3 -8 12 -15 20 -15 8 0 24 -16 35 -36 21 -35 23 -35 64 -28 23 4
58 8 77 9 53 3 90 21 90 45 0 11 -7 20 -15 20 -8 0 -15 -4 -15 -10 0 -5 5 -10
12 -10 8 0 9 -3 2 -10 -11 -11 -182 -43 -193 -35 -5 2 -14 18 -21 35 -7 16
-18 30 -26 30 -21 0 -27 20 -8 27 10 4 22 0 30 -11 23 -32 144 -31 144 2 0 8
6 23 14 31 22 26 27 56 12 76 -13 18 -14 18 -20 -3 -9 -28 -36 -29 -36 -2 0
23 -35 28 -43 7 -3 -9 -16 -12 -35 -9 -23 3 -31 0 -36 -16 -15 -45 -86 -27
-86 22 0 26 -16 53 -26 43 -4 -4 -2 -18 5 -31 8 -13 10 -33 6 -46 -4 -14 -1
-28 11 -41 15 -17 15 -19 1 -19 -9 0 -19 9 -22 21 -4 11 -12 18 -18 16 -7 -2
-17 3 -24 12 -11 14 -12 14 -13 -5 0 -17 -6 -20 -35 -20 -24 1 -37 6 -41 19
-6 20 -20 22 -27 5 -3 -8 -6 -6 -6 5 -1 10 -13 29 -27 42 -31 29 -31 87 0 93
29 6 56 43 45 63 -12 24 -58 22 -52 -1 3 -11 -3 -22 -14 -28 -10 -6 -20 -23
-21 -38 -1 -15 -4 -29 -6 -31 -8 -8 -56 40 -56 58 0 15 -7 19 -35 19 -19 0
-35 3 -35 8 0 13 17 34 25 30 5 -1 16 12 26 30 20 34 9 45 -13 13 -8 -11 -19
-17 -24 -13 -16 10 -34 48 -34 71 0 12 -4 21 -10 21 -5 0 -10 -7 -10 -15z
m620 -295 c0 -15 7 -20 29 -20 16 0 32 6 35 13 3 6 3 1 0 -13 -4 -13 -13 -30
-20 -38 -8 -7 -14 -20 -14 -27 0 -20 -40 -30 -52 -14 -7 11 -11 11 -15 2 -7
-19 -27 -16 -49 8 -14 16 -26 19 -50 14 -26 -4 -35 -1 -48 17 -22 30 -20 45 2
25 27 -24 58 -21 81 9 16 20 26 25 45 20 16 -4 26 -1 30 9 8 22 26 18 26 -5z"/>
<path d="M2407 728 c3 -13 7 -30 10 -38 4 -8 5 -20 4 -26 -2 -18 20 -30 80
-44 68 -15 109 -8 109 20 0 14 -7 20 -23 20 -26 0 -67 38 -67 62 0 16 -39 28
-90 28 -24 0 -27 -3 -23 -22z"/>
</g>
</svg>
