<?xml version="1.0" standalone="no"?>
<!DOCTYPE svg PUBLIC "-//W3C//DTD SVG 20010904//EN"
 "http://www.w3.org/TR/2001/REC-SVG-20010904/DTD/svg10.dtd">
<svg version="1.0" xmlns="http://www.w3.org/2000/svg"
 width="351.000000pt" height="286.000000pt" viewBox="0 0 351.000000 286.000000"
 preserveAspectRatio="xMidYMid meet">
<metadata>
Created by potrace 1.15, written by Peter Selinger 2001-2017
</metadata>
<g transform="translate(0.000000,286.000000) scale(0.100000,-0.100000)"
fill="#000000" stroke="none">
<path d="M2005 2671 c-29 -6 -30 -9 -33 -66 -7 -135 -8 -151 -15 -162 -8 -13
7 -58 23 -68 16 -10 4 -155 -14 -173 -13 -13 -19 -11 -53 23 -32 33 -46 39
-86 42 -42 2 -54 -1 -88 -29 -33 -26 -40 -38 -36 -58 7 -34 -29 -60 -99 -69
-32 -5 -63 -16 -77 -28 -12 -12 -36 -24 -53 -27 -27 -6 -30 -10 -26 -35 3 -23
-1 -30 -17 -36 -11 -3 -29 -1 -40 4 -34 19 -43 13 -37 -24 5 -30 3 -35 -18
-41 -14 -3 -26 -15 -29 -27 -2 -12 -8 -30 -12 -40 -6 -13 -4 -16 9 -11 22 8
21 -22 0 -34 -11 -6 -13 -11 -5 -16 17 -11 13 -26 -4 -19 -18 6 -45 -25 -38
-43 2 -7 -8 -15 -26 -19 -21 -4 -31 -13 -31 -25 0 -47 25 -65 50 -35 9 11 16
13 24 5 7 -7 7 -13 -1 -21 -19 -19 -3 -39 31 -39 21 0 35 -7 45 -21 16 -27 2
-39 -45 -39 -17 0 -37 -7 -44 -15 -7 -8 -19 -15 -26 -15 -8 0 -14 -4 -14 -10
0 -5 5 -10 12 -10 6 0 8 -3 5 -7 -4 -3 0 -14 9 -24 11 -12 15 -28 11 -47 -3
-16 -3 -38 0 -50 4 -17 10 -20 34 -15 18 3 35 0 46 -8 9 -8 26 -14 37 -14 14
0 26 -11 37 -34 19 -40 14 -71 -11 -71 -24 0 -45 -28 -45 -59 0 -20 -5 -26
-19 -24 -11 1 -25 -6 -32 -15 -10 -14 -10 -20 3 -34 9 -11 12 -24 8 -39 -7
-22 -6 -22 60 -16 66 6 100 21 89 38 -11 18 23 9 41 -11 14 -16 15 -22 5 -35
-7 -8 -10 -24 -7 -35 3 -11 1 -20 -4 -20 -5 0 -7 -11 -3 -25 4 -17 2 -25 -7
-25 -17 -1 -52 -47 -45 -59 3 -4 -3 -16 -14 -26 -15 -13 -17 -22 -9 -36 12
-23 46 -25 70 -3 16 14 18 13 24 -15 8 -35 13 -38 30 -15 10 15 13 15 27 0 9
-9 33 -16 53 -16 l36 0 -20 -29 c-12 -16 -37 -35 -56 -41 -22 -7 -35 -18 -35
-29 0 -9 -7 -27 -16 -39 -14 -20 -14 -23 1 -28 9 -4 13 -13 10 -24 -4 -13 1
-19 20 -24 14 -4 30 -4 35 -1 6 4 10 -5 10 -19 0 -18 4 -24 14 -20 8 3 17 1
21 -5 3 -6 15 -11 26 -11 10 0 19 -5 19 -11 0 -7 10 -9 24 -5 14 3 28 2 31 -4
3 -5 18 -10 32 -10 14 0 31 -7 38 -16 7 -10 29 -18 51 -20 21 -1 41 -3 43 -3
2 -1 -3 -9 -13 -20 -24 -26 -11 -52 23 -45 19 4 32 0 45 -15 28 -31 58 -26 84
14 28 44 29 69 2 62 -29 -8 -24 11 11 40 28 24 31 31 26 70 -4 41 -2 46 34 77
22 18 39 40 39 49 0 21 -59 34 -72 16 -7 -11 -8 -9 -6 6 2 11 12 21 23 23 49
8 90 51 64 68 -5 3 -2 19 7 36 12 23 14 44 9 77 -8 52 -17 163 -16 201 0 14 1
46 1 71 0 38 10 60 56 135 31 49 61 103 65 119 12 40 -10 292 -28 328 -9 18
-14 59 -14 112 0 47 -4 87 -9 90 -6 3 -10 26 -10 49 0 53 -19 96 -70 161 l-39
50 5 75 c4 41 12 84 18 94 13 20 11 30 -20 156 -9 36 -19 82 -21 103 -3 23
-13 43 -26 52 -23 16 -26 16 -72 6z m60 -13 c20 -9 25 -18 25 -48 0 -20 4 -40
8 -45 21 -24 47 -187 34 -212 -5 -10 -12 -52 -15 -94 -6 -75 -6 -78 26 -119
62 -82 77 -113 75 -157 -1 -23 3 -47 9 -55 6 -7 11 -52 12 -100 0 -58 5 -94
14 -110 9 -14 19 -76 26 -161 13 -158 12 -163 -72 -294 -47 -74 -49 -81 -48
-198 0 -51 9 -158 16 -202 6 -31 3 -49 -8 -66 -9 -13 -13 -35 -10 -50 4 -22 2
-26 -11 -21 -11 4 -16 1 -16 -10 0 -10 -8 -16 -21 -16 -30 0 -50 -29 -37 -53
9 -17 10 -18 22 -2 9 12 19 15 34 11 22 -7 31 -36 11 -36 -6 0 -20 -11 -31
-25 -11 -14 -26 -25 -35 -25 -11 0 -13 -5 -8 -17 17 -40 16 -63 -1 -87 -11
-14 -25 -26 -31 -26 -8 0 -13 -14 -13 -35 0 -37 13 -47 24 -19 4 9 9 14 12 11
9 -9 -36 -77 -50 -77 -7 0 -21 9 -31 21 -11 11 -30 19 -45 18 -41 -2 -43 0
-25 27 20 31 15 38 -33 41 -20 1 -41 8 -47 16 -9 12 -36 21 -100 31 -46 8
-105 44 -105 64 0 7 -8 11 -17 10 -40 -3 -52 2 -46 18 3 9 1 19 -6 23 -16 10
14 81 35 81 18 0 84 62 84 79 0 6 -17 11 -39 11 -22 0 -44 6 -51 15 -8 9 -21
13 -36 9 -20 -5 -24 -2 -24 15 0 25 -4 26 -41 4 -22 -13 -31 -15 -41 -5 -9 9
-6 17 12 37 18 19 21 28 12 34 -9 6 -7 12 8 26 11 10 20 14 20 9 0 -5 7 0 15
10 11 14 12 23 4 33 -8 9 -8 13 0 13 6 0 8 11 5 29 -4 16 -1 32 5 35 16 10 14
23 -9 46 -26 26 -60 26 -60 1 0 -19 -39 -31 -103 -31 -24 0 -27 3 -18 17 7 13
5 23 -6 35 -18 21 -10 38 16 31 13 -3 21 2 26 17 4 12 4 24 1 27 -7 8 23 43
37 43 6 0 18 8 27 18 16 15 16 20 2 47 -8 17 -18 37 -22 45 -4 8 -19 15 -34
15 -15 0 -30 6 -35 14 -5 7 -24 14 -42 15 -33 2 -34 3 -31 41 2 21 -2 49 -9
62 -17 31 11 63 56 63 18 0 38 7 45 15 20 24 -12 65 -50 65 -27 0 -29 2 -24
29 7 34 -23 53 -43 26 -14 -20 -33 -12 -33 13 0 10 12 22 29 29 19 7 30 19 33
34 2 19 9 23 27 21 19 -2 22 2 18 18 -3 11 -1 23 4 26 11 7 12 54 0 54 -4 0
-6 11 -3 25 3 16 13 27 29 31 22 6 25 11 20 40 -5 32 -5 32 23 22 38 -13 68 4
72 39 2 21 9 29 28 31 14 2 32 12 40 23 11 14 35 23 73 28 71 10 113 38 109
74 -2 18 8 33 34 56 31 27 42 31 82 29 38 -3 51 -9 80 -40 39 -43 56 -47 72
-18 19 35 23 156 6 182 -10 17 -13 42 -9 93 3 39 4 96 4 127 -2 55 -1 57 26
61 15 2 29 5 30 6 1 0 14 -4 28 -11z"/>
</g>
</svg>
