<?xml version="1.0" standalone="no"?>
<!DOCTYPE svg PUBLIC "-//W3C//DTD SVG 20010904//EN"
 "http://www.w3.org/TR/2001/REC-SVG-20010904/DTD/svg10.dtd">
<svg version="1.0" xmlns="http://www.w3.org/2000/svg"
 width="396.000000pt" height="260.000000pt" viewBox="0 0 396.000000 260.000000"
 preserveAspectRatio="xMidYMid meet">
<metadata>
Created by potrace 1.15, written by Peter Selinger 2001-2017
</metadata>
<g transform="translate(0.000000,260.000000) scale(0.100000,-0.100000)"
fill="#000000" stroke="none">
<path d="M1615 1960 c-408 -176 -460 -201 -462 -222 -5 -42 -33 -701 -30 -704
1 -1 201 -106 445 -234 250 -131 451 -230 460 -227 9 2 214 91 455 197 329
145 441 199 447 214 4 12 11 177 15 367 l7 345 -338 179 c-187 98 -384 202
-439 231 l-100 53 -460 -199z m1015 -105 l305 -161 -3 -329 c-1 -182 -5 -344
-7 -361 -5 -29 -16 -35 -453 -227 -246 -109 -451 -197 -455 -197 -9 0 -867
448 -879 459 -9 8 21 703 30 713 4 4 209 94 457 201 l449 195 126 -66 c69 -37
262 -139 430 -227z"/>
</g>
</svg>
