<?xml version="1.0" standalone="no"?>
<!DOCTYPE svg PUBLIC "-//W3C//DTD SVG 20010904//EN"
 "http://www.w3.org/TR/2001/REC-SVG-20010904/DTD/svg10.dtd">
<svg version="1.0" xmlns="http://www.w3.org/2000/svg"
 width="668.000000pt" height="511.000000pt" viewBox="0 0 668.000000 511.000000"
 preserveAspectRatio="xMidYMid meet">
<metadata>
Created by potrace 1.15, written by Peter Selinger 2001-2017
</metadata>
<g transform="translate(0.000000,511.000000) scale(0.100000,-0.100000)"
fill="#000000" stroke="none">
<path d="M2548 4691 c-16 -9 -28 -22 -28 -29 0 -7 -17 -28 -37 -47 -37 -34
-38 -36 -35 -100 3 -62 2 -65 -23 -75 -14 -6 -40 -10 -56 -10 -19 0 -29 -5
-29 -15 0 -8 -5 -15 -12 -15 -6 0 -22 -10 -35 -22 -28 -26 -95 -28 -141 -4
-32 17 -99 21 -118 8 -6 -4 -17 -18 -23 -30 -11 -21 -10 -27 10 -48 22 -23 22
-27 10 -67 -21 -68 -26 -146 -8 -153 21 -7 -28 -97 -66 -119 -17 -10 -30 -28
-34 -46 -5 -25 -10 -29 -37 -29 -48 0 -58 -15 -38 -59 9 -20 20 -38 24 -41 4
-3 3 -12 -2 -20 -14 -21 -12 -30 5 -30 8 0 15 -7 15 -15 0 -9 -7 -18 -15 -21
-18 -7 -21 -79 -4 -89 6 -5 4 -11 -7 -19 -14 -11 -16 -22 -10 -64 6 -48 -3
-68 -19 -42 -3 6 -14 10 -24 10 -10 0 -25 10 -33 22 l-15 22 -42 -18 c-31 -15
-41 -25 -41 -43 0 -21 -4 -23 -44 -23 -30 0 -46 -5 -50 -15 -3 -8 -15 -15 -26
-15 -24 0 -80 -27 -80 -38 0 -4 7 -33 15 -65 8 -31 12 -63 9 -70 -5 -13 33
-53 74 -77 26 -15 2 -25 -57 -24 -47 1 -51 -1 -61 -29 -8 -24 -7 -34 5 -47 19
-21 19 -40 1 -40 -15 0 -26 -21 -26 -52 0 -17 6 -19 37 -16 29 2 38 -1 41 -14
2 -11 -3 -18 -13 -18 -9 0 -18 -12 -21 -30 -4 -17 -13 -30 -21 -30 -9 0 -13
-6 -9 -15 3 -8 2 -15 -3 -15 -4 0 -13 -11 -19 -25 -6 -14 -20 -25 -29 -25 -20
0 -53 -77 -53 -124 0 -23 -4 -26 -34 -26 -19 0 -38 -4 -41 -10 -3 -5 3 -10 14
-10 12 0 21 -7 21 -15 0 -8 -8 -15 -19 -15 -10 0 -21 -9 -24 -19 -5 -22 0 -31
20 -31 37 0 68 -71 42 -97 -6 -6 -9 -23 -7 -39 3 -27 6 -29 39 -26 44 4 58
-12 34 -38 -9 -10 -14 -23 -11 -29 4 -5 -3 -12 -13 -16 -13 -4 -21 -17 -23
-38 -2 -27 -8 -33 -30 -35 -27 -3 -38 -25 -18 -37 13 -8 1 -35 -17 -35 -10 0
-13 -6 -8 -18 3 -9 13 -55 22 -101 13 -69 18 -81 27 -69 19 26 77 9 96 -27 8
-17 22 -37 31 -45 9 -8 14 -21 12 -27 -3 -7 2 -13 10 -13 23 0 41 -28 28 -43
-7 -10 -7 -17 0 -24 8 -8 5 -20 -12 -42 -18 -24 -20 -34 -11 -43 6 -6 15 -8
19 -3 5 4 2 10 -5 12 -6 3 -10 9 -7 14 9 13 65 -41 65 -63 0 -10 4 -18 10 -18
16 0 60 23 60 32 0 4 5 8 11 8 6 0 8 -9 4 -20 -4 -14 -2 -20 8 -20 17 0 64
-68 73 -107 4 -15 16 -38 27 -50 18 -20 18 -23 4 -23 -23 0 -21 -13 4 -36 20
-18 21 -18 34 -1 18 25 29 5 20 -39 l-6 -36 55 3 c31 1 59 0 63 -4 12 -13 43
-7 43 8 0 8 7 15 15 15 8 0 15 -7 15 -16 0 -19 39 -10 57 13 7 9 21 13 33 10
15 -4 24 0 30 16 8 21 9 21 9 1 1 -11 7 -28 14 -36 16 -22 67 -13 67 12 0 21
66 33 204 38 l49 2 -7 32 c-5 24 -1 37 14 53 19 20 26 21 73 13 29 -5 56 -14
62 -19 5 -5 27 -9 48 -9 38 0 39 -1 34 -30 -6 -28 -5 -29 22 -24 25 5 29 2 35
-21 5 -19 2 -31 -9 -39 -16 -11 -16 -13 0 -26 15 -12 19 -11 35 9 21 28 36 22
45 -20 4 -16 15 -35 26 -42 10 -6 19 -19 19 -28 0 -9 7 -22 15 -29 22 -18 19
-29 -12 -43 -45 -19 -58 -47 -23 -47 25 0 42 -39 34 -79 -5 -23 -2 -29 15 -34
12 -3 24 -1 27 4 10 17 44 10 44 -10 0 -11 13 -25 34 -35 45 -21 46 -21 73 11
l22 28 1 -26 c0 -19 9 -29 34 -42 27 -12 33 -20 29 -37 -3 -11 0 -27 7 -35 12
-14 17 -12 46 16 27 26 36 30 47 20 18 -15 47 -4 47 18 0 9 5 33 11 54 10 37
10 37 64 37 42 0 60 5 83 25 l30 25 6 -25 c5 -20 11 -24 29 -21 79 16 74 11
81 78 5 52 3 65 -10 75 -13 9 -14 18 -6 40 7 22 14 27 35 25 23 -2 26 1 24 25
-2 26 1 28 36 31 29 3 37 7 37 23 0 32 19 59 40 59 12 0 20 7 20 18 0 9 7 26
15 36 13 17 15 18 15 3 0 -20 25 -23 37 -4 4 7 21 21 36 30 17 11 26 24 23 32
-6 18 38 50 81 58 28 5 32 3 41 -22 7 -20 7 -32 0 -39 -8 -8 -3 -13 15 -17 14
-4 28 -13 31 -21 7 -19 65 -18 73 2 4 11 13 14 30 9 14 -3 32 0 44 8 17 12 25
12 59 -5 22 -11 40 -26 40 -33 0 -7 8 -23 18 -35 17 -21 19 -21 53 -5 19 9 41
30 48 46 17 38 47 38 69 -1 10 -18 41 -43 77 -61 33 -18 71 -43 84 -56 13 -12
31 -23 41 -23 9 0 22 -11 28 -25 8 -18 19 -25 40 -25 15 0 43 -11 62 -25 19
-14 41 -25 51 -25 12 0 18 -13 22 -57 4 -34 2 -59 -3 -61 -12 -5 -13 -62 -1
-81 5 -8 18 -12 29 -9 16 5 30 -6 61 -49 23 -29 41 -62 41 -72 0 -17 25 -36
42 -33 4 1 4 -13 1 -31 -5 -33 -4 -33 44 -44 29 -7 52 -8 57 -2 6 5 38 9 71 9
56 0 63 2 83 30 12 16 22 33 22 38 0 5 13 15 29 21 37 16 57 57 35 69 -13 7
-9 14 25 38 53 38 54 65 2 113 -43 41 -61 91 -37 110 11 9 13 28 9 86 -4 50
-2 79 6 89 7 8 9 25 5 40 -3 15 -2 32 4 39 5 6 12 30 15 52 2 22 10 54 18 72
12 29 11 34 -16 72 -21 31 -29 56 -32 101 -2 37 0 60 6 60 6 0 20 32 32 70 11
39 25 70 29 70 14 0 31 66 25 93 -5 19 0 29 24 48 l31 24 -10 63 c-8 50 -8 68
4 91 8 15 12 38 9 50 -4 15 2 30 17 46 20 21 21 29 15 89 -6 53 -4 71 9 91 9
13 16 31 16 38 0 8 9 17 19 20 26 6 91 106 91 139 0 22 5 27 28 30 19 2 28 9
30 26 2 13 10 22 21 22 21 0 45 44 62 115 7 28 18 57 25 66 8 8 19 29 25 47 6
17 20 34 30 37 33 11 15 30 -27 30 -83 1 -102 6 -138 34 -21 17 -44 27 -52 24
-8 -3 -25 2 -39 11 -28 19 -76 21 -92 5 -9 -9 -20 -6 -43 11 -25 18 -34 20
-45 10 -9 -7 -30 -14 -48 -15 -17 -1 -42 -5 -54 -9 -17 -5 -27 0 -44 23 -18
25 -25 28 -41 20 -22 -12 -43 1 -53 31 -3 11 -15 22 -25 25 -11 3 -17 12 -14
20 10 24 -15 57 -38 49 -12 -3 -24 -1 -28 6 -5 8 -18 10 -39 5 -24 -5 -31 -12
-31 -31 0 -17 -6 -24 -20 -24 -10 0 -24 -8 -29 -18 -7 -14 -25 -18 -85 -21
-67 -2 -76 0 -88 18 -19 30 -46 27 -50 -6 -5 -44 -23 -36 -38 17 -11 42 -18
51 -46 60 -18 6 -37 17 -43 24 -13 16 -96 15 -112 -1 -8 -8 -6 -18 6 -36 24
-37 12 -47 -53 -45 l-57 3 0 35 c0 27 -5 37 -22 45 -13 5 -23 18 -23 27 0 10
-4 18 -10 18 -5 0 -10 11 -10 24 0 17 -7 26 -25 30 -29 7 -86 77 -67 84 22 7
13 41 -17 58 -18 10 -27 23 -24 31 3 8 -9 26 -28 43 -31 27 -41 29 -114 30
-73 0 -81 2 -110 29 -27 27 -35 29 -83 24 -44 -5 -55 -10 -62 -29 -12 -29 -52
-56 -74 -48 -11 4 -16 1 -16 -10 0 -19 -1 -19 -34 -6 -15 6 -26 17 -26 29 0
31 -25 43 -81 39 -52 -3 -52 -3 -61 30 -5 18 -13 30 -19 26 -6 -3 -19 2 -29
11 -19 17 -20 17 -38 -5 -16 -20 -21 -21 -61 -10 -39 10 -44 10 -58 -9 -9 -14
-25 -21 -47 -21 -19 0 -39 -7 -46 -16 -23 -27 -50 -37 -66 -23 -11 9 -11 15
-3 25 8 10 7 19 -5 36 -9 12 -16 32 -16 44 0 15 -15 31 -47 53 -41 26 -50 29
-59 16 -15 -20 -24 -8 -18 24 9 44 -26 71 -91 71 -42 0 -55 3 -55 15 0 9 -9
15 -24 15 -19 0 -27 8 -36 35 -8 24 -18 35 -31 35 -30 0 -79 28 -79 45 0 23
-47 19 -60 -5 -7 -13 -21 -20 -40 -20 l-30 0 0 74 c0 41 4 77 9 80 14 9 0 60
-23 78 -11 10 -29 18 -39 18 -20 0 -36 32 -19 38 7 2 12 13 12 25 0 11 7 29
17 39 15 17 15 19 -2 38 -18 20 -18 21 3 43 12 13 22 30 22 39 0 9 7 21 15 28
18 15 18 20 2 41 -18 24 -59 29 -89 10z m79 -14 c10 -7 9 -14 -2 -30 -8 -12
-15 -28 -15 -36 0 -8 -9 -25 -21 -37 -18 -19 -19 -25 -7 -43 10 -16 10 -23 0
-33 -6 -6 -12 -20 -12 -30 0 -10 -5 -27 -12 -37 -16 -26 -3 -51 25 -51 43 0
52 -24 52 -139 l0 -106 31 -3 c20 -2 36 4 49 18 24 26 27 26 65 -10 18 -16 43
-30 56 -30 18 0 27 -9 38 -35 10 -24 22 -35 35 -35 12 0 21 -7 21 -15 0 -12
13 -15 58 -15 71 0 98 -21 87 -68 -5 -23 -2 -31 11 -36 10 -4 21 -2 24 5 15
24 90 -32 90 -67 0 -13 5 -26 11 -30 6 -3 9 -19 5 -35 -10 -50 44 -61 87 -17
10 10 32 18 50 18 21 0 36 7 44 19 10 17 17 18 59 9 43 -9 49 -8 64 12 15 19
18 20 29 6 8 -9 20 -16 27 -16 8 0 14 -9 14 -19 0 -28 18 -36 80 -36 52 0 55
-1 60 -29 4 -22 12 -32 35 -38 21 -5 33 -4 40 5 6 7 17 11 26 9 10 -2 31 14
50 37 28 32 42 40 75 42 33 2 48 -2 73 -24 29 -24 40 -27 111 -27 70 0 82 -3
109 -26 17 -14 28 -31 25 -36 -4 -6 8 -24 27 -39 28 -24 31 -30 19 -38 -13 -9
-12 -15 5 -47 11 -20 34 -43 52 -52 23 -11 33 -23 33 -39 0 -13 5 -23 10 -23
6 0 10 -9 10 -19 0 -13 8 -21 23 -23 18 -2 21 -8 19 -34 -4 -40 12 -52 77 -55
65 -4 81 13 56 61 -9 17 -11 30 -5 31 47 4 81 1 92 -9 7 -6 26 -14 41 -17 28
-7 57 -56 57 -96 0 -11 5 -19 12 -19 19 0 47 31 41 46 -8 22 14 17 30 -7 13
-18 24 -20 79 -18 36 1 69 -1 75 -4 6 -4 18 4 27 18 9 14 25 25 36 25 14 0 20
7 20 24 0 26 39 44 51 24 4 -6 18 -8 32 -4 25 6 44 -15 31 -35 -3 -6 5 -21 18
-34 12 -14 31 -34 41 -45 12 -14 24 -19 38 -15 15 5 29 -1 48 -19 24 -23 31
-25 61 -16 19 5 43 7 53 4 10 -3 25 0 33 7 12 10 21 9 44 -5 23 -13 34 -14 49
-6 28 15 67 12 81 -5 7 -8 27 -15 46 -15 21 0 38 -7 47 -20 14 -20 79 -39 136
-40 29 0 32 -2 19 -12 -23 -20 -64 -98 -78 -153 -19 -71 -39 -108 -55 -101
-16 6 -29 -10 -30 -34 0 -8 -7 -15 -15 -15 -26 -1 -40 -15 -40 -41 0 -34 -59
-121 -92 -135 -15 -6 -25 -15 -22 -20 2 -5 -3 -23 -12 -40 -12 -25 -15 -46 -9
-93 5 -54 4 -64 -14 -80 -14 -13 -20 -30 -19 -55 0 -20 -4 -46 -11 -58 -8 -16
-9 -39 -2 -80 9 -55 8 -59 -18 -88 -21 -22 -28 -41 -29 -73 -1 -26 -9 -52 -21
-67 -10 -14 -24 -48 -31 -75 -7 -28 -19 -54 -27 -59 -27 -15 -12 -130 23 -176
26 -34 27 -39 15 -68 -8 -18 -16 -48 -18 -67 -3 -19 -10 -41 -15 -47 -6 -7 -7
-28 -4 -47 4 -20 2 -36 -3 -38 -13 -4 -17 -94 -7 -126 5 -16 3 -29 -9 -42 -26
-28 -11 -78 36 -121 51 -48 50 -70 -6 -110 -46 -33 -56 -49 -30 -49 8 0 15 -6
15 -14 0 -23 -40 -46 -67 -40 -24 6 -30 -5 -13 -22 7 -7 4 -19 -10 -37 -19
-24 -28 -27 -85 -27 -35 0 -65 -4 -67 -10 -2 -6 -19 -5 -46 2 -43 11 -43 11
-37 48 6 34 4 37 -17 36 -17 -1 -24 5 -26 24 -2 14 -12 32 -22 40 -10 8 -28
31 -39 50 -16 26 -28 35 -48 35 -24 0 -28 4 -31 33 -2 17 1 32 7 32 11 0 9
110 -3 128 -4 7 -14 12 -22 12 -8 0 -32 11 -52 25 -20 14 -49 25 -63 25 -21 0
-29 7 -37 30 -8 22 -15 28 -27 24 -10 -4 -25 2 -38 15 -12 13 -49 37 -81 55
-33 18 -64 41 -70 51 -30 53 -69 58 -96 12 -11 -19 -32 -39 -47 -46 -29 -13
-36 -8 -55 42 -5 15 -18 27 -27 27 -9 0 -27 7 -39 16 -21 15 -25 15 -41 0 -12
-11 -27 -15 -43 -11 -16 4 -29 1 -37 -9 -17 -20 -50 -21 -57 -1 -4 8 -14 15
-23 15 -11 0 -17 10 -18 32 -4 49 -22 62 -70 49 -34 -9 -93 -55 -85 -67 6 -11
1 -24 -10 -24 -6 0 -23 -10 -36 -23 l-25 -22 13 24 c10 19 10 25 -1 32 -20 13
-29 11 -29 -6 0 -25 -34 -82 -55 -91 -11 -5 -24 -23 -29 -41 -8 -27 -15 -32
-45 -35 -32 -3 -36 -6 -36 -30 1 -23 -3 -26 -21 -22 -17 5 -24 -1 -33 -27 -15
-44 -14 -59 5 -59 13 0 15 -7 10 -33 -3 -17 -7 -45 -9 -62 -2 -26 -7 -30 -40
-36 -34 -5 -40 -3 -48 17 -11 30 -23 30 -43 2 -13 -18 -28 -23 -80 -26 l-65
-4 -12 -55 c-14 -60 -23 -71 -45 -52 -12 10 -20 7 -44 -16 -33 -32 -52 -26
-44 13 5 24 2 29 -27 37 -26 8 -35 17 -42 44 l-8 34 -28 -33 -27 -33 -32 17
c-25 13 -31 22 -27 35 4 15 -1 20 -27 24 -18 2 -34 1 -36 -4 -2 -5 -11 -9 -19
-9 -11 0 -14 7 -9 24 9 36 -12 86 -37 86 -11 0 -17 3 -13 8 4 4 11 7 14 7 4 0
18 8 31 17 l23 17 -21 44 c-12 25 -28 51 -36 57 -8 6 -19 27 -25 46 -13 39
-45 47 -55 14 -4 -11 -11 -18 -16 -15 -5 4 -4 13 2 23 16 25 -5 72 -31 72 -12
0 -19 4 -16 9 15 23 -7 41 -50 41 -34 0 -44 4 -44 16 0 9 -6 14 -12 11 -7 -2
-33 -1 -58 2 -36 6 -51 3 -73 -12 -25 -17 -28 -24 -22 -53 l6 -34 -43 -2
c-128 -4 -200 -18 -205 -39 -6 -21 -37 -31 -52 -16 -6 6 -11 21 -11 33 0 31
-20 41 -27 14 -4 -16 -12 -21 -29 -17 -16 3 -25 -1 -29 -13 -7 -22 -45 -34
-45 -14 0 8 -10 14 -25 14 -16 0 -25 -6 -25 -15 0 -8 -7 -15 -15 -15 -8 0 -15
4 -15 8 0 5 -25 7 -55 4 l-55 -4 6 31 c6 28 2 37 -40 76 -25 25 -46 53 -46 63
0 23 -55 111 -74 118 -8 3 -12 12 -10 19 3 7 -4 18 -15 24 -26 15 -31 14 -25
-3 3 -8 -3 -19 -15 -25 -27 -15 -31 -14 -31 8 0 11 -14 31 -31 45 -21 18 -28
30 -22 39 8 10 10 47 4 86 0 5 -10 12 -20 16 -12 4 -18 12 -14 21 3 7 0 14 -6
14 -6 0 -11 4 -11 10 0 5 -7 18 -15 27 -8 10 -20 26 -27 35 -8 10 -31 19 -58
21 -43 4 -45 6 -44 36 1 17 -2 31 -7 31 -5 0 -9 12 -9 28 0 15 -4 33 -9 41 -6
10 -3 20 12 32 20 16 20 20 9 40 -13 20 -12 21 7 16 24 -6 41 17 41 53 0 14 8
24 20 27 14 4 19 11 15 23 -3 11 1 20 10 24 10 3 15 15 13 28 -2 19 -9 23 -43
24 -34 0 -41 4 -43 23 -2 13 1 28 7 34 19 19 12 61 -13 85 -13 12 -29 22 -35
22 -6 0 -11 7 -11 17 0 9 3 13 7 10 10 -11 33 13 33 34 0 12 7 19 20 19 17 0
20 7 20 39 0 22 4 42 9 45 4 3 11 19 14 36 5 22 12 30 27 30 13 0 24 10 30 25
5 14 15 25 21 25 6 0 9 7 5 15 -3 9 0 15 9 15 9 0 15 10 15 26 0 17 6 28 20
31 24 6 27 45 5 63 -12 10 -19 10 -27 2 -19 -19 -38 -14 -38 9 0 12 8 23 20
26 23 6 26 30 6 58 -24 36 -6 59 50 60 58 1 74 9 74 36 0 11 -4 18 -8 15 -14
-8 -82 43 -76 57 2 7 -2 40 -11 73 -15 58 -15 59 7 76 13 10 35 18 49 18 15 0
30 7 33 16 5 12 17 15 51 12 43 -3 45 -2 45 25 0 23 7 31 36 43 34 14 37 14
51 -5 8 -12 22 -21 32 -21 10 0 24 -7 31 -15 22 -26 32 -5 25 50 -5 44 -3 55
11 63 13 7 14 13 5 30 -16 29 -14 72 4 78 17 7 20 50 5 59 -6 4 -8 15 -5 26 4
10 2 19 -3 19 -13 0 -35 56 -27 69 3 6 22 11 41 11 29 0 34 4 34 23 0 28 9 41
37 56 13 6 32 29 43 51 11 21 27 43 35 48 14 7 13 11 -5 27 -24 22 -26 71 -5
122 21 49 19 88 -5 104 -17 12 -18 17 -7 39 10 20 21 26 55 28 24 2 50 -2 58
-9 27 -22 102 -30 140 -14 19 8 34 19 34 24 0 6 7 11 15 11 9 0 18 7 21 15 4
8 16 15 29 15 12 0 36 5 52 11 25 8 32 17 35 43 2 18 1 43 -3 57 -7 30 14 76
40 84 10 3 22 17 25 30 11 43 67 61 103 32z"/>
</g>
</svg>
