<?xml version="1.0" standalone="no"?>
<!DOCTYPE svg PUBLIC "-//W3C//DTD SVG 20010904//EN"
 "http://www.w3.org/TR/2001/REC-SVG-20010904/DTD/svg10.dtd">
<svg version="1.0" xmlns="http://www.w3.org/2000/svg"
 width="410.000000pt" height="387.000000pt" viewBox="0 0 410.000000 387.000000"
 preserveAspectRatio="xMidYMid meet">
<metadata>
Created by potrace 1.15, written by Peter Selinger 2001-2017
</metadata>
<g transform="translate(0.000000,387.000000) scale(0.100000,-0.100000)"
fill="#000000" stroke="none">
<path d="M1680 3612 c-43 -21 -68 -26 -113 -24 -36 1 -69 -3 -87 -13 -16 -8
-38 -15 -50 -15 -11 0 -23 -7 -26 -15 -4 -9 -13 -13 -24 -10 -9 3 -23 -1 -30
-10 -7 -8 -25 -15 -40 -15 -15 0 -41 -7 -56 -15 -16 -8 -46 -15 -68 -15 -21 0
-53 -9 -70 -19 -17 -11 -51 -25 -76 -31 -33 -9 -57 -26 -90 -62 -31 -34 -56
-52 -80 -57 -39 -8 -38 -2 -24 -145 5 -53 3 -70 -7 -77 -11 -6 -13 -35 -11
-125 2 -97 6 -121 22 -144 24 -33 25 -41 6 -34 -11 4 -16 -10 -21 -63 -14
-152 -12 -171 23 -175 l27 -3 -36 -22 c-33 -19 -38 -27 -44 -72 l-7 -52 48
-44 c26 -25 53 -45 59 -45 15 0 35 -21 35 -37 0 -10 -5 -11 -19 -3 -11 5 -31
10 -46 10 -14 0 -28 7 -31 15 -9 23 -42 18 -69 -11 -13 -14 -31 -51 -40 -81
-11 -38 -27 -65 -53 -89 -31 -28 -34 -34 -19 -40 9 -3 24 -1 32 6 19 16 35 4
35 -26 0 -13 4 -24 9 -24 12 0 121 -108 121 -119 0 -5 16 -15 35 -21 45 -15
81 -63 90 -120 4 -25 18 -63 31 -86 28 -48 29 -54 9 -54 -8 0 -15 -7 -15 -15
0 -8 -7 -15 -15 -15 -9 0 -15 -9 -15 -23 0 -13 -5 -28 -12 -35 -9 -9 -7 -13 7
-18 11 -5 20 -3 23 4 2 7 8 9 14 6 5 -3 2 -14 -8 -25 -9 -10 -18 -35 -20 -56
-2 -21 -6 -50 -10 -65 -4 -19 0 -35 16 -56 18 -24 21 -38 16 -67 -7 -36 -7
-37 18 -31 21 5 26 3 26 -12 0 -10 -11 -29 -24 -42 -40 -37 -42 -70 -7 -128
17 -27 31 -63 31 -79 0 -17 7 -36 15 -43 11 -9 12 -17 4 -32 -8 -15 -14 -17
-22 -9 -6 6 -21 11 -33 11 -26 0 -39 -44 -17 -61 7 -7 12 -17 11 -23 -1 -6 4
-21 11 -34 10 -19 18 -22 41 -17 15 3 31 2 34 -3 3 -5 46 -7 98 -4 79 4 97 9
121 28 33 28 47 30 47 9 0 -11 7 -14 23 -10 15 4 29 0 40 -13 12 -13 26 -18
44 -14 18 3 24 1 19 -7 -5 -7 4 -11 28 -11 25 0 38 6 46 20 14 27 28 25 42 -6
11 -22 17 -25 46 -20 27 4 44 -2 87 -30 30 -20 59 -33 64 -29 6 3 11 0 11 -8
0 -7 11 -19 24 -27 21 -11 28 -10 54 9 l30 21 22 -30 c27 -38 67 -40 100 -5
22 24 25 24 48 9 19 -12 36 -15 71 -9 25 3 56 7 69 7 12 0 22 4 22 8 0 5 16 6
35 3 31 -5 35 -3 35 15 0 19 4 21 33 15 17 -3 32 -6 32 -7 0 -1 11 -16 24 -35
20 -29 22 -37 11 -54 -11 -19 -8 -25 33 -64 25 -23 49 -52 52 -64 5 -14 13
-19 26 -16 14 4 24 -3 34 -24 8 -15 21 -26 28 -24 6 3 19 -10 28 -28 12 -23
22 -31 38 -30 13 2 24 -4 28 -15 4 -9 11 -20 17 -24 12 -8 50 46 60 84 4 19
13 28 26 28 13 0 24 10 30 25 5 14 15 25 21 25 6 0 9 7 5 15 -3 9 0 15 9 15 9
0 15 10 15 26 0 17 6 28 20 31 24 6 27 45 5 63 -12 10 -19 10 -27 2 -19 -19
-38 -14 -38 9 0 12 8 23 20 26 23 6 26 30 6 58 -24 36 -6 59 50 60 58 1 74 9
74 36 0 11 -4 18 -8 15 -14 -8 -82 43 -76 57 2 7 -2 40 -11 73 -15 58 -15 59
7 76 13 10 35 18 49 18 15 0 30 7 33 16 5 12 17 15 51 12 43 -3 45 -2 45 25 0
23 7 31 36 43 34 14 37 14 51 -5 8 -12 22 -21 32 -21 10 0 24 -7 31 -15 22
-26 32 -5 25 50 -5 44 -3 55 11 63 13 7 14 13 5 30 -16 29 -14 72 4 78 17 7
20 50 5 59 -6 4 -8 15 -5 26 4 10 2 19 -3 19 -13 0 -35 56 -27 69 3 6 22 11
41 11 29 0 34 4 34 23 0 28 9 41 37 56 13 6 32 29 43 51 11 21 27 43 35 48 14
7 13 11 -5 27 -24 22 -26 71 -5 122 21 50 19 90 -5 103 -16 8 -18 15 -10 35 8
21 7 25 -11 25 -11 0 -22 7 -25 15 -4 8 -13 15 -21 15 -8 0 -13 6 -10 13 3 7
-1 21 -8 31 -17 22 -9 46 15 46 10 0 25 12 34 26 16 23 16 29 1 75 -15 44 -20
49 -46 49 -26 0 -29 2 -19 19 5 11 10 36 10 55 0 20 5 36 10 36 6 0 10 5 10
12 0 6 10 22 21 35 18 18 20 25 9 38 -16 19 -49 19 -56 0 -9 -22 -24 -18 -24
6 0 29 -18 59 -35 59 -16 0 -55 35 -55 49 0 15 -85 7 -113 -11 -33 -23 -35
-22 -56 3 -15 19 -23 21 -69 14 -47 -6 -53 -10 -60 -38 -12 -46 -27 -43 -51 8
-16 34 -19 50 -11 59 17 21 0 107 -29 143 -28 35 -57 41 -106 23 -25 -10 -26
-9 -23 23 2 26 -1 33 -18 35 -14 2 -24 -5 -32 -23 -12 -25 -25 -29 -87 -25
-57 3 -73 22 -80 97 -4 37 -14 76 -22 85 -11 13 -14 29 -9 58 7 47 -6 80 -33
80 -13 0 -25 16 -41 55 -23 58 -33 64 -64 40 -11 -8 -36 -15 -55 -15 -27 0
-49 -10 -83 -37 -26 -21 -47 -46 -48 -55 0 -28 -20 -31 -45 -8 -13 13 -31 20
-39 17 -17 -7 -52 31 -92 99 -25 43 -36 49 -79 46 -11 -1 -26 8 -34 20 -19 30
-15 140 5 151 12 7 11 14 -6 47 -11 21 -24 41 -29 44 -5 4 -12 21 -16 39 -10
52 -26 97 -33 96 -4 0 -32 -13 -62 -27z m70 -11 c5 -11 10 -30 10 -43 0 -24
10 -45 44 -93 15 -21 17 -31 9 -44 -6 -10 -13 -44 -14 -77 -5 -80 15 -112 67
-111 22 1 39 -4 42 -12 2 -7 23 -40 46 -74 33 -50 46 -62 67 -62 15 0 36 -8
46 -17 27 -25 42 -22 49 7 10 40 84 95 128 95 20 0 48 7 61 16 24 16 25 16 49
-40 19 -42 30 -56 45 -56 23 0 25 -8 22 -81 -2 -30 2 -49 12 -58 9 -7 18 -39
22 -79 8 -82 28 -101 106 -104 46 -2 54 1 74 26 24 30 52 28 36 -3 -15 -28 1
-44 33 -31 46 17 73 12 99 -19 27 -33 43 -116 27 -137 -12 -13 4 -61 32 -97
18 -24 46 -12 50 21 3 23 10 28 46 36 38 8 45 6 68 -15 24 -23 25 -23 55 -5
47 28 99 27 127 -3 12 -13 22 -28 22 -32 0 -5 6 -6 14 -3 16 6 36 -24 36 -55
0 -14 6 -21 20 -21 11 0 20 7 20 15 0 18 37 20 42 3 2 -6 -3 -20 -11 -29 -36
-40 -41 -50 -41 -86 0 -21 -7 -48 -15 -60 -15 -21 -14 -22 21 -25 33 -3 39 -7
50 -41 16 -46 7 -70 -34 -89 -18 -10 -26 -20 -23 -33 2 -11 4 -32 5 -47 1 -20
6 -28 19 -28 10 0 20 -7 23 -15 4 -8 13 -15 21 -15 10 0 13 -6 9 -17 -4 -10 2
-25 16 -40 21 -22 21 -26 9 -66 -21 -68 -26 -146 -8 -153 21 -7 -28 -97 -66
-119 -17 -10 -30 -28 -34 -46 -5 -25 -10 -29 -37 -29 -48 0 -58 -15 -38 -59 9
-20 20 -38 24 -41 4 -3 3 -12 -2 -20 -14 -21 -12 -30 5 -30 8 0 15 -7 15 -15
0 -9 -7 -18 -15 -21 -18 -7 -21 -79 -4 -89 6 -5 4 -11 -7 -19 -14 -11 -16 -22
-10 -64 6 -48 -3 -68 -19 -42 -3 5 -14 10 -24 10 -10 0 -25 10 -33 22 l-15 22
-42 -18 c-31 -15 -41 -25 -41 -43 0 -21 -4 -23 -44 -23 -30 0 -46 -5 -50 -15
-3 -8 -15 -15 -26 -15 -24 0 -80 -27 -80 -38 0 -4 7 -33 15 -65 8 -31 12 -63
9 -70 -5 -13 33 -53 74 -77 26 -15 2 -25 -57 -24 -47 1 -51 -1 -61 -29 -8 -24
-7 -34 5 -47 19 -21 19 -40 1 -40 -15 0 -26 -21 -26 -52 0 -17 6 -19 37 -16
29 2 38 -1 41 -14 2 -11 -3 -18 -13 -18 -9 0 -18 -12 -21 -30 -4 -17 -13 -30
-21 -30 -9 0 -13 -6 -9 -15 3 -8 2 -15 -3 -15 -4 0 -13 -11 -19 -25 -7 -15
-20 -25 -32 -25 -11 0 -20 -5 -20 -12 0 -18 -41 -98 -50 -98 -4 0 -10 9 -13
21 -4 15 -12 20 -29 17 -18 -2 -27 5 -41 32 -10 20 -23 34 -32 32 -8 -2 -20 8
-26 22 -8 17 -19 25 -33 23 -15 -1 -22 4 -24 19 -2 12 -13 26 -26 32 -34 15
-68 66 -54 80 8 8 5 23 -12 55 -19 37 -29 45 -66 53 -43 10 -44 10 -44 -14 0
-22 -3 -24 -29 -19 -16 3 -32 3 -36 -1 -3 -4 -12 -7 -18 -7 -7 -1 -33 -5 -58
-9 -36 -6 -54 -4 -78 9 -32 16 -33 16 -52 -9 -27 -35 -56 -33 -96 6 l-33 32
-24 -23 c-20 -19 -28 -21 -45 -12 -13 8 -21 22 -21 38 0 25 -1 26 -16 11 -16
-16 -21 -14 -70 17 -42 27 -60 33 -84 29 -25 -5 -31 -2 -41 20 -15 31 -45 34
-54 5 -5 -16 -12 -20 -31 -15 -13 3 -36 9 -51 12 -16 4 -36 13 -45 22 -10 8
-26 12 -38 9 -13 -3 -20 0 -20 9 0 21 -31 17 -58 -8 -19 -19 -39 -24 -115 -29
-55 -4 -97 -3 -104 3 -6 5 -22 8 -34 6 -12 -2 -25 4 -29 12 -4 8 -12 25 -18
37 -18 34 -15 63 6 63 10 0 23 -5 30 -12 9 -9 15 -8 27 8 18 24 18 29 0 44 -8
7 -15 25 -15 41 0 16 -13 53 -30 82 -16 30 -30 59 -30 65 0 6 14 27 30 45 22
25 30 45 30 71 0 20 -4 36 -10 36 -5 0 -10 -4 -10 -9 0 -5 -6 -11 -14 -14 -11
-5 -13 1 -9 28 4 25 0 42 -17 66 -20 27 -22 36 -12 61 6 16 8 36 5 44 -3 9 4
28 16 44 11 16 18 36 15 44 -7 18 -20 21 -29 6 -3 -6 -12 -10 -18 -9 -9 0 -9
2 1 6 6 2 12 16 12 29 0 15 6 24 15 24 8 0 15 7 15 15 0 8 9 15 20 15 25 0 26
0 -9 59 -16 27 -33 71 -36 98 -8 53 -46 103 -95 123 -15 6 -32 22 -38 36 -7
13 -15 24 -20 24 -17 0 -102 90 -102 109 0 22 -42 41 -48 22 -2 -6 -9 -11 -15
-11 -7 0 2 13 20 30 20 19 37 49 47 83 16 55 49 107 68 107 6 0 20 -7 30 -17
10 -9 30 -17 46 -18 15 -1 35 -5 45 -9 12 -6 17 -4 17 9 0 28 -20 55 -40 55
-11 0 -27 11 -36 25 -9 13 -24 27 -34 30 -25 8 -32 31 -24 83 6 38 11 46 40
58 40 17 46 44 9 44 -24 0 -25 2 -25 73 0 39 3 89 6 109 6 32 9 36 25 28 31
-17 31 -11 0 33 -28 41 -30 51 -33 151 -2 82 0 109 11 115 10 7 12 26 7 82
-13 156 -14 144 15 147 17 2 46 23 77 56 38 40 63 56 99 66 26 7 55 19 64 27
10 8 48 19 85 24 38 5 71 14 72 19 2 6 21 10 42 10 23 0 40 5 43 14 3 8 14 12
25 10 10 -3 24 2 31 10 8 9 23 16 35 16 11 1 32 7 46 15 28 16 71 19 86 6 5
-5 37 2 79 19 86 35 82 34 95 11z"/>
</g>
</svg>
