<?xml version="1.0" standalone="no"?>
<!DOCTYPE svg PUBLIC "-//W3C//DTD SVG 20010904//EN"
 "http://www.w3.org/TR/2001/REC-SVG-20010904/DTD/svg10.dtd">
<svg version="1.0" xmlns="http://www.w3.org/2000/svg"
 width="306.000000pt" height="290.000000pt" viewBox="0 0 306.000000 290.000000"
 preserveAspectRatio="xMidYMid meet">
<metadata>
Created by potrace 1.15, written by Peter Selinger 2001-2017
</metadata>
<g transform="translate(0.000000,290.000000) scale(0.100000,-0.100000)"
fill="#000000" stroke="none">
<path d="M1075 2514 c-11 -2 -50 -6 -87 -9 -65 -6 -68 -8 -68 -32 0 -16 -21
-54 -50 -95 -47 -64 -50 -72 -49 -126 1 -115 9 -135 93 -242 l78 -101 -7 -92
c-6 -90 -6 -94 28 -172 78 -183 103 -222 164 -261 70 -44 73 -48 73 -101 0
-24 3 -43 6 -43 4 0 22 13 41 30 41 36 76 40 71 8 -3 -20 1 -22 52 -19 l55 2
20 -53 c11 -29 33 -65 49 -80 27 -25 28 -29 16 -57 -7 -17 -16 -31 -21 -31 -4
0 -24 16 -45 35 -20 19 -47 35 -59 35 -19 0 -25 -8 -35 -49 -7 -32 -31 -76
-66 -122 -30 -40 -54 -75 -54 -78 0 -3 16 -16 35 -29 30 -19 35 -28 35 -61 0
-33 7 -45 50 -85 27 -25 54 -46 60 -46 5 0 29 27 53 59 23 33 47 60 53 60 6 1
24 -18 40 -41 l29 -41 9 31 c10 37 21 41 29 12 5 -20 10 -20 94 -14 l89 7 18
-47 c20 -52 26 -55 44 -25 13 20 13 20 34 -6 l21 -27 -23 -48 c-25 -54 -23
-62 32 -121 19 -21 31 -25 62 -21 l38 4 -7 67 -7 67 40 27 c44 29 51 49 53
167 1 53 -4 79 -30 138 -28 64 -31 79 -26 135 4 46 1 77 -13 122 -18 54 -23
60 -48 60 -25 1 -28 5 -32 40 -2 24 -16 55 -38 83 -28 37 -34 54 -34 93 0 53
-4 57 -38 33 -12 -8 -22 -14 -22 -12 -10 106 -20 191 -23 195 -3 2 -23 -5 -46
-16 -53 -28 -61 -27 -61 8 0 19 13 44 35 71 19 23 35 46 35 52 0 20 -64 98
-80 98 -31 0 -41 24 -31 70 12 55 17 58 36 20 11 -21 21 -30 31 -26 9 3 27 6
41 6 25 0 26 2 20 49 -7 58 -2 66 31 45 13 -8 26 -13 29 -10 5 5 -84 176 -92
176 -2 0 -21 -33 -44 -74 -34 -62 -45 -74 -72 -80 -46 -9 -59 -8 -59 6 0 7
-30 43 -66 79 -38 39 -89 105 -119 156 l-52 88 -46 0 c-40 0 -51 4 -72 30 -13
17 -24 33 -25 36 0 7 -145 100 -151 98 -2 -1 -13 -3 -24 -5z m90 -68 c28 -19
69 -56 90 -81 35 -43 40 -46 79 -43 l41 3 48 -80 c26 -44 76 -108 110 -143 58
-59 62 -66 67 -119 6 -63 30 -88 30 -30 0 26 5 36 19 40 37 9 44 -6 31 -66
-11 -49 -11 -57 6 -80 11 -14 27 -27 38 -29 10 -2 29 -17 42 -33 l23 -31 -34
-43 c-31 -39 -35 -51 -35 -103 0 -44 3 -59 13 -55 6 3 31 13 55 22 24 10 45
16 47 14 2 -3 7 -50 11 -107 4 -56 9 -102 11 -102 2 0 15 7 28 16 24 16 25 16
25 -8 0 -14 15 -45 33 -69 21 -27 37 -63 43 -94 8 -44 12 -50 34 -50 39 0 55
-44 53 -140 -2 -69 2 -90 29 -155 31 -76 35 -109 22 -211 -5 -41 -10 -49 -46
-69 l-41 -23 6 -63 c4 -60 3 -64 -17 -64 -13 0 -30 13 -44 33 l-22 34 25 45
25 45 -20 26 c-27 34 -25 45 8 49 27 3 27 4 24 63 -2 33 -6 62 -8 64 -3 3 -19
-13 -37 -34 -68 -83 -78 -89 -95 -51 -9 21 -17 24 -44 21 -18 -2 -57 -6 -85
-9 l-53 -5 -21 49 c-12 28 -25 50 -29 50 -4 0 -11 -16 -14 -35 -8 -42 -18 -44
-44 -10 -11 14 -24 25 -28 25 -5 0 -24 -22 -42 -49 -18 -27 -41 -56 -51 -65
-18 -16 -21 -15 -54 13 -27 24 -35 40 -40 77 -3 31 -11 50 -26 60 -11 8 -21
21 -21 27 0 7 21 39 45 71 25 33 45 65 45 72 0 7 5 25 10 40 l11 27 27 -25
c30 -28 73 -58 83 -58 9 0 59 95 59 111 -1 8 -15 23 -31 34 -22 14 -41 43 -64
95 -19 43 -39 76 -49 78 -9 2 -16 -3 -16 -12 0 -9 -7 -16 -16 -16 -11 0 -15 6
-11 20 5 18 0 20 -47 20 -29 0 -61 -6 -73 -15 -19 -14 -21 -13 -27 15 -4 23
-20 39 -67 69 -69 44 -93 79 -160 240 -39 93 -39 95 -33 186 l7 92 -81 105
-82 106 -6 84 -7 85 52 68 c28 37 51 76 51 85 0 27 9 30 88 30 69 0 79 -3 127
-34z"/>
</g>
</svg>
