<?xml version="1.0" standalone="no"?>
<!DOCTYPE svg PUBLIC "-//W3C//DTD SVG 20010904//EN"
 "http://www.w3.org/TR/2001/REC-SVG-20010904/DTD/svg10.dtd">
<svg version="1.0" xmlns="http://www.w3.org/2000/svg"
 width="720.000000pt" height="698.000000pt" viewBox="0 0 720.000000 698.000000"
 preserveAspectRatio="xMidYMid meet">
<metadata>
Created by potrace 1.15, written by Peter Selinger 2001-2017
</metadata>
<g transform="translate(0.000000,698.000000) scale(0.100000,-0.100000)"
fill="#000000" stroke="none">
<path d="M3451 6580 c-13 -23 -20 -47 -17 -55 3 -10 -5 -15 -27 -17 -22 -2
-35 -10 -42 -25 -6 -15 -18 -23 -33 -23 -24 0 -24 0 -5 47 4 10 -18 11 -94 7
-137 -7 -144 -8 -155 -27 -5 -10 -14 -15 -19 -11 -5 3 -21 -2 -35 -11 -24 -16
-24 -15 -18 10 7 27 -1 27 -54 2 -25 -12 -56 -60 -45 -71 3 -3 -2 -15 -12 -26
-20 -22 -64 -27 -83 -8 -9 9 -16 8 -30 -5 -16 -15 -20 -15 -34 -1 -12 13 -20
14 -36 5 -11 -6 -32 -11 -46 -11 -14 0 -28 -4 -31 -10 -3 -5 -15 -10 -26 -10
-14 0 -19 -7 -19 -30 0 -25 4 -30 25 -30 18 0 25 -5 25 -20 0 -11 5 -20 12
-20 9 0 9 -3 0 -12 -7 -7 -12 -18 -12 -25 0 -23 60 -81 90 -88 31 -7 40 -31
19 -52 -17 -17 0 -72 31 -100 25 -22 27 -28 17 -45 -8 -13 -8 -22 -2 -24 32
-13 37 -22 26 -43 -10 -17 -9 -21 4 -21 11 0 15 -11 15 -44 0 -25 5 -48 10
-51 17 -11 11 -42 -12 -57 -21 -14 -21 -16 -5 -50 18 -39 23 -88 8 -88 -13 0
-21 -27 -14 -45 5 -14 7 -14 22 -1 14 13 19 12 44 -10 35 -30 30 -58 -8 -48
-18 4 -25 2 -25 -8 0 -21 -43 -53 -68 -49 -13 1 -29 -3 -37 -9 -15 -13 -75 -4
-75 10 0 5 -10 15 -22 21 -17 9 -24 9 -33 -4 -13 -19 -100 -33 -109 -19 -4 6
0 14 7 19 15 8 34 68 20 61 -44 -21 -63 -28 -96 -33 -27 -4 -41 -13 -49 -31
-7 -15 -19 -24 -35 -24 -21 0 -23 -5 -23 -44 0 -39 -5 -48 -40 -79 -22 -19
-40 -39 -40 -44 0 -6 -9 -22 -21 -37 -25 -31 -18 -46 22 -46 16 0 29 -4 29 -9
0 -5 10 -11 21 -14 15 -4 20 -11 16 -21 -4 -9 -2 -16 3 -16 5 0 19 -18 30 -40
11 -22 25 -40 30 -40 6 0 10 -15 10 -34 0 -25 -5 -35 -19 -39 -15 -4 -18 -11
-14 -28 3 -13 10 -30 16 -36 24 -32 -33 -143 -67 -130 -22 9 -30 -28 -12 -55
18 -26 21 -42 6 -33 -6 4 -16 2 -23 -3 -7 -6 -25 -12 -42 -14 -28 -3 -30 -6
-33 -52 -5 -71 4 -96 31 -96 13 0 34 -12 48 -26 32 -35 108 -84 131 -84 19 0
42 -35 33 -50 -3 -6 -17 -7 -31 -4 -27 7 -74 -18 -74 -40 0 -7 -7 -19 -16 -26
-31 -26 -44 -81 -45 -184 0 -55 -9 -173 -19 -261 -10 -88 -22 -205 -25 -260
-3 -55 -15 -158 -26 -230 -51 -342 -55 -385 -35 -385 12 0 16 11 16 43 0 34 8
53 40 96 22 29 40 57 40 63 0 14 99 -75 100 -89 0 -7 12 -25 28 -40 l27 -28
-59 -3 c-39 -2 -70 2 -93 13 -19 9 -36 15 -38 13 -1 -1 -8 -27 -14 -57 -6 -30
-21 -70 -33 -89 -15 -24 -22 -53 -23 -96 -4 -144 -68 -578 -105 -714 -11 -40
-20 -82 -20 -95 0 -12 -9 -51 -20 -87 -33 -106 -62 -242 -61 -284 1 -22 -5
-49 -13 -62 -8 -12 -26 -48 -39 -80 -13 -33 -41 -83 -61 -113 -20 -29 -36 -58
-36 -65 0 -13 -57 -66 -71 -66 -5 0 -9 -3 -9 -8 0 -8 -92 -32 -123 -32 -28 0
-22 -49 8 -60 15 -6 25 -17 25 -29 0 -23 23 -44 36 -32 12 11 86 2 78 -10 -6
-10 14 -50 30 -61 22 -15 37 -7 52 27 17 41 33 43 82 13 20 -12 47 -22 61 -22
23 -1 26 -5 29 -45 2 -25 -3 -57 -12 -76 -9 -18 -16 -41 -16 -51 0 -10 -14
-33 -31 -50 -30 -31 -31 -35 -19 -63 9 -23 23 -34 62 -47 59 -19 68 -13 68 51
0 42 13 65 38 65 9 0 11 -7 8 -20 -3 -11 -8 -28 -11 -38 -4 -15 3 -22 34 -32
21 -7 43 -10 49 -6 5 3 15 0 21 -8 7 -8 23 -17 36 -20 14 -4 25 -11 25 -16 0
-6 14 -10 30 -10 18 0 33 -6 36 -15 4 -9 19 -15 39 -15 20 0 35 -6 39 -15 3
-8 12 -15 19 -15 8 0 21 -7 28 -16 12 -14 30 -16 121 -12 117 6 118 6 118 -56
0 -35 15 -56 39 -56 22 0 91 -63 91 -83 0 -10 8 -17 20 -17 13 0 20 -7 20 -19
0 -26 18 -37 26 -17 3 9 12 16 20 16 8 0 14 9 14 20 0 24 8 25 31 4 10 -9 39
-18 64 -19 40 -3 48 0 67 26 12 16 30 31 39 34 24 8 32 36 19 70 -9 25 -7 32
16 56 24 25 25 31 15 60 -10 28 -9 35 9 51 11 10 20 23 20 28 0 6 11 10 24 10
31 0 39 13 46 75 4 41 9 51 26 53 13 2 23 14 30 35 7 27 15 33 43 35 31 3 33
5 29 38 -2 21 0 33 6 31 6 -2 19 17 29 42 15 41 15 47 2 57 -21 15 -19 19 17
53 29 27 30 31 19 60 -7 16 -11 51 -9 76 3 44 -4 53 -28 37 -6 -4 -13 -14 -16
-22 -3 -8 -7 0 -10 18 -4 28 -2 32 19 32 13 0 23 5 23 10 0 6 -4 10 -10 10 -5
0 -10 11 -10 24 0 39 -19 77 -40 83 -13 3 -20 14 -20 29 0 21 -5 24 -34 24
-19 0 -37 4 -40 9 -3 5 -24 7 -46 4 -36 -5 -40 -3 -40 16 0 12 -6 21 -15 21
-8 0 -15 5 -15 10 0 6 5 10 11 10 5 0 8 4 5 9 -3 5 0 11 8 14 8 3 14 20 14 40
0 24 8 42 27 61 22 22 24 30 15 42 -9 9 -10 30 -6 62 14 95 12 123 -7 134 -18
9 -18 11 3 33 21 22 70 40 99 36 7 -2 30 11 51 28 42 34 50 32 50 -15 0 -25 7
-38 31 -54 29 -22 31 -22 44 -4 17 23 19 51 4 56 -6 2 -8 14 -4 31 5 20 13 27
31 27 13 0 24 5 24 10 0 6 4 10 10 10 5 0 7 -7 4 -15 -4 -10 0 -15 14 -15 13
0 22 9 26 25 8 30 38 33 91 8 33 -16 37 -16 70 0 19 9 41 14 49 11 7 -3 16 2
19 10 4 9 17 16 31 16 16 0 27 7 31 20 5 17 15 20 61 20 40 0 56 4 60 15 11
27 84 -14 84 -46 0 -6 15 0 33 13 17 13 40 27 50 31 9 4 17 10 16 14 -4 27 4
45 26 55 14 6 25 19 25 30 0 22 32 24 50 4 17 -21 38 -9 46 27 5 22 2 34 -10
42 -18 14 -11 25 15 25 17 0 31 25 34 63 1 10 6 22 12 28 16 16 -17 71 -39 65
-22 -5 -34 12 -19 27 6 6 11 28 11 49 0 42 10 48 31 19 12 -16 23 -18 75 -14
l62 5 5 42 c5 32 2 46 -14 62 -10 11 -19 30 -19 42 0 11 -5 24 -11 28 -6 3 -9
17 -6 30 2 13 -2 29 -10 35 -11 10 -7 16 20 34 18 13 44 25 58 27 18 2 23 8
21 23 -1 12 8 31 23 45 17 16 25 34 25 56 0 33 13 44 54 44 12 0 33 11 46 25
12 13 26 22 30 20 11 -7 40 40 40 64 0 11 -5 21 -12 23 -21 7 0 38 26 38 19 0
26 7 31 30 4 20 13 30 25 30 10 0 22 9 25 20 3 11 13 20 21 20 17 0 18 5 2 30
-11 17 -10 22 0 29 11 7 11 15 -2 46 -25 60 -21 84 17 100 19 8 39 21 47 29
13 17 50 22 50 7 0 -5 17 -7 38 -4 35 5 41 1 85 -46 26 -28 52 -51 57 -51 5 0
17 -12 28 -28 14 -19 28 -27 49 -26 36 1 91 32 99 56 7 22 30 23 42 2 8 -14
12 -14 48 1 21 10 63 19 93 21 79 6 88 17 51 67 l-30 41 22 23 c12 13 32 23
45 23 20 0 23 5 23 34 0 22 6 36 16 40 16 6 16 17 -1 101 -6 26 -3 33 18 44
13 7 30 28 37 46 7 19 17 32 21 29 5 -2 15 9 24 26 9 18 23 30 35 30 24 0 34
33 28 90 -4 42 2 49 21 26 16 -19 94 -39 120 -31 24 7 28 43 6 51 -15 6 -15
53 1 177 3 27 1 37 -10 37 -19 0 -40 54 -32 85 4 17 13 25 27 25 20 0 21 4 17
61 -4 57 -8 65 -45 99 -22 21 -43 44 -46 52 -4 7 -14 23 -23 36 -16 22 -16 23
4 29 12 3 22 13 22 22 0 21 19 41 40 41 22 0 70 52 70 76 0 24 27 64 43 64 21
0 9 102 -15 121 -23 18 -41 95 -27 121 15 27 10 52 -11 66 -11 7 -20 21 -20
33 0 25 -18 61 -36 72 -8 4 -14 16 -14 25 0 21 -19 42 -37 42 -6 0 -24 12 -38
26 -18 18 -30 23 -38 16 -16 -13 -57 3 -57 22 0 8 5 18 10 21 16 10 11 21 -15
33 -19 9 -25 19 -25 42 l0 30 -83 0 c-58 0 -89 -5 -104 -15 -19 -13 -23 -13
-30 -1 -11 18 -174 37 -216 25 -25 -7 -35 -5 -52 11 -12 11 -31 20 -43 20 -19
0 -22 -6 -22 -35 0 -50 -18 -67 -48 -47 -23 15 -25 14 -41 -7 -19 -25 -31 -19
-31 16 0 14 -6 23 -15 23 -8 0 -15 -6 -15 -14 0 -13 -20 -26 -41 -26 -5 0 -9
6 -9 14 0 32 -20 24 -74 -29 -30 -30 -57 -55 -59 -55 -3 0 -17 18 -32 41 l-27
41 -26 -25 c-30 -28 -112 -43 -112 -20 0 7 -7 10 -15 7 -19 -8 -19 4 0 36 18
32 18 41 0 34 -8 -4 -15 -2 -15 4 0 5 -9 12 -20 15 -13 3 -20 13 -19 29 1 31
-4 49 -21 76 -12 17 -24 22 -57 22 -37 0 -43 3 -49 25 -4 18 -13 25 -29 25
-13 0 -37 12 -54 26 -29 24 -30 29 -27 85 1 32 5 62 9 65 11 12 -16 64 -40 76
-22 11 -40 38 -75 110 -4 10 -8 25 -8 33 0 9 -15 22 -34 30 -34 14 -69 69 -65
103 5 50 -1 60 -37 67 -24 4 -38 13 -41 26 -4 13 -14 19 -34 19 -32 0 -37 -15
-14 -46 23 -31 19 -34 -49 -34 -74 0 -96 -6 -96 -27 0 -13 -3 -13 -24 1 -17
10 -35 14 -56 9 -42 -8 -50 6 -50 94 0 66 -1 71 -20 66 -15 -4 -20 0 -20 16 0
24 -22 28 -40 7 -19 -24 -37 -8 -36 32 1 35 -1 37 -26 34 -16 -2 -28 1 -28 7
0 7 -10 9 -25 5 -20 -5 -25 -2 -25 13 0 25 -36 63 -59 63 -10 0 -27 -17 -40
-40z m73 8 c9 -12 16 -31 16 -41 0 -15 5 -18 24 -15 15 3 27 0 30 -7 2 -8 15
-11 30 -8 29 6 33 -7 17 -50 -9 -23 -7 -24 18 -23 16 1 36 7 45 15 14 12 16
11 16 -8 0 -14 6 -21 20 -21 18 0 20 -7 20 -67 0 -85 8 -98 52 -90 20 3 44 -1
58 -9 32 -17 40 -17 40 0 0 20 23 26 96 26 51 0 64 3 64 16 0 8 -7 22 -15 30
-21 21 -19 34 5 34 11 0 20 -7 20 -15 0 -17 30 -35 59 -35 18 0 21 -6 21 -46
0 -53 35 -108 76 -118 14 -4 24 -12 22 -19 -4 -23 62 -146 82 -152 32 -10 40
-38 35 -123 -5 -78 -5 -81 22 -102 15 -12 40 -24 55 -27 19 -4 30 -14 34 -29
5 -21 12 -24 49 -24 48 0 72 -21 69 -60 -2 -28 15 -70 28 -70 5 0 16 -7 24
-15 13 -13 13 -17 -1 -38 -13 -20 -13 -26 -2 -36 8 -6 17 -8 20 -4 4 3 7 1 7
-5 0 -17 90 -3 122 20 l27 18 27 -37 c16 -21 29 -39 30 -41 1 -2 27 22 59 52
31 31 59 56 61 56 2 0 4 -7 4 -15 0 -26 66 -14 73 14 3 9 5 5 6 -10 1 -36 28
-45 50 -18 15 19 18 20 30 5 17 -20 28 -20 49 0 10 11 15 29 13 50 -3 42 15
45 57 9 17 -14 32 -21 34 -16 8 23 208 10 229 -15 10 -13 15 -12 35 1 16 10
48 15 99 15 l75 0 0 -30 c0 -16 3 -30 8 -30 4 0 13 -4 21 -9 12 -8 13 -12 1
-26 -20 -24 16 -56 66 -58 32 -2 40 -6 42 -24 2 -17 9 -21 30 -20 23 2 28 -3
30 -26 2 -15 12 -32 22 -37 11 -6 22 -27 26 -47 4 -21 16 -45 28 -54 18 -15
19 -21 10 -46 -16 -44 -6 -109 22 -135 34 -33 34 -99 -1 -126 -14 -12 -25 -30
-25 -44 0 -27 -42 -72 -77 -83 -13 -3 -26 -17 -29 -31 -3 -13 -9 -24 -13 -24
-23 -1 -32 -18 -20 -43 7 -15 16 -27 21 -27 4 0 8 -9 8 -20 0 -11 7 -20 15
-20 8 0 28 -19 45 -42 23 -31 30 -52 30 -85 0 -39 -2 -44 -19 -38 -15 4 -20
-1 -25 -26 -10 -52 -7 -69 17 -93 21 -21 22 -28 16 -108 -4 -47 -10 -91 -14
-98 -4 -7 1 -13 14 -17 22 -6 28 -27 10 -38 -14 -9 -96 14 -110 31 -6 8 -19
14 -28 14 -13 0 -16 -11 -16 -62 0 -58 -2 -63 -23 -66 -12 -2 -27 -13 -33 -24
-6 -12 -23 -33 -38 -47 -15 -15 -26 -32 -24 -38 2 -5 -8 -18 -23 -27 -21 -15
-25 -23 -20 -47 19 -93 19 -90 -1 -95 -15 -4 -18 -12 -15 -40 4 -31 2 -34 -21
-34 -17 0 -33 -10 -47 -30 l-21 -30 27 -35 c33 -43 25 -54 -42 -59 -27 -2 -66
-11 -87 -20 -33 -15 -38 -15 -43 -1 -10 24 -32 18 -70 -20 -29 -29 -42 -35
-71 -33 -24 1 -40 9 -50 25 -9 13 -20 23 -27 23 -6 0 -24 16 -39 35 -40 50
-66 64 -129 70 -46 4 -58 2 -73 -15 -10 -11 -25 -20 -33 -20 -24 0 -52 -31
-52 -57 0 -13 6 -39 14 -58 13 -31 13 -36 -2 -44 -14 -8 -14 -11 -2 -26 9 -11
10 -19 4 -23 -6 -4 -13 -15 -17 -24 -3 -10 -15 -18 -25 -18 -14 0 -21 -9 -25
-30 -5 -24 -12 -30 -32 -30 -31 0 -42 -23 -25 -55 15 -29 7 -55 -20 -62 -10
-3 -26 -16 -35 -29 -10 -16 -25 -24 -44 -24 -47 0 -61 -10 -61 -43 0 -17 -11
-44 -25 -63 -14 -18 -25 -40 -25 -48 0 -9 -8 -16 -19 -16 -10 0 -30 -9 -44
-20 -14 -11 -30 -20 -36 -20 -14 0 -14 -17 -1 -25 6 -3 10 -21 10 -40 0 -19 5
-37 10 -40 6 -3 10 -16 10 -27 0 -12 9 -31 19 -42 13 -15 17 -30 14 -53 -5
-30 -7 -31 -60 -35 -45 -2 -58 0 -67 14 -6 10 -19 18 -28 18 -18 0 -22 -15
-18 -54 1 -10 -4 -30 -11 -43 -11 -20 -11 -26 1 -34 8 -5 21 -7 27 -4 23 8 35
-32 22 -73 -6 -20 -13 -43 -15 -49 -2 -7 -12 -13 -23 -13 -11 0 -25 -9 -30
-19 -9 -15 -7 -20 10 -24 16 -4 19 -10 14 -29 -10 -32 -13 -34 -35 -20 -11 7
-31 12 -44 12 -19 0 -23 -4 -19 -21 4 -15 0 -22 -15 -26 -12 -3 -27 -19 -33
-37 -11 -29 -79 -86 -79 -66 0 6 -7 10 -15 10 -8 0 -15 7 -15 15 0 8 -6 15
-12 15 -7 0 -23 3 -35 6 -17 5 -23 2 -23 -10 0 -13 -11 -16 -59 -16 -50 0 -59
-3 -64 -20 -3 -13 -14 -20 -30 -20 -14 0 -27 -3 -29 -7 -1 -5 -25 -16 -51 -25
-44 -16 -51 -16 -87 -2 -49 20 -82 15 -95 -14 -10 -23 -28 -31 -19 -8 3 7 -1
16 -10 19 -8 3 -17 -1 -20 -9 -3 -8 -15 -14 -26 -14 -26 0 -46 -47 -31 -72 12
-20 5 -48 -13 -48 -25 1 -46 28 -46 62 0 32 -14 58 -32 58 -4 0 -8 -6 -8 -14
0 -18 -50 -50 -75 -48 -10 0 -25 -4 -32 -9 -6 -6 -16 -9 -20 -6 -4 3 -23 -8
-42 -24 -30 -25 -33 -30 -20 -45 10 -12 14 -47 14 -123 0 -89 -3 -108 -18
-121 -9 -8 -19 -31 -21 -49 -2 -23 -10 -38 -23 -44 -23 -10 -20 -57 4 -57 9 0
13 -6 10 -14 -7 -18 7 -23 96 -32 62 -6 67 -8 67 -30 0 -14 6 -24 14 -24 21 0
38 -26 46 -70 7 -36 5 -40 -12 -40 -14 0 -18 -5 -14 -16 3 -9 6 -27 6 -40 0
-30 25 -32 36 -2 6 18 8 10 11 -32 2 -30 9 -60 15 -68 9 -10 4 -21 -20 -45
-35 -36 -41 -62 -17 -71 13 -5 13 -10 -2 -41 -9 -19 -22 -35 -29 -35 -9 0 -11
-11 -7 -35 5 -34 4 -35 -25 -35 -26 0 -33 -5 -43 -34 -8 -22 -21 -37 -36 -41
-19 -4 -23 -12 -23 -46 0 -53 -15 -79 -45 -79 -14 0 -25 -6 -25 -13 0 -7 -9
-21 -21 -31 -20 -16 -21 -28 -5 -67 5 -10 -3 -28 -20 -48 -24 -29 -25 -34 -13
-63 12 -28 11 -33 -6 -42 -10 -6 -30 -23 -44 -37 -37 -38 -80 -45 -114 -18
-28 21 -57 20 -57 -3 0 -7 -9 -19 -20 -26 -18 -11 -20 -10 -20 8 0 13 -7 20
-20 20 -11 0 -20 7 -20 15 0 18 -30 55 -45 55 -6 0 -16 9 -23 20 -7 12 -17 18
-23 15 -18 -12 -39 17 -39 54 0 20 -5 42 -11 48 -7 7 -48 9 -117 5 -91 -4
-109 -2 -121 12 -7 9 -20 16 -27 16 -8 0 -14 7 -14 15 0 10 -10 15 -34 15 -21
0 -36 6 -40 15 -3 9 -18 15 -36 15 -16 0 -30 5 -30 10 0 6 -6 10 -14 10 -7 0
-25 9 -39 20 -14 11 -32 17 -41 14 -9 -4 -30 -1 -46 6 -29 12 -29 12 -15 47
19 45 20 43 -11 43 -35 0 -53 -26 -54 -77 0 -23 -4 -44 -9 -47 -18 -11 -86 21
-101 48 -14 26 -14 28 18 54 21 17 32 36 32 52 0 14 7 38 15 54 17 32 20 98 5
125 -6 13 -17 17 -35 13 -18 -3 -37 3 -56 17 -43 32 -81 25 -91 -16 -5 -18
-15 -33 -23 -33 -20 0 -47 44 -39 64 5 13 0 16 -24 16 -17 0 -34 5 -38 11 -4
8 -9 8 -17 0 -19 -19 -37 -12 -37 14 0 18 -7 28 -25 35 -41 16 -29 34 30 48
30 7 59 10 64 7 6 -3 13 1 18 8 4 7 25 26 45 41 21 16 39 39 43 55 3 16 17 44
31 62 14 19 45 75 68 124 33 68 45 106 48 155 3 36 21 126 40 200 41 155 62
244 83 350 18 88 65 397 69 455 14 175 20 213 42 259 13 28 24 58 24 67 0 28
11 49 26 49 8 0 14 -4 14 -10 0 -6 35 -10 85 -10 l86 0 -15 29 c-9 16 -22 31
-31 34 -8 4 -15 13 -15 21 0 14 -97 106 -112 106 -5 0 -8 -7 -8 -15 0 -8 -13
-29 -28 -47 -16 -18 -34 -42 -40 -53 -11 -19 -11 -19 -12 4 0 13 4 51 10 85
35 215 49 323 55 411 3 55 14 174 25 265 10 91 19 209 19 263 1 99 14 150 44
176 10 7 17 22 17 32 0 23 43 43 72 33 10 -3 25 0 33 6 12 10 11 17 -8 45 -11
18 -27 31 -34 28 -15 -6 -75 30 -123 73 -19 17 -44 33 -55 35 -17 4 -20 13
-23 67 -3 61 -2 63 20 61 13 -2 32 2 43 8 11 6 26 8 33 6 17 -6 15 27 -3 51
-20 27 -19 39 4 33 37 -9 104 128 72 147 -17 11 -14 56 4 56 20 0 21 76 1 87
-8 4 -24 30 -36 56 -13 27 -31 54 -42 60 -10 7 -18 17 -18 24 0 8 -11 10 -35
6 -40 -6 -45 5 -15 32 11 10 20 22 20 27 0 6 19 29 43 52 39 37 43 46 39 79
-4 34 -2 37 20 37 17 0 29 8 36 25 7 14 23 27 39 30 15 3 40 10 56 14 31 11
36 -2 10 -31 -9 -10 -13 -21 -9 -26 8 -8 116 -10 116 -2 0 3 4 11 9 19 8 12
15 9 41 -12 32 -28 83 -36 96 -16 3 6 17 8 30 5 18 -5 31 0 49 20 14 15 25 30
25 34 0 4 9 6 21 6 12 -1 28 9 36 21 14 21 14 23 -10 32 -13 5 -27 17 -30 25
-8 19 -33 21 -40 4 -2 -7 -8 -9 -13 -5 -5 5 -1 14 9 21 22 17 23 74 1 105 -15
21 -15 24 5 42 22 21 28 63 11 74 -5 3 -10 26 -10 51 0 24 -5 44 -11 44 -6 0
-8 8 -4 19 4 14 0 23 -15 31 -17 9 -19 14 -9 26 10 12 7 20 -14 42 -35 36 -50
78 -37 102 17 32 12 60 -10 60 -12 0 -39 17 -62 38 -37 35 -40 40 -28 61 7 14
8 26 3 30 -5 3 -12 14 -16 24 -3 9 -16 17 -27 17 -30 0 -25 33 8 47 43 17 104
24 119 11 9 -7 17 -7 27 1 8 7 29 9 54 5 52 -8 92 16 92 56 0 19 9 36 26 49
33 26 44 26 44 1 0 -23 9 -25 35 -6 10 7 27 11 37 8 10 -2 18 1 18 7 0 19 46
31 145 35 91 5 95 4 85 -14 -17 -31 -12 -40 23 -40 24 0 35 6 42 23 7 15 20
23 43 25 27 3 32 7 27 23 -8 23 30 89 50 89 8 0 21 -10 29 -22z"/>
<path d="M1910 5272 l-22 -18 24 -28 c17 -20 33 -28 54 -28 31 1 127 -42 145
-65 10 -12 89 -19 89 -9 0 18 -44 74 -54 70 -8 -3 -16 2 -19 10 -4 11 -19 16
-47 16 -37 0 -41 2 -35 21 6 19 5 19 -44 -5 -61 -31 -67 -32 -81 -5 -14 24 2
49 31 49 23 0 25 -25 3 -34 -8 -3 -12 -10 -9 -16 9 -15 35 14 35 39 0 27 -39
28 -70 3z"/>
<path d="M2040 4971 c0 -5 5 -22 12 -38 6 -15 10 -36 9 -46 -4 -30 40 -95 76
-112 32 -15 63 -59 63 -89 0 -8 4 -26 10 -41 9 -25 10 -25 35 -9 21 14 25 22
20 46 -4 17 -2 35 5 43 10 12 7 21 -14 46 -15 18 -25 38 -21 46 3 9 1 32 -5
53 -10 36 -12 38 -43 34 -28 -5 -37 0 -72 35 -36 38 -75 54 -75 32z m74 -44
c36 -33 53 -43 71 -39 20 3 27 -1 35 -23 6 -15 8 -36 4 -47 -4 -13 1 -28 14
-41 16 -17 20 -33 17 -71 -3 -54 -20 -80 -35 -56 -5 8 -10 25 -10 38 0 31 -41
91 -65 94 -25 4 -76 77 -70 102 2 10 -3 32 -11 47 -28 54 -13 53 50 -4z"/>
</g>
</svg>
