<?xml version="1.0" standalone="no"?>
<!DOCTYPE svg PUBLIC "-//W3C//DTD SVG 20010904//EN"
 "http://www.w3.org/TR/2001/REC-SVG-20010904/DTD/svg10.dtd">
<svg version="1.0" xmlns="http://www.w3.org/2000/svg"
 width="437.000000pt" height="408.000000pt" viewBox="0 0 437.000000 408.000000"
 preserveAspectRatio="xMidYMid meet">
<metadata>
Created by potrace 1.15, written by Peter Selinger 2001-2017
</metadata>
<g transform="translate(0.000000,408.000000) scale(0.100000,-0.100000)"
fill="#000000" stroke="none">
<path d="M2971 3736 c-6 -7 -9 -20 -6 -27 3 -8 1 -20 -4 -28 -7 -10 -13 -11
-30 -2 -18 10 -25 8 -45 -14 -14 -15 -27 -22 -31 -16 -10 18 -86 34 -98 22 -6
-6 -18 -11 -27 -11 -9 0 -27 -11 -40 -25 -13 -14 -29 -24 -34 -21 -6 2 -21 -5
-33 -16 -24 -22 -43 -17 -43 13 0 10 -4 19 -10 19 -5 0 -10 -5 -10 -11 0 -7
-11 -9 -30 -5 -28 5 -30 4 -24 -18 4 -16 1 -25 -11 -30 -12 -4 -18 0 -22 14
-3 11 -13 20 -22 20 -9 0 -28 15 -43 34 -19 24 -33 33 -47 29 -10 -2 -22 0
-25 6 -11 16 -66 14 -66 -3 0 -21 -32 -30 -42 -11 -5 8 -20 15 -33 15 -23 0
-25 -4 -27 -52 -3 -76 4 -158 17 -198 5 -14 -2 -32 -20 -56 -29 -37 -34 -73
-16 -117 6 -16 11 -42 11 -58 0 -29 25 -136 40 -174 20 -47 21 -67 6 -90 -12
-19 -25 -25 -51 -25 -42 0 -70 -25 -80 -71 -4 -19 -14 -44 -22 -57 -8 -13 -12
-30 -9 -37 3 -8 -4 -17 -15 -20 -12 -4 -18 -13 -15 -21 3 -7 1 -16 -4 -19 -6
-4 -10 -16 -10 -28 0 -12 -4 -28 -9 -36 -14 -21 -88 4 -123 41 -22 23 -35 28
-73 28 -42 0 -45 -2 -35 -19 15 -28 13 -34 -11 -28 -12 3 -22 0 -26 -9 -3 -8
-11 -14 -19 -14 -31 0 -93 -42 -103 -71 -7 -22 -16 -29 -35 -29 -14 0 -27 -4
-30 -9 -3 -5 -41 -7 -85 -4 -53 4 -80 2 -85 -6 -4 -6 -18 -11 -31 -11 -13 0
-27 -5 -30 -10 -5 -8 -11 -7 -21 1 -12 10 -19 8 -37 -10 -13 -11 -31 -21 -40
-21 -9 0 -17 -5 -17 -11 0 -6 -9 -8 -20 -4 -20 6 -26 -6 -21 -44 2 -7 -1 -20
-5 -30 -3 -9 -7 -35 -7 -58 -1 -38 -4 -43 -29 -48 -22 -5 -28 -12 -28 -33 -1
-26 -1 -26 -15 -8 -12 16 -19 18 -40 8 -19 -9 -26 -8 -32 2 -13 22 -52 0 -69
-39 -12 -29 -18 -34 -32 -26 -11 6 -24 6 -32 1 -9 -6 -20 -4 -31 6 -27 24 -49
7 -49 -38 0 -26 -4 -38 -13 -36 -7 2 -30 -11 -52 -29 l-39 -32 27 -21 c33 -26
35 -56 5 -80 l-23 -18 30 -12 c16 -6 37 -17 45 -25 8 -7 27 -17 43 -20 23 -6
27 -4 27 14 0 32 28 26 64 -14 18 -19 39 -35 48 -35 20 0 73 27 88 45 21 25
27 17 34 -46 8 -84 1 -109 -34 -109 -19 0 -29 -6 -33 -19 -6 -26 3 -37 38 -43
57 -10 140 -46 154 -67 7 -12 19 -21 26 -21 7 0 16 -7 19 -16 6 -17 -9 -54
-23 -54 -5 0 -16 -17 -24 -39 -9 -21 -29 -49 -45 -63 -17 -14 -32 -33 -33 -43
-2 -10 -10 -20 -16 -23 -9 -2 -13 10 -13 42 0 44 -1 47 -40 62 -40 16 -49 27
-30 39 20 12 -23 54 -57 55 -29 0 -32 -3 -31 -31 1 -35 40 -81 65 -77 10 2 29
-15 47 -40 24 -34 31 -55 34 -108 4 -64 5 -65 51 -96 54 -37 117 -107 113
-125 -2 -7 4 -13 11 -13 18 0 111 -136 121 -175 22 -98 41 -145 54 -140 8 3
30 -10 50 -30 20 -19 46 -38 57 -41 11 -3 27 -15 35 -26 11 -13 33 -21 75 -25
69 -7 95 -24 95 -65 l0 -28 70 0 c60 0 71 -3 80 -21 7 -11 14 -19 17 -16 2 3
-2 14 -9 26 -11 18 -23 21 -80 21 l-68 0 0 28 c0 41 -26 59 -94 64 -41 4 -63
10 -72 23 -7 10 -31 26 -53 36 -22 9 -47 29 -57 44 -11 16 -24 25 -34 22 -13
-3 -21 7 -33 47 -9 28 -19 68 -22 88 -4 20 -16 45 -27 55 -11 10 -29 35 -39
55 -10 21 -27 45 -37 55 -10 10 -33 37 -51 61 -19 24 -58 61 -87 83 -53 39
-54 40 -53 88 1 39 5 50 20 54 11 3 19 14 19 25 0 11 12 27 26 37 14 9 34 34
43 56 10 22 25 45 34 52 33 27 30 53 -13 96 -23 23 -48 41 -56 41 -8 0 -34 9
-56 20 -23 11 -51 20 -63 20 -27 0 -35 8 -28 26 3 8 16 14 29 14 33 0 45 35
40 112 -5 74 -17 89 -48 61 -13 -11 -40 -27 -61 -34 -40 -14 -37 -16 -77 42
-3 4 -18 11 -33 14 -24 6 -29 4 -34 -14 -6 -25 -35 -21 -69 10 -11 11 -26 19
-34 19 -10 0 -9 5 3 18 23 25 21 51 -6 80 l-22 24 28 24 c16 14 41 24 58 24
16 0 29 5 29 10 0 6 -4 10 -10 10 -16 0 -12 57 4 63 8 3 16 1 18 -5 3 -7 25
-12 51 -13 44 0 48 1 58 32 10 32 46 54 58 35 3 -6 17 -10 31 -9 14 0 35 -2
48 -7 19 -6 22 -4 22 19 0 20 6 27 30 32 17 3 29 11 28 17 -1 6 2 44 6 84 6
57 11 72 22 68 8 -3 17 1 20 9 4 8 12 15 19 15 6 0 20 9 30 20 12 14 22 17 30
10 11 -9 55 0 97 21 23 12 85 11 125 0 24 -7 35 -6 43 4 6 8 23 15 38 17 19 2
28 11 34 33 6 22 19 35 50 48 61 27 81 34 101 41 13 4 17 12 12 26 -6 17 -2
20 29 20 28 0 40 -7 58 -30 12 -16 29 -30 39 -30 9 0 33 -7 53 -15 36 -15 36
-15 46 10 6 15 10 32 10 40 0 8 5 17 11 20 6 4 8 14 5 22 -4 9 1 17 14 20 15
4 19 11 14 25 -3 11 1 27 9 36 8 9 17 31 20 49 9 49 35 73 78 73 49 0 73 34
63 88 -4 20 -10 42 -14 47 -13 17 -36 123 -55 255 -6 40 -4 50 19 77 26 30 26
33 15 100 -11 65 -13 192 -3 202 3 3 13 0 22 -7 34 -25 45 -25 63 -4 20 26 42
28 59 7 6 -8 21 -13 33 -12 14 1 28 -9 41 -30 12 -18 27 -30 34 -28 8 3 21 -4
30 -14 13 -15 22 -17 39 -11 14 6 21 15 17 23 -3 10 4 16 20 19 19 4 27 0 31
-13 8 -24 31 -24 52 0 9 11 21 17 27 15 7 -3 23 7 36 21 13 14 34 25 46 25 13
0 26 5 29 10 8 13 55 2 77 -18 15 -13 20 -13 35 -1 10 8 23 20 29 28 8 10 13
11 18 3 4 -7 14 -12 21 -12 17 0 44 49 38 68 -3 7 4 12 17 12 27 0 72 -51 59
-67 -6 -7 -7 -19 -1 -30 5 -10 15 -31 23 -48 15 -30 17 -30 74 -22 6 1 11 -24
13 -55 3 -57 3 -57 28 -48 14 6 39 10 55 10 19 0 29 5 29 15 0 8 7 15 15 15 8
0 20 9 27 20 7 11 21 20 30 20 11 0 18 8 18 20 0 14 7 20 23 20 13 0 27 4 33
9 5 5 26 13 46 16 33 6 41 3 66 -22 31 -30 52 -101 52 -169 0 -27 5 -37 20
-41 11 -3 20 -9 20 -14 0 -5 13 -9 29 -9 22 0 31 -6 41 -30 7 -16 19 -30 26
-30 8 0 14 -7 14 -15 0 -21 87 -21 111 1 16 15 20 12 48 -38 17 -29 31 -57 31
-62 0 -5 17 -6 38 -3 30 4 41 1 50 -14 6 -10 26 -19 43 -21 39 -4 52 -28 16
-28 -28 0 -50 -43 -40 -80 5 -19 3 -21 -14 -16 -17 6 -21 1 -25 -25 -4 -25 -1
-33 14 -37 14 -3 18 -13 17 -41 -1 -20 2 -48 5 -62 6 -19 3 -28 -8 -32 -9 -4
-16 -12 -16 -19 0 -7 -10 -18 -22 -23 -19 -8 -23 -18 -23 -55 0 -25 -8 -58
-17 -75 -26 -45 -77 -95 -98 -95 -11 0 -22 -10 -26 -22 -4 -13 -14 -28 -23
-34 -12 -10 -13 -16 -3 -38 12 -27 3 -40 -22 -30 -11 4 -16 1 -16 -10 0 -10
-9 -16 -22 -16 -42 0 -66 -12 -77 -37 -11 -24 -13 -24 -36 -9 -22 14 -55 13
-55 -3 0 -3 9 -19 19 -35 11 -17 18 -33 15 -38 -9 -14 -34 -9 -51 12 -10 11
-27 20 -39 20 -12 0 -27 7 -34 15 -22 26 -40 18 -40 -19 0 -18 -7 -39 -15 -46
-17 -14 -21 -60 -5 -60 16 0 11 -33 -10 -60 -11 -14 -20 -40 -20 -58 0 -18 -6
-42 -12 -53 -10 -17 -10 -23 -1 -26 8 -3 0 -22 -24 -56 -20 -29 -39 -54 -43
-57 -4 -3 -12 -34 -19 -70 -19 -95 -33 -130 -51 -130 -20 0 -64 -75 -56 -95 3
-10 -5 -15 -27 -17 -22 -2 -35 -10 -42 -25 -11 -27 -62 -34 -51 -8 3 8 9 22
12 30 5 12 -8 14 -93 9 -137 -7 -144 -8 -155 -27 -5 -10 -14 -15 -19 -11 -5 3
-21 -2 -35 -11 -24 -16 -24 -15 -18 10 7 27 -1 27 -54 2 -25 -12 -56 -60 -45
-71 3 -3 -2 -15 -12 -26 -20 -22 -64 -27 -83 -8 -9 9 -16 8 -30 -5 -16 -15
-20 -15 -34 -1 -12 13 -20 14 -36 5 -11 -6 -32 -11 -46 -11 -14 0 -28 -4 -31
-10 -3 -5 -15 -10 -26 -10 -14 0 -19 -7 -19 -30 0 -25 4 -30 25 -30 18 0 25
-5 25 -20 0 -11 5 -20 12 -20 9 0 9 -3 0 -12 -7 -7 -12 -18 -12 -25 0 -23 60
-81 90 -88 31 -7 40 -31 19 -52 -17 -17 0 -72 31 -100 25 -21 27 -28 17 -44
-12 -19 -4 -31 27 -42 5 -2 4 -13 -3 -25 -10 -18 -9 -22 4 -22 11 0 15 -11 15
-44 0 -25 5 -48 10 -51 17 -11 11 -42 -12 -57 -21 -14 -21 -16 -5 -50 18 -39
23 -88 8 -88 -13 0 -21 -27 -14 -45 5 -14 7 -14 22 -1 14 13 19 12 44 -10 35
-30 30 -58 -8 -48 -18 4 -25 2 -25 -8 0 -21 -43 -53 -68 -49 -13 1 -29 -3 -37
-9 -15 -13 -75 -4 -75 10 0 5 -10 15 -22 21 -17 9 -24 9 -33 -4 -13 -19 -100
-33 -109 -19 -4 6 0 14 7 19 15 8 34 68 20 61 -44 -21 -63 -28 -96 -33 -27 -4
-41 -13 -49 -31 -12 -25 -35 -30 -73 -15 -28 11 -65 -15 -65 -45 0 -39 -21
-30 -70 33 -17 22 -23 25 -30 13 -13 -20 -12 -30 0 -30 6 0 10 5 10 12 0 6 18
-8 39 -31 41 -44 61 -47 61 -7 0 31 29 56 55 46 40 -17 71 -11 83 15 7 14 23
27 39 30 15 3 40 10 56 14 31 11 36 -2 10 -31 -9 -10 -13 -21 -9 -26 8 -8 116
-10 116 -2 0 3 4 11 9 19 8 12 15 9 41 -12 32 -28 83 -36 96 -16 3 6 17 8 30
5 18 -5 31 0 49 20 14 15 25 30 25 34 0 4 9 6 21 6 12 -1 28 9 36 21 14 21 14
23 -10 32 -13 5 -27 17 -30 25 -8 19 -33 21 -40 4 -2 -7 -8 -9 -13 -5 -5 5 -1
14 9 21 22 17 23 74 1 105 -15 21 -15 24 5 42 22 21 28 63 11 74 -5 3 -10 26
-10 51 0 24 -5 44 -11 44 -6 0 -8 8 -4 19 4 14 0 23 -15 31 -17 9 -19 14 -9
26 10 12 7 20 -14 42 -35 36 -50 78 -37 102 17 32 12 60 -10 60 -12 0 -39 17
-62 38 -37 35 -40 40 -28 61 7 14 8 26 3 30 -5 3 -12 14 -16 24 -3 9 -16 17
-27 17 -30 0 -25 33 8 47 43 17 104 24 119 11 9 -7 17 -7 27 1 8 7 29 9 54 5
52 -8 92 16 92 56 0 19 9 36 26 49 33 26 44 26 44 1 0 -23 9 -25 35 -6 10 7
27 11 37 8 10 -2 18 1 18 7 0 19 46 31 145 35 91 5 95 4 85 -14 -17 -31 -12
-40 23 -40 24 0 35 6 42 23 7 15 20 23 43 25 27 3 32 7 27 23 -9 27 32 92 55
86 18 -5 29 24 51 138 6 33 20 71 31 85 48 63 69 103 58 110 -9 5 -9 9 -1 14
6 4 11 24 11 44 0 20 9 52 20 70 23 37 26 68 8 75 -10 3 -9 12 5 37 9 17 17
43 17 56 0 27 17 33 26 9 4 -9 19 -15 35 -15 18 0 29 -5 29 -14 0 -16 41 -29
64 -20 20 8 20 6 -1 49 -19 40 -12 56 15 32 25 -23 39 -21 47 4 7 22 42 39 81
39 13 0 24 5 24 10 0 6 8 10 18 10 32 0 44 21 24 43 -15 17 -15 20 -1 31 9 6
18 20 20 31 3 13 17 23 42 29 21 5 36 14 34 19 -2 6 7 22 20 36 57 65 59 67
52 92 -4 13 -7 34 -8 47 -1 19 3 21 24 16 21 -5 25 -3 25 17 0 12 6 30 14 38
18 22 10 151 -10 151 -22 0 -16 37 7 43 13 4 19 12 18 24 -2 10 0 30 4 46 6
22 13 27 38 27 30 0 31 1 17 23 -9 12 -26 24 -39 25 -13 2 -36 15 -50 29 -17
16 -29 21 -33 14 -16 -25 -43 -7 -79 50 -36 58 -38 60 -59 45 -35 -25 -85 -20
-113 10 -13 14 -27 35 -30 45 -4 13 -16 19 -35 19 -16 0 -33 6 -37 14 -4 8
-12 14 -18 13 -5 -1 -13 22 -17 52 -12 99 -28 139 -64 162 -25 15 -42 19 -71
13 -21 -4 -44 -11 -50 -16 -7 -6 -19 -8 -27 -5 -17 7 -40 -18 -31 -33 3 -6 -3
-10 -14 -10 -12 0 -21 -7 -21 -15 0 -8 -4 -15 -10 -15 -5 0 -18 -8 -28 -18
-11 -11 -37 -21 -60 -24 l-41 -6 -3 52 -3 51 -42 -3 c-39 -3 -43 -2 -49 25 -3
15 -8 35 -10 45 -3 9 0 19 6 23 16 10 -50 75 -76 75 -12 0 -27 -6 -33 -14z"/>
</g>
</svg>
