<?xml version="1.0" standalone="no"?>
<!DOCTYPE svg PUBLIC "-//W3C//DTD SVG 20010904//EN"
 "http://www.w3.org/TR/2001/REC-SVG-20010904/DTD/svg10.dtd">
<svg version="1.0" xmlns="http://www.w3.org/2000/svg"
 width="708.000000pt" height="499.000000pt" viewBox="0 0 708.000000 499.000000"
 preserveAspectRatio="xMidYMid meet">
<metadata>
Created by potrace 1.15, written by Peter Selinger 2001-2017
</metadata>
<g transform="translate(0.000000,499.000000) scale(0.100000,-0.100000)"
fill="#000000" stroke="none">
<path d="M1755 4450 c-8 -24 -61 -70 -83 -70 -8 0 -26 -10 -38 -21 l-23 -22
-12 27 c-7 14 -16 26 -21 26 -11 0 -44 -34 -58 -59 -6 -12 -17 -21 -25 -21 -9
0 -15 -10 -15 -26 0 -23 -3 -25 -24 -20 -26 6 -42 -14 -24 -32 7 -7 6 -17 -2
-33 -11 -20 -10 -25 9 -37 31 -21 27 -57 -11 -85 -29 -21 -41 -24 -98 -20 -73
6 -136 -13 -147 -44 -3 -10 -14 -26 -25 -36 -13 -13 -18 -33 -18 -77 0 -50 3
-60 20 -65 23 -7 25 -16 8 -33 -20 -20 22 -54 68 -55 32 -2 40 -6 42 -24 2
-17 9 -21 30 -20 23 2 28 -3 30 -26 2 -15 12 -32 22 -37 11 -6 22 -27 26 -47
4 -21 16 -45 28 -54 18 -15 19 -21 10 -46 -16 -44 -6 -109 22 -135 34 -33 34
-99 -1 -126 -14 -12 -25 -30 -25 -44 0 -27 -42 -72 -77 -83 -13 -3 -26 -17
-29 -31 -3 -13 -9 -24 -13 -24 -23 -1 -32 -18 -20 -43 7 -15 16 -27 21 -27 4
0 8 -9 8 -20 0 -11 7 -20 15 -20 8 0 28 -19 45 -42 23 -31 30 -52 30 -85 0
-39 -2 -44 -19 -38 -15 4 -20 -1 -25 -26 -10 -52 -7 -69 17 -93 21 -21 22 -28
16 -108 -4 -47 -10 -91 -14 -98 -4 -7 1 -13 14 -17 22 -6 28 -27 10 -38 -14
-9 -96 14 -110 31 -6 8 -19 14 -28 14 -13 0 -16 -11 -16 -62 0 -58 -2 -63 -23
-66 -12 -2 -27 -13 -33 -24 -6 -12 -23 -33 -38 -47 -15 -15 -26 -32 -24 -38 2
-5 -8 -18 -23 -27 -27 -19 -27 -15 -7 -109 4 -22 1 -29 -14 -33 -15 -4 -18
-12 -15 -40 4 -31 2 -34 -21 -34 -17 0 -33 -10 -47 -30 l-21 -30 27 -35 c29
-38 25 -51 -16 -57 -20 -2 -26 -10 -28 -34 -2 -18 3 -36 12 -43 10 -8 13 -22
10 -40 -6 -28 23 -83 66 -126 23 -24 25 -36 8 -53 -16 -16 -17 -104 -1 -120 7
-7 13 -30 13 -50 1 -27 7 -42 25 -55 24 -17 25 -17 31 7 8 33 21 42 72 50 34
5 42 3 42 -9 0 -12 15 -15 78 -15 l77 0 18 44 c10 25 29 52 43 61 17 11 24 25
24 49 0 18 8 44 18 57 11 13 25 45 32 71 8 26 18 45 22 42 4 -3 13 6 19 20 7
14 21 28 31 32 11 3 24 17 30 30 6 13 14 24 18 24 15 0 32 -31 35 -64 5 -47
15 -64 27 -42 5 9 19 16 31 16 18 0 26 -11 43 -63 17 -52 24 -62 41 -59 20 3
22 -4 28 -82 6 -69 11 -88 30 -106 l22 -21 22 51 c12 27 25 50 30 50 5 0 12
30 16 67 6 54 13 74 36 101 17 19 29 44 29 60 0 47 14 57 38 28 11 -14 27 -26
36 -26 23 0 56 41 56 70 0 33 9 43 26 29 10 -8 20 -6 40 10 15 12 33 21 40 21
8 0 14 5 14 10 0 6 11 3 25 -6 17 -11 25 -25 25 -45 0 -15 5 -31 10 -34 6 -3
10 -15 10 -26 0 -28 38 -99 57 -106 9 -4 19 1 25 10 6 11 22 17 48 17 36 0 39
2 42 33 3 28 7 32 34 35 24 2 33 -2 42 -23 9 -20 19 -25 47 -25 25 0 35 -4 35
-16 0 -20 61 -79 78 -76 6 2 12 -6 12 -18 0 -14 7 -20 21 -20 18 0 21 -4 16
-30 -4 -16 -2 -32 4 -36 6 -3 8 -11 6 -18 -3 -6 1 -20 9 -31 8 -10 14 -32 14
-47 0 -40 27 -89 47 -86 12 2 20 -8 27 -34 6 -20 14 -40 19 -44 4 -4 7 -22 7
-40 0 -26 6 -36 28 -46 15 -8 27 -21 27 -32 0 -11 6 -21 13 -24 6 -2 9 -8 6
-14 -7 -11 -13 -109 -7 -120 2 -4 18 0 36 8 29 14 36 14 70 -1 20 -8 37 -20
37 -25 0 -10 71 -50 89 -50 6 0 22 23 36 50 20 39 31 50 50 52 14 0 31 1 37 2
9 1 12 -11 10 -37 -3 -35 -2 -37 26 -37 27 0 30 4 36 40 5 34 10 40 31 40 14
0 25 -4 25 -10 0 -5 9 -10 19 -10 11 0 23 -9 26 -20 4 -12 15 -20 30 -20 12 0
26 -7 29 -16 3 -9 15 -14 28 -12 19 2 24 10 26 40 l3 38 50 0 c73 0 85 -10 94
-75 3 -30 10 -57 14 -59 4 -3 23 8 42 24 19 16 44 29 56 30 12 0 34 6 50 14
100 50 103 51 112 37 6 -9 20 -12 40 -9 24 4 31 1 31 -13 0 -9 7 -22 15 -29 8
-7 15 -18 15 -26 0 -30 65 -45 84 -18 10 14 14 13 38 -5 29 -23 49 -26 64 -11
20 20 44 0 44 -36 0 -30 3 -34 25 -34 17 0 29 -9 40 -30 21 -40 55 -39 105 2
33 26 39 35 33 56 -5 21 -3 24 11 19 10 -4 24 -7 32 -7 7 0 16 -11 20 -25 7
-28 8 -29 35 -15 25 14 24 30 -1 30 -25 0 -26 12 -1 27 17 11 18 17 10 45 -5
18 -9 46 -9 62 0 21 -4 27 -15 22 -8 -3 -15 -1 -15 4 0 5 -9 18 -21 29 -13 12
-17 21 -10 26 6 3 11 13 11 22 0 12 -9 14 -50 8 -35 -5 -50 -3 -50 4 0 8 -6 9
-19 1 -31 -16 -81 17 -79 52 1 14 -4 33 -10 41 -17 20 3 34 23 17 16 -13 35
-6 35 13 0 7 -9 18 -21 25 -13 8 -19 21 -17 35 4 27 47 35 80 13 13 -8 37 -16
53 -18 26 -3 30 0 33 25 3 22 7 27 23 22 12 -4 19 -2 19 7 0 20 -29 58 -45 58
-26 0 -26 20 1 65 15 26 24 54 21 65 -6 23 -6 23 45 11 30 -7 41 -5 57 10 11
11 27 19 34 19 17 0 47 42 47 64 0 8 -5 16 -12 18 -7 3 -9 14 -4 32 6 24 11
27 33 23 30 -6 101 22 122 47 12 14 11 19 -5 31 -14 10 -15 14 -5 15 8 0 25
10 39 23 23 21 24 21 37 4 13 -17 15 -17 52 16 34 30 45 34 103 36 44 2 68 7
73 17 11 19 27 18 52 -6 33 -31 44 -9 38 72 -5 53 -9 67 -24 71 -11 3 -19 16
-21 38 l-3 34 -51 -3 c-58 -4 -71 9 -53 56 6 15 11 44 10 64 -1 41 12 56 34
38 9 -8 28 -10 49 -6 28 5 37 3 45 -13 6 -11 8 -27 5 -35 -5 -12 1 -16 22 -16
16 0 46 -3 67 -6 l37 -7 0 38 c0 35 2 37 26 32 17 -3 32 1 44 13 22 22 58 31
63 16 2 -7 20 0 46 17 24 16 48 26 55 24 7 -3 20 3 29 14 21 24 38 24 71 -2
32 -25 76 -19 76 10 0 11 12 23 28 30 16 7 35 26 43 44 12 28 19 32 59 35 78
6 130 82 94 137 -10 15 -12 25 -5 30 6 3 11 15 11 26 0 10 5 19 10 19 6 0 10
8 10 18 0 10 7 27 15 39 15 21 14 23 -23 42 -21 11 -46 31 -56 45 -9 14 -26
26 -37 26 -13 0 -19 6 -17 18 2 11 -3 16 -14 14 -21 -3 -48 45 -48 87 0 16 -6
31 -12 34 -10 3 -10 11 0 41 13 34 12 39 -5 52 -10 8 -29 11 -45 8 -19 -4 -30
0 -40 14 -7 11 -25 22 -38 24 -40 5 -71 70 -68 143 3 56 5 61 33 72 17 6 42
12 56 12 15 1 33 8 40 17 7 9 22 19 32 23 17 6 34 39 54 105 4 11 0 22 -11 28
-9 5 -16 20 -16 34 0 25 -75 124 -94 124 -5 0 -17 -7 -27 -16 -16 -15 -17 -12
-13 45 l3 61 -50 0 -50 0 5 59 c2 33 12 71 21 84 19 29 37 87 26 87 -4 0 -27
18 -51 40 -39 36 -43 43 -32 60 20 32 15 59 -12 66 -34 8 -278 -15 -293 -28
-7 -6 -13 -16 -13 -22 0 -13 -72 -56 -94 -56 -8 0 -18 9 -21 20 -7 23 -15 24
-50 8 -26 -12 -47 -47 -65 -108 -8 -27 -6 -37 7 -52 9 -10 24 -18 34 -18 33 0
30 -19 -8 -47 -21 -15 -55 -46 -76 -68 -35 -36 -43 -40 -88 -39 -27 0 -49 -3
-49 -8 0 -5 -18 -7 -39 -6 l-39 3 14 28 c13 24 13 28 -1 33 -45 18 16 74 80
74 46 0 62 17 46 49 -6 11 -3 34 10 71 29 79 29 79 -25 117 l-49 34 -45 -48
c-24 -26 -52 -65 -62 -86 -9 -21 -21 -39 -26 -39 -5 -1 -17 -14 -26 -29 -19
-31 -57 -42 -128 -37 -38 3 -45 7 -50 28 -3 15 -19 32 -39 42 -19 9 -38 22
-42 29 -4 8 -16 -3 -34 -30 -15 -22 -34 -41 -41 -41 -8 0 -19 -9 -26 -20 -9
-13 -24 -20 -46 -20 -32 0 -33 1 -26 35 5 30 4 35 -14 35 -12 0 -23 9 -27 23
l-7 22 -7 -24 -7 -24 -16 25 c-10 14 -20 37 -23 50 -4 14 -19 32 -36 42 -19
11 -29 25 -29 42 0 17 -6 24 -19 24 -43 0 -79 21 -85 51 -5 25 -10 29 -37 29
-17 0 -54 -8 -81 -17 -49 -18 -50 -18 -68 5 -38 46 -120 14 -120 -47 0 -11 -4
-23 -10 -26 -5 -3 -10 -23 -10 -43 -1 -20 -7 -48 -15 -62 -8 -14 -14 -40 -15
-58 0 -18 -4 -40 -9 -50 -5 -9 -17 -47 -25 -83 -23 -99 -33 -119 -56 -119 -17
0 -20 6 -20 44 0 25 -6 48 -14 55 -8 7 -17 29 -21 50 -6 35 -9 37 -40 37 -28
-1 -34 -5 -39 -28 -6 -33 -30 -37 -48 -8 -12 19 -13 19 -35 -8 l-23 -27 -19
25 c-14 18 -28 24 -54 23 -20 -1 -40 -4 -46 -7 -5 -4 -13 -34 -17 -67 -4 -32
-11 -62 -15 -65 -5 -3 -7 -10 -4 -15 4 -5 -6 -9 -20 -9 -15 0 -36 -11 -49 -25
-24 -26 -36 -24 -36 6 0 12 -6 16 -19 12 -10 -3 -22 0 -25 6 -10 16 -36 13
-36 -4 0 -19 -43 -20 -59 -1 -10 12 -20 11 -69 -9 l-57 -24 -9 30 c-7 24 -14
30 -35 29 -14 -1 -30 -2 -36 -1 -15 2 -13 121 3 121 6 0 20 8 31 19 10 10 23
20 28 22 7 3 8 25 3 59 -5 36 -3 70 5 97 11 37 11 44 -4 57 -10 9 -22 16 -28
16 -6 0 -14 7 -17 16 -5 13 -15 15 -46 10 -25 -4 -40 -2 -40 4 0 5 -9 19 -19
29 -14 14 -22 16 -30 8 -8 -8 -14 -8 -23 1 -7 7 -20 12 -30 12 -14 0 -18 8
-18 39 0 22 -7 46 -15 55 -9 8 -14 19 -13 23 3 10 -73 133 -82 133 -4 0 -11
15 -14 34 -6 34 -8 34 -37 24 -23 -8 -27 -13 -19 -23 9 -10 6 -16 -9 -25 -13
-6 -21 -21 -21 -35 0 -15 -6 -25 -14 -25 -7 0 -19 -7 -26 -15 -21 -25 -50 -19
-50 10 0 14 -4 25 -10 25 -5 0 -10 7 -10 15 0 10 -11 15 -35 15 -24 0 -35 -5
-35 -14 0 -8 -10 -18 -22 -22 -16 -5 -26 -1 -36 15 -19 28 -46 27 -66 -3 -28
-43 -56 -44 -91 -2 -16 20 -46 44 -65 54 -24 11 -38 27 -45 50 -9 32 -10 32
-71 32 -53 0 -64 -3 -69 -20z m130 -19 c6 -30 42 -61 68 -61 8 0 22 -11 30
-24 23 -35 47 -56 62 -56 8 0 30 14 48 30 41 35 53 37 62 10 3 -11 12 -20 18
-20 29 0 57 13 57 26 0 38 64 1 72 -41 4 -25 40 -31 58 -10 7 8 21 15 31 15
14 0 19 7 19 29 0 21 6 32 20 36 15 5 19 12 14 27 -5 16 -2 19 13 16 10 -2 19
-13 21 -28 2 -14 9 -29 16 -35 24 -19 76 -104 76 -123 0 -11 7 -22 15 -26 10
-4 15 -20 15 -51 0 -37 3 -45 19 -45 10 0 24 -7 31 -15 8 -10 17 -12 24 -6 13
11 39 -6 49 -31 5 -14 11 -15 40 -6 30 9 37 8 54 -9 11 -11 27 -23 34 -25 11
-4 12 -13 3 -49 -7 -24 -9 -70 -7 -101 5 -49 3 -58 -11 -58 -9 0 -19 -7 -22
-15 -4 -8 -14 -15 -24 -15 -16 0 -18 -8 -16 -63 2 -77 9 -88 45 -81 26 5 30 3
36 -25 4 -17 8 -31 10 -31 2 0 29 10 60 22 46 17 61 19 76 10 27 -17 69 -15
69 3 0 20 19 19 27 -1 3 -8 11 -13 18 -10 7 2 15 -4 18 -15 7 -27 32 -24 51 6
11 17 26 25 45 25 31 0 29 -4 46 108 5 31 13 46 28 51 28 11 56 2 70 -20 16
-25 39 -24 55 2 12 19 14 20 26 4 16 -22 48 -16 60 11 14 32 55 29 62 -5 4
-14 13 -33 20 -41 7 -8 14 -35 16 -60 3 -42 5 -45 32 -45 26 0 30 5 47 60 10
33 21 79 25 103 3 23 10 45 15 48 5 3 9 22 9 43 0 20 7 46 15 57 8 10 15 38
15 62 0 23 5 42 10 42 6 0 10 9 10 21 0 34 18 57 51 64 24 6 35 2 51 -15 17
-18 27 -21 57 -15 20 4 40 11 45 16 6 5 25 9 43 9 27 0 34 -5 39 -25 7 -27 49
-55 84 -55 14 0 20 -6 20 -23 0 -15 9 -29 25 -37 15 -8 39 -40 57 -77 22 -44
34 -61 42 -53 5 5 18 10 28 10 14 0 18 -7 16 -32 -3 -31 -1 -33 30 -36 23 -2
42 4 65 22 42 34 46 38 60 59 12 18 15 18 54 2 32 -13 42 -23 47 -46 5 -28 8
-29 60 -29 82 0 110 9 131 41 11 16 25 29 31 29 6 0 14 13 17 30 4 16 25 48
47 71 22 23 40 45 40 50 0 17 32 9 71 -18 26 -19 37 -33 32 -43 -31 -74 -43
-123 -33 -136 18 -20 1 -37 -30 -31 -20 4 -39 -2 -69 -21 -41 -26 -51 -48 -30
-69 8 -8 6 -19 -5 -41 -20 -39 -20 -46 2 -37 9 4 31 7 49 6 17 -1 34 2 37 7 3
5 17 7 30 5 35 -7 94 15 101 37 3 11 21 28 39 39 41 26 86 67 86 80 0 5 -10
13 -22 17 -41 12 -57 33 -48 62 15 51 40 89 65 100 21 10 26 9 35 -8 6 -11 18
-20 26 -20 30 0 112 51 110 68 -1 13 8 17 35 18 19 0 39 3 45 6 15 9 188 20
207 13 18 -8 24 -45 7 -45 -28 0 -1 -60 33 -73 9 -3 17 -13 17 -22 0 -8 7 -15
15 -15 22 0 19 -37 -7 -78 -12 -20 -21 -48 -20 -63 1 -15 -2 -30 -7 -33 -11
-7 -2 -54 12 -63 6 -4 28 -6 48 -4 35 2 36 2 35 -33 -1 -19 -4 -38 -8 -41 -9
-9 3 -45 15 -45 5 0 16 8 23 18 12 16 17 13 58 -30 27 -27 46 -57 46 -69 0
-12 8 -31 17 -41 17 -19 17 -21 0 -50 -9 -16 -17 -38 -17 -49 0 -10 -7 -19
-15 -19 -8 0 -24 -9 -35 -20 -11 -11 -29 -20 -40 -20 -11 0 -37 -5 -58 -12
l-37 -11 -3 -65 c-3 -82 25 -149 66 -158 15 -4 37 -15 49 -26 14 -14 28 -18
43 -13 34 11 50 -10 37 -46 -9 -22 -9 -34 1 -49 6 -11 12 -29 12 -40 0 -34 28
-90 44 -90 9 0 16 -7 16 -15 0 -9 9 -15 25 -15 17 0 29 -8 36 -24 6 -13 27
-31 46 -40 27 -13 33 -21 28 -34 -4 -9 -10 -25 -12 -34 -3 -10 -9 -18 -14 -18
-5 0 -9 -9 -9 -19 0 -11 -4 -23 -10 -26 -15 -9 -12 -41 5 -55 21 -17 9 -60
-24 -87 -18 -16 -39 -23 -67 -23 -43 0 -59 -11 -65 -45 -2 -11 -20 -28 -39
-37 -20 -10 -35 -25 -35 -35 0 -26 -38 -28 -60 -3 -22 24 -43 25 -73 4 -13 -9
-26 -13 -29 -10 -3 3 -24 -8 -46 -24 -22 -16 -45 -26 -51 -23 -22 14 -56 8
-62 -10 -5 -15 -13 -18 -40 -15 -36 4 -44 -5 -44 -49 0 -21 -3 -24 -22 -19
-13 3 -38 6 -56 6 -18 0 -31 4 -27 9 3 5 0 22 -7 36 -11 24 -16 26 -46 21 -19
-3 -44 0 -55 5 -29 16 -49 -9 -51 -67 -2 -27 -6 -56 -10 -64 -9 -20 14 -51 39
-52 11 -1 32 2 48 5 24 7 27 5 27 -17 0 -34 10 -56 25 -56 8 0 14 -20 18 -57
5 -61 -7 -91 -24 -61 -12 22 -42 23 -60 2 -10 -12 -28 -15 -81 -12 -47 2 -68
-1 -68 -9 0 -6 -13 -21 -30 -33 -25 -18 -32 -19 -50 -8 -18 11 -23 10 -34 -4
-7 -10 -25 -22 -40 -28 l-28 -10 23 -19 23 -19 -51 -26 c-29 -14 -54 -22 -57
-17 -3 4 -17 6 -31 4 -19 -4 -26 -13 -31 -40 -5 -24 -3 -38 6 -43 21 -13 -15
-60 -45 -60 -16 0 -25 -6 -25 -16 0 -13 -8 -15 -37 -12 -21 3 -47 8 -57 13
-17 7 -18 5 -12 -18 4 -19 -1 -42 -20 -79 l-26 -52 36 -29 c40 -32 46 -48 16
-40 -16 4 -20 0 -20 -21 0 -29 -25 -35 -63 -14 -12 6 -39 15 -59 18 -32 6 -37
4 -42 -14 -9 -34 -7 -45 14 -66 l21 -21 -23 6 c-13 3 -30 1 -38 -5 -12 -8 -13
-13 -2 -30 6 -11 12 -31 12 -44 0 -41 51 -64 132 -61 63 3 67 1 58 -16 -8 -14
-6 -23 10 -39 11 -11 20 -25 20 -31 0 -6 6 -9 14 -6 10 4 15 -8 20 -45 9 -64
-4 -80 -58 -76 -38 3 -41 1 -40 -22 1 -18 -8 -33 -34 -53 -47 -36 -77 -36 -91
3 -7 23 -16 30 -35 30 -23 0 -26 4 -26 34 0 40 -25 55 -60 36 -17 -9 -26 -7
-47 9 -31 25 -42 26 -57 5 -20 -26 -59 -8 -77 36 -14 32 -15 40 -3 44 19 7 18
46 -1 46 -8 0 -20 -9 -27 -20 -14 -22 -39 -26 -66 -9 -13 8 -32 4 -85 -20 -38
-17 -77 -31 -87 -31 -11 0 -31 -11 -46 -25 -15 -14 -30 -25 -35 -25 -4 0 -10
24 -14 52 -4 30 -15 58 -24 65 -9 7 -44 13 -78 13 l-63 0 0 -34 c0 -40 -18
-56 -35 -33 -7 10 -21 17 -33 17 -11 0 -22 7 -26 15 -3 8 -17 20 -31 25 -14 5
-25 13 -25 17 0 5 -13 8 -29 8 -27 0 -30 -4 -36 -42 -5 -35 -10 -43 -27 -43
-18 0 -19 4 -14 34 8 42 2 46 -51 39 -36 -5 -43 -10 -59 -44 -25 -57 -37 -63
-76 -43 -18 9 -39 25 -46 35 -6 9 -28 23 -46 29 -28 9 -40 8 -65 -5 -17 -8
-31 -14 -31 -13 0 2 4 29 10 61 8 49 6 63 -9 90 -9 18 -27 36 -39 42 -14 6
-22 19 -22 35 0 28 -27 109 -42 127 -5 6 -15 10 -22 7 -12 -5 -36 48 -36 79 0
25 -24 97 -32 97 -4 0 -4 16 -1 35 5 31 3 35 -17 35 -17 0 -21 4 -17 20 4 15
0 20 -14 20 -24 0 -68 38 -80 68 -6 17 -16 22 -42 22 -26 0 -36 6 -45 25 -9
20 -19 25 -46 25 -35 0 -46 -13 -46 -51 0 -16 -7 -19 -40 -19 -27 0 -43 -5
-46 -15 -10 -25 -20 -17 -43 38 -13 28 -27 60 -32 69 -5 10 -9 29 -9 42 0 14
-11 36 -25 50 -25 25 -26 25 -45 6 -11 -11 -27 -20 -35 -20 -9 0 -18 -7 -21
-15 -5 -11 -10 -13 -19 -5 -19 16 -45 1 -45 -27 0 -60 -38 -84 -74 -48 -39 39
-45 33 -62 -49 -2 -10 -14 -32 -27 -50 -17 -21 -27 -51 -32 -93 -4 -34 -13
-67 -20 -73 -8 -7 -19 -27 -25 -46 -22 -66 -45 -36 -54 69 -8 95 -12 106 -36
100 -15 -4 -21 6 -36 56 -16 54 -21 61 -44 61 -14 0 -31 -5 -38 -12 -9 -9 -12
-6 -12 17 0 27 -37 95 -51 95 -4 0 -12 -14 -19 -30 -7 -17 -22 -33 -36 -36
-13 -3 -26 -15 -29 -25 -4 -10 -13 -19 -21 -19 -8 0 -14 -10 -14 -23 0 -13 -6
-32 -14 -42 -8 -11 -12 -24 -10 -30 3 -6 -4 -20 -16 -30 -12 -11 -20 -31 -20
-51 0 -22 -7 -39 -23 -51 -12 -10 -31 -37 -41 -60 l-19 -43 -69 0 c-54 0 -68
3 -68 15 0 12 -10 14 -44 11 -53 -5 -86 -21 -86 -41 0 -17 -9 -19 -29 -6 -8 5
-12 18 -8 31 6 22 -10 70 -23 70 -11 0 -3 79 10 95 16 20 5 62 -20 75 -11 6
-20 15 -20 21 0 6 -9 22 -20 36 -22 28 -27 63 -9 63 6 0 1 12 -10 26 -12 15
-21 37 -21 50 0 20 5 24 29 24 47 0 53 20 20 64 l-29 40 22 23 c12 13 32 23
45 23 20 0 23 5 23 34 0 22 6 36 16 40 16 6 16 17 -1 101 -6 26 -3 33 18 44
13 7 30 28 37 46 7 19 17 32 21 29 5 -2 15 9 24 26 9 18 23 30 35 30 24 0 34
33 28 90 -4 42 2 49 21 26 16 -19 94 -39 120 -31 24 7 28 43 6 51 -15 6 -15
53 1 177 3 27 1 37 -10 37 -19 0 -40 54 -32 85 4 17 13 25 27 25 20 0 21 4 17
61 -4 57 -8 65 -45 99 -22 21 -43 44 -46 52 -4 7 -14 23 -23 36 -16 22 -16 23
4 29 12 3 22 13 22 22 0 21 19 41 40 41 22 0 70 52 70 76 0 24 27 64 43 64 21
0 9 102 -15 121 -23 18 -41 95 -27 121 15 27 10 52 -11 66 -11 7 -20 21 -20
33 0 25 -18 61 -36 72 -8 4 -14 16 -14 25 0 21 -19 42 -37 42 -6 0 -24 12 -38
26 -18 18 -30 23 -38 16 -16 -13 -57 3 -57 22 0 8 5 18 10 21 16 10 11 21 -15
33 -22 10 -25 18 -25 66 0 45 4 57 20 66 11 6 20 20 20 31 0 32 61 52 142 47
62 -5 71 -3 106 23 34 25 38 32 34 60 -3 20 -12 33 -23 36 -21 6 -25 18 -8 29
6 3 8 17 4 31 -5 22 -3 25 14 20 14 -3 22 1 26 14 4 11 16 30 28 43 12 12 31
35 41 50 l20 27 20 -26 21 -27 27 21 c14 12 33 21 41 21 9 0 33 20 54 45 36
42 41 44 90 45 49 0 52 -1 58 -29z"/>
<path d="M3938 1081 c-18 -10 -28 -24 -28 -39 0 -13 -12 -35 -27 -49 -15 -16
-21 -29 -15 -31 7 -2 12 -14 12 -27 0 -21 5 -24 53 -27 62 -5 97 18 97 64 0
21 5 28 19 28 20 0 35 25 25 41 -3 5 -16 9 -28 9 -15 0 -26 7 -29 19 -6 25
-46 31 -79 12z m75 -21 c3 -14 14 -20 32 -20 32 0 29 -23 -3 -28 -16 -3 -22
-10 -22 -30 0 -15 -8 -36 -18 -48 -14 -17 -25 -20 -64 -16 -39 3 -47 7 -51 28
-2 13 2 29 9 35 7 6 16 26 20 45 7 38 26 53 65 54 18 0 28 -6 32 -20z"/>
</g>
</svg>
