<?xml version="1.0" standalone="no"?>
<!DOCTYPE svg PUBLIC "-//W3C//DTD SVG 20010904//EN"
 "http://www.w3.org/TR/2001/REC-SVG-20010904/DTD/svg10.dtd">
<svg version="1.0" xmlns="http://www.w3.org/2000/svg"
 width="631.000000pt" height="416.000000pt" viewBox="0 0 631.000000 416.000000"
 preserveAspectRatio="xMidYMid meet">
<metadata>
Created by potrace 1.15, written by Peter Selinger 2001-2017
</metadata>
<g transform="translate(0.000000,416.000000) scale(0.100000,-0.100000)"
fill="#000000" stroke="none">
<path d="M1770 3816 c0 -16 -53 -24 -160 -27 -40 -1 -71 -7 -81 -16 -9 -8 -30
-13 -45 -11 -24 3 -29 -1 -35 -27 -10 -47 -10 -105 1 -105 6 0 10 -7 10 -15 0
-8 -4 -15 -9 -15 -5 0 -12 -13 -16 -30 -4 -20 -13 -30 -24 -30 -24 0 -54 -34
-49 -55 1 -10 19 -23 38 -29 27 -8 36 -17 38 -38 2 -14 10 -32 18 -38 8 -7 14
-18 14 -25 0 -7 14 -27 31 -44 17 -18 28 -39 25 -46 -2 -7 2 -16 10 -19 21 -8
17 -63 -6 -83 -73 -64 -106 -116 -83 -132 5 -3 9 -30 9 -58 0 -42 -3 -53 -16
-53 -9 0 -22 -6 -28 -12 -7 -7 -36 -15 -65 -18 l-52 -5 -3 -42 c-2 -31 1 -43
11 -43 15 0 57 -41 57 -56 0 -6 6 -16 12 -22 7 -7 11 -28 9 -48 -2 -23 3 -40
13 -47 26 -20 24 -42 -4 -43 -80 -2 -88 -4 -93 -24 -3 -13 1 -24 14 -30 10 -6
19 -17 19 -24 0 -7 9 -24 19 -38 24 -30 38 -78 22 -78 -6 0 -11 -11 -11 -25 0
-14 -7 -42 -15 -62 -8 -19 -15 -41 -15 -49 0 -7 25 -38 56 -68 30 -31 53 -60
49 -66 -3 -5 -1 -19 5 -31 20 -36 50 -157 50 -198 0 -30 6 -44 22 -55 19 -13
22 -27 25 -84 1 -38 -1 -82 -6 -98 -4 -16 -3 -41 3 -56 8 -20 6 -41 -8 -83
-10 -33 -15 -68 -11 -85 6 -29 42 -60 68 -60 8 0 22 -11 30 -24 23 -35 47 -56
62 -56 8 0 30 14 48 30 41 35 53 37 62 10 3 -11 12 -20 18 -20 29 0 57 13 57
26 0 38 64 1 72 -41 4 -25 40 -31 58 -10 7 8 21 15 31 15 14 0 19 7 19 29 0
21 6 32 20 36 15 5 19 12 14 27 -5 16 -2 19 13 16 10 -2 19 -13 21 -28 2 -14
9 -29 16 -35 24 -19 76 -104 76 -123 0 -11 7 -22 15 -26 10 -4 15 -20 15 -51
0 -37 3 -45 19 -45 10 0 24 -7 31 -15 8 -10 17 -12 24 -6 13 11 39 -6 49 -31
5 -14 11 -15 40 -6 30 9 37 8 54 -9 11 -11 27 -23 34 -25 11 -4 12 -13 3 -49
-7 -24 -9 -70 -7 -101 5 -49 3 -58 -11 -58 -9 0 -19 -7 -22 -15 -4 -8 -14 -15
-24 -15 -16 0 -18 -8 -16 -63 2 -77 9 -88 45 -81 26 5 30 3 36 -25 4 -17 8
-31 10 -31 2 0 29 10 60 22 46 17 61 19 76 10 27 -17 69 -15 69 3 0 20 19 19
27 -1 3 -8 11 -13 18 -10 7 2 15 -4 18 -15 7 -27 32 -24 51 6 11 17 26 25 45
25 27 0 30 4 36 43 16 102 18 109 38 116 28 11 56 2 70 -20 16 -25 39 -24 55
2 12 19 14 20 26 4 16 -22 48 -16 60 11 14 32 55 29 62 -5 4 -14 13 -33 20
-41 7 -8 14 -35 16 -60 3 -42 5 -45 32 -45 26 0 30 5 47 60 10 33 21 79 25
103 3 23 10 45 15 48 5 3 9 22 9 43 0 20 7 46 15 57 8 10 15 38 15 62 0 23 5
42 10 42 6 0 10 9 10 21 0 34 18 57 51 64 24 6 35 2 51 -15 17 -18 27 -21 57
-15 20 4 40 11 46 16 5 5 24 9 42 9 27 0 34 -5 39 -25 7 -27 49 -55 84 -55 14
0 20 -6 20 -23 0 -15 9 -29 25 -37 15 -8 39 -40 57 -77 22 -44 34 -61 42 -53
5 5 18 10 28 10 14 0 18 -7 16 -32 -3 -31 -1 -33 30 -36 23 -2 42 4 65 22 42
34 46 38 60 59 12 18 15 18 54 2 32 -13 42 -23 47 -46 5 -28 8 -29 60 -29 82
0 110 9 131 41 11 16 25 29 31 29 6 0 14 14 18 30 3 17 20 45 38 64 69 70 83
94 79 137 -1 9 14 43 33 77 33 59 34 61 15 78 -22 20 -25 44 -6 44 14 0 66 53
116 117 17 23 42 45 54 49 52 16 152 129 127 144 -8 5 -11 19 -6 41 18 99 18
109 3 132 -15 23 -14 26 14 61 19 22 39 36 53 36 12 0 31 7 42 15 10 8 29 15
42 15 15 0 26 9 32 25 5 13 23 31 40 40 26 13 29 19 20 36 -10 17 -3 28 51 84
34 36 69 65 76 65 9 0 12 6 9 18 -4 12 8 31 39 62 39 39 45 49 45 87 0 36 3
43 20 43 12 0 25 10 31 24 6 13 20 27 30 29 23 6 25 40 3 61 -19 20 -33 20
-58 1 -25 -19 -90 -21 -82 -2 3 6 9 20 12 30 4 9 10 17 15 17 5 0 9 11 9 24 0
16 7 27 20 31 25 8 45 41 30 50 -15 9 -12 32 4 38 8 3 29 2 47 -3 24 -7 39 -5
60 7 32 19 40 60 14 69 -9 4 -27 26 -41 49 -20 36 -30 43 -52 42 -24 -2 -27 2
-30 31 -2 17 1 32 7 32 11 0 9 110 -3 128 -4 7 -14 12 -22 12 -8 0 -32 11 -52
25 -20 14 -49 25 -63 25 -21 0 -29 7 -37 30 -8 22 -15 28 -27 24 -10 -4 -25 2
-38 15 -12 13 -49 37 -81 55 -33 18 -64 41 -70 51 -30 53 -69 58 -96 12 -11
-19 -32 -39 -47 -46 -29 -13 -36 -8 -55 42 -5 15 -18 27 -27 27 -9 0 -27 7
-39 16 -21 15 -25 15 -41 0 -12 -11 -27 -15 -43 -11 -16 4 -29 1 -37 -9 -17
-20 -50 -21 -57 -1 -4 8 -14 15 -23 15 -11 0 -17 10 -18 32 -4 49 -22 62 -70
49 -34 -9 -93 -55 -85 -67 6 -11 1 -24 -10 -24 -6 0 -23 -10 -36 -22 l-25 -23
13 24 c10 19 10 25 -1 32 -20 13 -29 11 -29 -6 0 -25 -34 -82 -55 -91 -11 -5
-24 -23 -29 -41 -8 -27 -15 -32 -45 -35 -32 -3 -36 -6 -36 -30 1 -23 -3 -26
-21 -22 -17 5 -24 -1 -33 -27 -15 -44 -14 -59 5 -59 13 0 15 -7 10 -32 -3 -18
-7 -46 -9 -63 -2 -26 -7 -30 -40 -36 -34 -5 -40 -3 -48 17 -11 30 -23 30 -43
2 -13 -18 -28 -23 -80 -26 l-65 -4 -12 -55 c-14 -60 -23 -71 -45 -52 -12 10
-20 7 -44 -16 -33 -32 -52 -26 -44 13 5 24 2 29 -27 37 -26 8 -35 17 -42 44
l-8 34 -28 -33 -27 -33 -32 17 c-25 13 -31 22 -27 35 4 15 -1 20 -27 24 -18 2
-34 1 -36 -4 -2 -5 -11 -9 -19 -9 -11 0 -14 7 -9 24 9 36 -12 86 -37 86 -11 0
-17 3 -13 8 4 4 11 7 14 7 4 0 18 8 31 17 l23 17 -21 44 c-12 25 -28 51 -36
57 -8 6 -19 27 -25 46 -13 39 -45 47 -55 14 -4 -11 -11 -18 -16 -15 -5 4 -4
13 2 23 16 25 -5 72 -31 72 -12 0 -19 4 -16 9 15 23 -7 41 -50 41 -34 0 -44 4
-44 16 0 9 -6 14 -12 11 -7 -2 -33 -1 -58 2 -36 6 -51 3 -73 -12 -25 -17 -28
-24 -22 -53 l6 -34 -43 -2 c-128 -4 -200 -18 -205 -39 -6 -21 -37 -31 -52 -16
-6 6 -11 21 -11 33 0 31 -20 41 -27 14 -4 -16 -12 -21 -29 -17 -16 3 -25 -1
-29 -13 -7 -22 -45 -34 -45 -14 0 8 -10 14 -25 14 -16 0 -25 -6 -25 -15 0 -8
-7 -15 -15 -15 -8 0 -15 4 -15 8 0 5 -25 7 -55 4 l-55 -4 6 31 c6 28 2 37 -40
76 -25 25 -46 53 -46 63 0 23 -55 111 -74 118 -8 3 -12 12 -10 19 3 7 -4 18
-15 24 -26 15 -31 14 -25 -3 3 -8 -3 -19 -15 -25 -27 -15 -31 -14 -31 8 0 11
-14 31 -31 45 -21 18 -28 30 -22 39 8 10 10 47 4 86 0 5 -10 12 -20 16 -12 4
-18 12 -14 21 3 7 0 14 -6 14 -6 0 -11 4 -11 10 0 5 -7 18 -15 27 -8 10 -20
26 -27 35 -8 10 -31 19 -58 21 -32 3 -46 9 -48 20 -4 21 -62 24 -62 3z m57
-27 c5 -27 8 -30 18 -16 18 25 76 8 95 -28 8 -17 22 -37 31 -45 9 -8 14 -21
12 -27 -3 -7 2 -13 10 -13 23 0 41 -28 28 -43 -7 -10 -7 -17 0 -24 8 -8 5 -20
-12 -42 -18 -24 -20 -34 -11 -43 6 -6 15 -8 19 -3 5 4 2 10 -5 12 -6 3 -10 9
-7 14 9 13 65 -41 65 -63 0 -10 4 -18 10 -18 16 0 60 23 60 32 0 4 5 8 11 8 6
0 8 -9 4 -20 -4 -14 -2 -20 8 -20 17 0 64 -68 73 -107 4 -15 16 -38 27 -50 18
-20 18 -23 4 -23 -23 0 -21 -13 4 -36 20 -18 21 -18 34 -1 18 25 29 5 20 -39
l-6 -36 55 3 c31 1 59 0 63 -4 12 -13 43 -7 43 8 0 8 7 15 15 15 8 0 15 -7 15
-16 0 -19 39 -10 57 13 7 9 21 13 33 10 15 -4 24 0 30 16 8 21 9 21 9 1 1 -11
7 -28 14 -36 16 -22 67 -13 67 12 0 21 66 33 204 38 l49 2 -7 32 c-5 24 -1 37
14 53 19 20 26 21 73 13 29 -5 56 -14 62 -19 5 -5 27 -9 48 -9 38 0 39 -1 34
-30 -6 -28 -5 -29 22 -24 25 5 29 2 35 -21 5 -19 2 -31 -9 -39 -16 -11 -16
-13 0 -26 15 -12 19 -11 35 9 21 28 36 22 45 -20 4 -16 15 -35 26 -42 10 -6
19 -19 19 -28 0 -9 7 -22 15 -29 22 -18 19 -29 -12 -43 -45 -19 -58 -47 -23
-47 25 0 42 -39 34 -79 -5 -23 -2 -29 16 -34 13 -3 23 0 26 8 7 18 44 6 44
-15 0 -10 14 -24 34 -34 45 -21 46 -21 73 12 l22 27 1 -26 c0 -19 9 -29 34
-42 27 -12 33 -20 29 -37 -3 -11 0 -27 7 -35 12 -14 17 -12 46 16 27 26 36 30
47 20 18 -15 47 -4 47 18 0 9 5 33 11 54 10 37 10 37 64 37 42 0 60 5 83 25
l30 25 6 -25 c5 -21 11 -24 31 -20 14 3 36 7 49 10 20 4 24 12 30 67 5 52 3
65 -10 75 -13 9 -14 18 -6 40 7 22 14 27 35 25 23 -2 26 1 24 25 -2 26 1 28
36 31 29 3 37 7 37 23 0 32 19 59 40 59 11 0 20 6 20 13 0 22 38 88 44 78 4
-5 2 -12 -4 -16 -15 -9 -12 -35 5 -35 7 0 18 6 22 13 4 7 21 21 36 30 17 11
26 24 23 32 -7 18 40 52 79 56 23 3 32 -1 42 -21 8 -17 9 -28 2 -37 -8 -9 -4
-14 14 -18 14 -4 28 -13 31 -21 7 -19 65 -18 73 2 4 11 13 14 30 9 14 -3 32 0
44 8 17 12 25 12 59 -5 22 -11 40 -26 40 -33 0 -7 8 -23 18 -35 17 -21 19 -21
53 -5 19 9 41 30 48 46 17 38 47 38 69 -1 10 -18 41 -43 77 -61 33 -18 71 -43
84 -56 13 -12 31 -23 41 -23 9 0 22 -11 28 -25 8 -18 19 -25 40 -25 15 0 43
-11 62 -25 19 -14 41 -25 51 -25 12 0 18 -13 22 -57 4 -34 2 -59 -3 -61 -12
-5 -13 -62 -1 -81 5 -8 18 -12 29 -9 16 5 30 -6 61 -49 23 -29 41 -58 41 -62
0 -21 -46 -37 -80 -30 -19 5 -43 6 -52 3 -20 -6 -24 -34 -7 -51 8 -8 2 -17
-20 -34 -17 -12 -31 -31 -31 -41 0 -10 -4 -18 -10 -18 -5 0 -10 -8 -10 -18 0
-11 -9 -27 -20 -37 -19 -17 -19 -35 1 -35 6 0 8 3 5 8 -2 4 13 6 34 4 24 -3
47 2 64 13 21 14 29 15 41 5 22 -18 19 -50 -4 -50 -12 0 -21 -9 -25 -25 -5
-18 -13 -25 -31 -25 -23 0 -25 -4 -25 -48 0 -44 -4 -52 -45 -92 -25 -24 -45
-48 -45 -53 0 -5 -32 -41 -71 -79 -59 -59 -70 -74 -65 -94 5 -19 1 -27 -18
-35 -13 -6 -29 -22 -35 -35 -6 -13 -19 -24 -29 -24 -10 0 -27 -7 -38 -15 -10
-8 -31 -15 -46 -15 -19 0 -34 -11 -57 -42 -30 -40 -30 -42 -14 -69 15 -25 16
-35 5 -74 -15 -55 -15 -88 -2 -101 14 -14 -66 -103 -111 -123 -21 -10 -55 -40
-77 -67 -22 -28 -59 -67 -82 -87 -42 -36 -44 -43 -18 -78 9 -13 5 -27 -20 -71
-17 -31 -30 -69 -30 -86 1 -21 -11 -44 -37 -76 -20 -25 -41 -46 -45 -46 -5 0
-16 -20 -26 -44 -10 -24 -22 -42 -25 -40 -4 2 -16 -12 -27 -30 -23 -39 -56
-50 -132 -44 -38 3 -45 7 -50 28 -3 15 -19 32 -39 42 -19 9 -38 22 -42 29 -4
8 -16 -3 -34 -30 -15 -22 -34 -41 -41 -41 -8 0 -19 -9 -26 -20 -9 -13 -24 -20
-46 -20 -32 0 -33 1 -26 35 5 30 4 35 -14 35 -12 0 -23 9 -27 23 l-7 22 -7
-24 -7 -24 -16 25 c-10 14 -20 37 -23 50 -4 14 -19 32 -36 42 -19 11 -29 25
-29 42 0 17 -6 24 -19 24 -43 0 -79 21 -85 51 -5 25 -10 29 -37 29 -17 0 -54
-8 -81 -18 -49 -17 -50 -17 -68 6 -38 46 -120 14 -120 -47 0 -11 -4 -23 -10
-26 -5 -3 -10 -23 -10 -43 -1 -20 -7 -48 -15 -62 -8 -14 -14 -40 -15 -58 0
-18 -4 -40 -9 -50 -5 -9 -17 -47 -25 -83 -23 -99 -33 -119 -56 -119 -17 0 -20
6 -20 44 0 25 -6 48 -14 55 -8 7 -17 29 -21 50 -6 35 -9 37 -40 37 -28 -1 -34
-5 -39 -28 -6 -33 -30 -37 -48 -8 -12 19 -13 19 -35 -8 l-23 -27 -19 25 c-14
18 -28 24 -54 23 -20 -1 -40 -4 -46 -7 -5 -4 -13 -34 -17 -67 -4 -32 -11 -62
-15 -65 -5 -3 -7 -10 -4 -15 4 -5 -6 -9 -20 -9 -15 0 -36 -11 -49 -25 -24 -26
-36 -24 -36 6 0 12 -6 16 -19 12 -10 -3 -22 0 -25 6 -10 16 -36 13 -36 -4 0
-19 -43 -20 -59 -1 -10 12 -20 11 -69 -9 l-57 -24 -9 30 c-7 24 -14 30 -35 29
-14 -1 -30 -2 -36 -1 -15 2 -13 121 3 121 6 0 20 8 31 19 10 10 23 20 28 22 7
3 8 25 3 59 -5 36 -3 70 5 97 11 37 11 44 -4 57 -10 9 -22 16 -28 16 -6 0 -14
7 -17 16 -5 13 -15 15 -46 10 -25 -4 -40 -2 -40 4 0 5 -9 19 -19 29 -14 14
-22 16 -30 8 -8 -8 -14 -8 -23 1 -7 7 -20 12 -30 12 -14 0 -18 8 -18 39 0 22
-7 46 -15 55 -9 8 -14 19 -13 23 3 10 -73 133 -82 133 -4 0 -11 15 -14 34 -6
34 -8 34 -37 24 -23 -8 -27 -13 -19 -23 9 -10 6 -16 -9 -25 -13 -6 -21 -21
-21 -35 0 -15 -6 -25 -14 -25 -7 0 -19 -7 -26 -15 -21 -25 -50 -19 -50 10 0
14 -4 25 -10 25 -5 0 -10 7 -10 15 0 10 -11 15 -35 15 -24 0 -35 -5 -35 -14 0
-8 -10 -18 -22 -22 -16 -5 -26 -1 -36 15 -20 29 -39 26 -72 -9 -36 -39 -53
-38 -86 6 -15 19 -42 41 -61 49 -49 21 -61 54 -41 118 12 38 16 84 14 172 -4
162 -4 165 -21 165 -14 0 -33 46 -22 56 6 6 -36 163 -52 192 -6 11 -9 27 -6
34 3 7 -20 39 -52 72 -55 57 -56 59 -44 90 7 17 15 42 18 56 2 14 9 35 15 47
11 23 -5 83 -22 83 -5 0 -14 16 -20 35 -6 19 -16 35 -21 35 -5 0 -9 7 -9 15 0
14 6 16 82 19 15 1 30 4 33 8 8 8 -16 58 -28 58 -5 0 -7 17 -4 40 3 25 1 43
-6 48 -7 4 -19 21 -27 37 -9 17 -26 34 -38 40 -16 7 -22 18 -22 42 0 33 0 33
49 33 31 0 53 5 61 15 7 8 24 15 37 15 23 0 25 3 19 34 -4 19 -3 37 2 40 11 7
3 56 -9 56 -23 0 -4 35 46 85 46 46 55 61 55 90 0 21 -5 35 -12 35 -9 0 -9 3
1 9 11 7 6 16 -23 42 -33 30 -68 86 -71 114 -3 25 -32 55 -53 55 -49 0 -29 59
21 60 10 0 17 8 17 19 0 11 7 26 15 35 18 17 20 53 4 58 -8 3 -10 21 -5 61 7
56 8 56 37 50 18 -3 35 0 46 8 9 8 45 15 82 17 112 4 161 13 161 28 0 8 9 14
20 14 15 0 22 -9 27 -31z"/>
</g>
</svg>
