<?xml version="1.0" standalone="no"?>
<!DOCTYPE svg PUBLIC "-//W3C//DTD SVG 20010904//EN"
 "http://www.w3.org/TR/2001/REC-SVG-20010904/DTD/svg10.dtd">
<svg version="1.0" xmlns="http://www.w3.org/2000/svg"
 width="386.000000pt" height="334.000000pt" viewBox="0 0 386.000000 334.000000"
 preserveAspectRatio="xMidYMid meet">
<metadata>
Created by potrace 1.15, written by Peter Selinger 2001-2017
</metadata>
<g transform="translate(0.000000,334.000000) scale(0.100000,-0.100000)"
fill="#000000" stroke="none">
<path d="M1725 2929 c-22 -46 -57 -105 -77 -133 -31 -41 -37 -56 -33 -85 2
-20 7 -56 10 -81 6 -52 55 -143 88 -164 19 -13 22 -22 19 -65 -4 -45 -8 -53
-39 -72 -35 -22 -35 -22 -30 -83 5 -70 -16 -120 -57 -130 -17 -4 -27 -16 -31
-36 -7 -33 -12 -35 -38 -16 -15 12 -17 22 -11 66 l7 52 -54 -3 c-52 -3 -53 -2
-67 31 -18 46 -19 46 -42 25 -22 -20 -21 -20 -37 16 -9 22 -16 25 -47 21 -34
-4 -37 -2 -52 33 l-15 38 -57 -7 c-80 -9 -99 -31 -114 -131 -13 -81 -14 -223
-3 -282 3 -18 17 -45 30 -61 19 -23 27 -48 35 -118 5 -49 10 -95 10 -101 0 -7
6 -13 13 -13 10 0 17 -39 26 -142 9 -98 17 -148 27 -160 12 -13 13 -24 5 -53
-10 -36 -8 -40 34 -95 37 -46 45 -64 45 -99 0 -51 8 -67 72 -146 37 -47 48
-68 48 -96 0 -44 2 -46 44 -41 28 3 37 10 51 42 15 34 21 38 65 44 53 7 60 16
60 77 0 32 9 49 54 102 l53 63 0 147 c0 114 -3 150 -14 159 -8 6 -20 23 -28
37 -19 37 -52 202 -59 296 -4 44 -9 92 -12 106 -4 23 -1 28 23 33 15 4 35 9
44 12 10 3 23 -9 37 -34 16 -29 37 -45 91 -72 l71 -34 22 21 c13 11 40 23 60
27 28 5 48 20 88 65 41 48 58 61 90 66 23 4 44 14 50 25 7 13 27 20 69 25 46
5 62 11 66 25 5 15 20 20 73 25 98 9 122 15 122 30 0 8 -17 16 -41 20 -42 7
-69 35 -113 116 -10 19 -49 58 -87 87 -66 51 -70 52 -126 50 -83 -3 -113 16
-148 93 -25 57 -27 69 -23 158 5 90 3 100 -23 152 -16 33 -45 70 -69 89 -22
18 -52 53 -65 79 -47 92 -46 92 -90 0z m65 -9 c7 -17 35 -52 62 -78 80 -76 92
-107 93 -242 1 -111 2 -117 34 -177 39 -73 81 -96 165 -91 47 2 55 -1 111 -45
41 -32 73 -68 99 -112 21 -36 48 -72 59 -80 20 -14 19 -15 -23 -15 -61 0 -88
-9 -95 -30 -4 -13 -19 -19 -62 -22 -44 -4 -60 -10 -71 -26 -10 -15 -25 -22
-46 -22 -27 0 -41 -10 -87 -64 -45 -54 -59 -65 -85 -65 -17 -1 -44 -11 -59
-23 l-27 -21 -53 26 c-76 37 -107 92 -121 217 -6 57 -7 102 -2 113 5 10 8 44
7 75 -3 53 -1 57 28 76 32 21 43 52 43 122 0 22 -7 34 -24 44 -40 21 -83 114
-90 195 -6 68 -5 71 26 111 18 22 46 68 62 102 16 34 33 62 37 62 3 0 12 -14
19 -30z m-570 -645 c11 -33 13 -35 49 -29 36 6 38 5 54 -37 l17 -43 23 22 23
22 11 -31 c11 -29 14 -31 59 -27 l46 3 -6 -66 c-6 -53 -4 -68 8 -72 8 -3 17 1
20 9 5 13 8 13 28 0 32 -23 35 -21 43 24 4 22 12 40 19 40 7 0 22 -28 34 -62
24 -76 17 -98 -33 -98 -18 0 -36 -3 -38 -7 -8 -15 23 -269 44 -363 16 -69 30
-105 51 -132 16 -21 26 -42 23 -48 -8 -13 -8 -178 0 -211 4 -19 -6 -37 -49
-86 -47 -54 -55 -70 -61 -117 l-7 -54 -46 -5 c-26 -3 -48 -9 -49 -14 -8 -22
-44 -73 -52 -73 -5 0 -12 16 -16 36 -4 22 -28 63 -59 103 -47 58 -54 73 -60
125 -5 49 -13 67 -46 107 -38 45 -40 50 -31 87 6 30 5 44 -5 54 -11 11 -43
237 -44 316 0 6 -6 12 -14 12 -10 0 -15 24 -20 87 -6 74 -11 92 -35 122 -38
47 -49 160 -31 299 16 118 32 142 96 142 40 0 43 -2 54 -35z"/>
<path d="M2903 2472 c-25 -3 -49 -22 -120 -99 l-88 -96 75 6 c72 7 76 8 112
49 23 26 41 60 49 91 6 26 10 49 8 50 -2 1 -18 1 -36 -1z"/>
<path d="M2388 1143 l-36 -4 -7 -62 c-9 -85 -35 -167 -53 -167 -19 0 -12 -87
13 -178 l18 -63 69 -35 c38 -19 74 -31 81 -28 43 26 156 129 161 147 3 12 6
50 6 85 0 62 -1 65 -55 131 -30 38 -55 77 -56 87 0 18 -83 96 -97 92 -4 -1
-23 -3 -44 -5z m78 -49 c19 -15 34 -33 34 -42 0 -8 26 -49 58 -91 l57 -76 -3
-70 -3 -70 -51 -40 c-106 -84 -89 -79 -154 -48 -55 27 -59 31 -76 83 -19 61
-23 131 -9 145 14 15 51 143 51 175 0 66 36 79 96 34z"/>
</g>
</svg>
