<?xml version="1.0" standalone="no"?>
<!DOCTYPE svg PUBLIC "-//W3C//DTD SVG 20010904//EN"
 "http://www.w3.org/TR/2001/REC-SVG-20010904/DTD/svg10.dtd">
<svg version="1.0" xmlns="http://www.w3.org/2000/svg"
 width="491.000000pt" height="591.000000pt" viewBox="0 0 491.000000 591.000000"
 preserveAspectRatio="xMidYMid meet">
<metadata>
Created by potrace 1.15, written by Peter Selinger 2001-2017
</metadata>
<g transform="translate(0.000000,591.000000) scale(0.100000,-0.100000)"
fill="#000000" stroke="none">
<path d="M1653 5593 c-6 -2 -19 -27 -29 -55 -15 -46 -15 -63 -4 -149 12 -96
12 -97 -14 -140 -38 -66 -62 -121 -80 -183 -9 -30 -21 -58 -26 -61 -6 -4 -17
-22 -25 -42 -8 -19 -26 -44 -40 -55 -26 -20 -40 -47 -82 -158 -14 -36 -30 -79
-37 -96 -6 -18 -17 -38 -23 -45 -15 -19 -27 -112 -24 -177 2 -36 -2 -61 -13
-78 -15 -22 -15 -34 -5 -107 7 -45 13 -101 13 -123 1 -26 8 -50 20 -63 13 -15
21 -41 23 -84 3 -34 9 -66 14 -71 14 -15 11 -73 -5 -105 -13 -24 -13 -33 0
-71 8 -24 12 -50 9 -58 -3 -8 0 -42 6 -77 9 -54 13 -62 30 -58 10 3 19 1 20
-3 0 -5 2 -29 4 -54 3 -25 6 -75 9 -112 5 -75 13 -108 27 -108 5 0 18 -9 28
-19 18 -18 19 -26 9 -86 -10 -65 -9 -68 17 -95 24 -25 62 -120 48 -120 -4 0 8
-15 26 -33 17 -19 31 -38 30 -43 -7 -25 14 -54 38 -54 21 0 24 -4 20 -21 -9
-34 3 -49 37 -49 30 0 35 -5 64 -61 18 -34 32 -75 32 -91 0 -16 6 -31 15 -34
8 -4 15 -15 15 -25 0 -24 25 -35 44 -20 10 8 16 5 24 -15 15 -31 15 -61 2 -69
-11 -7 -10 -64 2 -71 4 -3 5 -10 3 -17 -2 -7 -6 -43 -9 -80 -3 -38 -11 -75
-18 -84 -7 -9 -15 -46 -18 -82 -4 -51 -8 -66 -20 -64 -9 1 -24 -18 -39 -50
-13 -29 -33 -69 -43 -90 -22 -47 -24 -115 -3 -123 12 -5 14 -18 12 -53 -3 -25
0 -54 5 -64 13 -25 21 -164 10 -171 -9 -6 -1 -65 13 -99 4 -10 2 -24 -6 -33
-7 -9 -12 -33 -10 -53 2 -38 -31 -111 -51 -111 -5 0 -9 -15 -7 -33 1 -17 -6
-50 -16 -72 -10 -22 -20 -59 -23 -83 -2 -23 -9 -45 -13 -48 -5 -3 -9 -18 -9
-35 0 -16 -14 -58 -31 -94 -25 -54 -35 -65 -55 -65 -20 0 -29 -9 -46 -46 -13
-30 -18 -57 -14 -75 5 -28 -6 -40 -19 -19 -3 5 -20 8 -38 6 -23 -2 -32 -8 -32
-22 0 -14 8 -20 33 -22 24 -2 32 -8 32 -23 0 -10 5 -19 11 -19 8 0 8 -5 -1
-15 -10 -12 -10 -18 0 -30 7 -8 18 -15 24 -15 6 0 20 -14 31 -30 14 -21 26
-29 39 -26 10 3 30 -1 44 -7 20 -9 26 -9 30 1 7 21 24 13 20 -10 -5 -37 34
-63 87 -58 51 4 64 7 78 19 12 9 17 10 17 2 0 -23 47 -60 68 -54 24 6 56 49
47 63 -4 6 -4 18 -1 28 5 14 14 17 35 14 22 -3 32 1 40 16 6 11 21 22 35 26
19 5 26 15 31 44 4 25 13 41 28 47 12 6 22 19 22 30 0 14 8 21 30 25 24 4 30
10 32 34 4 48 10 56 48 56 36 0 37 0 33 -38 -3 -35 -2 -37 25 -34 15 1 27 -2
27 -8 0 -5 9 -10 19 -10 11 0 23 -5 26 -10 4 -6 15 -10 24 -8 10 2 25 -3 33
-9 17 -14 34 -17 101 -15 41 2 49 6 57 27 5 14 16 25 24 25 15 0 68 64 60 72
-3 3 4 8 15 11 14 3 21 -1 25 -19 4 -13 12 -24 19 -24 6 0 24 -15 38 -33 l26
-32 -18 -35 c-11 -19 -19 -40 -19 -47 0 -23 21 -24 38 -3 12 15 33 24 65 27
26 3 47 10 47 14 0 17 49 9 63 -11 31 -44 140 -61 154 -24 2 7 11 10 19 7 9
-3 14 2 14 15 0 12 4 23 9 26 5 4 12 29 16 56 4 28 11 50 17 50 14 0 89 60
108 85 8 11 29 35 47 54 24 24 33 43 33 66 0 21 6 35 16 39 10 4 13 13 9 26
-3 11 -2 20 3 20 19 0 53 86 46 114 -5 21 -3 25 9 21 23 -10 27 40 6 75 -23
37 -24 56 -4 64 9 3 15 18 15 36 0 17 7 47 15 67 8 19 15 50 15 68 0 36 26
149 42 178 5 10 13 15 18 12 5 -3 12 4 15 16 4 12 2 24 -3 28 -7 4 -4 38 10
101 11 52 20 104 20 115 -1 30 -8 64 -13 70 -12 12 5 68 22 72 14 4 16 12 12
39 -4 25 -1 40 12 54 10 11 21 17 26 14 9 -5 59 93 59 117 0 8 34 113 76 234
52 153 76 240 80 285 5 77 10 93 25 85 16 -11 38 26 29 50 -7 19 11 61 35 77
5 4 10 13 10 20 0 17 42 95 55 103 6 4 10 34 9 68 -1 60 15 117 33 117 10 0
56 50 72 79 5 9 11 60 12 115 3 90 1 102 -20 130 -55 75 -86 143 -86 191 0 38
-5 51 -25 67 -14 11 -25 29 -25 42 0 12 -5 27 -11 33 -9 9 -39 117 -56 204 -3
14 -22 45 -44 69 -36 39 -42 42 -78 37 -31 -4 -50 1 -91 25 -28 16 -54 36 -57
44 -3 9 -36 35 -73 59 -38 24 -76 57 -86 74 -10 17 -23 31 -29 31 -16 0 -55
43 -55 61 0 9 -13 28 -29 43 l-28 27 -22 -28 -21 -28 -31 35 c-17 19 -44 51
-60 70 -16 19 -35 42 -42 50 -8 8 -28 34 -47 58 -18 23 -39 42 -47 42 -17 0
-66 53 -95 102 -11 20 -30 39 -42 42 -12 3 -39 29 -61 57 -22 28 -54 66 -71
83 -17 17 -41 49 -53 72 -13 22 -36 49 -53 58 -16 10 -34 28 -40 41 -9 20 -16
22 -49 18 -48 -7 -117 18 -149 52 -13 14 -31 25 -41 25 -9 0 -42 13 -73 29
-56 30 -56 30 -70 9 -14 -20 -16 -20 -62 -4 -26 8 -57 13 -69 10 -31 -8 -173
51 -204 85 -15 16 -49 40 -77 54 -28 14 -57 33 -64 42 -8 10 -25 21 -37 26
-27 10 -142 19 -160 12z m99 -14 c40 2 85 -17 108 -44 7 -9 28 -22 46 -30 17
-7 49 -29 71 -48 43 -40 186 -101 216 -93 11 2 46 -4 78 -14 58 -17 59 -17 59
1 0 25 11 24 70 -6 27 -14 56 -25 64 -25 8 0 21 -6 28 -13 45 -44 83 -61 142
-63 47 -2 62 -7 69 -21 4 -10 24 -28 43 -41 20 -13 42 -39 50 -59 9 -20 30
-50 47 -67 18 -18 56 -60 85 -94 29 -34 57 -60 62 -57 4 3 18 -12 31 -32 30
-51 80 -103 99 -103 8 0 40 -32 70 -71 64 -82 88 -112 132 -156 l31 -33 21 29
21 28 20 -26 c11 -14 27 -39 36 -56 9 -16 27 -35 41 -42 13 -7 30 -23 37 -36
7 -13 40 -41 72 -62 33 -21 70 -50 83 -66 25 -30 146 -96 146 -79 0 5 11 10
24 10 17 0 35 -13 58 -42 37 -47 48 -76 73 -190 9 -43 21 -78 26 -78 5 0 9
-12 9 -26 0 -16 10 -34 25 -46 20 -16 25 -28 25 -68 0 -47 33 -119 88 -190 16
-21 19 -40 17 -120 -1 -52 -3 -100 -4 -107 0 -7 -26 -37 -56 -68 -60 -62 -58
-58 -56 -130 2 -38 -4 -61 -24 -97 -15 -26 -31 -50 -36 -53 -5 -4 -9 -14 -9
-23 0 -9 -11 -30 -24 -47 -18 -23 -23 -38 -19 -62 5 -28 3 -33 -15 -33 -25 0
-30 -15 -36 -101 -2 -36 -8 -74 -14 -85 -14 -24 -92 -260 -92 -277 0 -6 -6
-23 -13 -37 -8 -14 -19 -48 -26 -75 -17 -71 -44 -135 -57 -135 -6 0 -21 -11
-33 -24 -18 -19 -22 -33 -19 -60 3 -28 0 -37 -14 -42 -25 -7 -29 -103 -6 -131
7 -8 6 -23 -1 -45 -21 -64 -39 -183 -30 -193 13 -13 11 -25 -4 -25 -25 0 -67
-126 -67 -199 0 -21 -7 -55 -15 -74 -8 -20 -15 -48 -15 -62 0 -14 -7 -28 -15
-31 -19 -8 -19 -44 0 -70 18 -24 20 -75 3 -71 -9 1 -13 -11 -13 -35 0 -20 -6
-43 -12 -49 -7 -7 -13 -21 -13 -30 0 -9 -7 -20 -16 -23 -9 -3 -14 -13 -11 -20
3 -8 -1 -20 -9 -26 -8 -7 -14 -27 -14 -44 0 -24 -8 -38 -30 -54 -16 -13 -30
-27 -30 -33 0 -14 -76 -87 -110 -104 -20 -10 -29 -24 -33 -50 -8 -50 -29 -95
-44 -95 -7 0 -13 -5 -13 -10 0 -6 -12 -15 -26 -20 -34 -13 -91 6 -112 37 -15
24 -65 32 -77 13 -3 -5 -20 -10 -36 -10 -34 0 -68 -15 -86 -39 -21 -27 -16 9
7 52 l20 37 -45 45 c-25 25 -45 52 -45 59 0 8 -11 13 -30 12 -23 -1 -30 -6
-30 -21 -1 -25 -33 -65 -52 -65 -8 0 -20 -11 -26 -25 -10 -21 -19 -25 -54 -26
-59 -2 -70 1 -89 17 -9 8 -23 12 -31 9 -9 -4 -32 3 -53 15 -21 12 -46 19 -56
17 -14 -4 -17 1 -13 27 7 48 -6 60 -54 47 -36 -10 -41 -15 -47 -51 -6 -33 -11
-39 -33 -42 -21 -2 -27 -8 -27 -27 0 -26 -19 -39 -30 -22 -12 20 -22 11 -18
-17 6 -34 -12 -82 -30 -82 -8 0 -22 -9 -33 -21 -12 -13 -25 -18 -41 -14 -16 4
-25 -1 -33 -16 -7 -11 -9 -26 -7 -33 7 -18 -15 -50 -36 -54 -23 -4 -46 15 -59
48 -9 25 -10 25 -26 5 -19 -23 -70 -29 -119 -14 -27 9 -33 16 -33 38 0 37 -10
44 -32 25 -14 -14 -20 -14 -33 -4 -8 7 -21 10 -29 7 -9 -4 -33 11 -61 38 -25
23 -41 45 -35 47 7 2 5 14 -5 36 -13 25 -23 32 -46 32 -16 0 -29 4 -29 9 0 14
41 21 61 10 32 -17 40 -11 34 24 -4 21 0 48 10 75 14 35 22 42 44 42 24 0 31
9 61 73 18 39 33 83 32 96 -1 13 2 29 7 35 4 6 11 29 14 52 2 23 13 59 23 80
10 21 17 48 16 60 -2 12 11 42 27 67 21 29 31 57 31 81 0 20 5 45 12 55 9 14
9 26 1 43 -5 13 -9 69 -7 127 1 65 -2 113 -9 125 -6 12 -10 47 -8 79 2 46 -1
57 -13 57 -22 0 -22 82 -1 100 8 7 15 20 15 29 0 9 7 28 15 44 8 15 22 39 30
55 8 15 15 23 15 18 0 -5 7 -3 15 4 10 8 15 30 15 62 0 29 8 65 20 89 12 22
18 44 14 50 -3 5 -3 18 1 27 10 25 12 104 2 125 -5 10 -3 31 4 51 13 36 7 70
-17 101 -14 19 -16 19 -25 2 -12 -21 -29 -13 -29 14 0 10 -7 19 -15 19 -10 0
-15 11 -15 35 0 20 -10 52 -23 73 -12 20 -27 46 -33 57 -6 11 -24 21 -40 23
-39 5 -50 17 -34 37 16 19 5 32 -30 37 -19 2 -26 10 -28 33 -2 16 -15 40 -28
54 -14 13 -29 44 -36 68 -6 24 -24 62 -40 84 -28 38 -28 42 -18 96 11 64 13
99 4 90 -4 -3 -18 3 -33 14 -27 21 -33 52 -45 228 -3 49 -19 77 -37 65 -12 -7
-19 28 -23 104 -2 38 -9 79 -15 91 -9 16 -8 26 5 47 19 27 21 83 5 113 -6 10
-11 46 -13 80 -2 51 -6 64 -25 76 -18 12 -22 23 -20 57 1 24 -4 79 -11 122
-11 68 -10 82 3 102 10 16 15 46 14 91 -1 80 9 142 26 163 7 8 15 26 18 40 13
64 94 241 117 257 24 17 82 124 105 193 18 56 43 111 54 120 3 3 14 20 25 39
17 31 18 41 6 141 -12 102 -11 109 9 155 19 44 23 47 48 40 16 -4 45 -7 65 -6z"/>
</g>
</svg>
