<?xml version="1.0" standalone="no"?>
<!DOCTYPE svg PUBLIC "-//W3C//DTD SVG 20010904//EN"
 "http://www.w3.org/TR/2001/REC-SVG-20010904/DTD/svg10.dtd">
<svg version="1.0" xmlns="http://www.w3.org/2000/svg"
 width="198.000000pt" height="253.000000pt" viewBox="0 0 198.000000 253.000000"
 preserveAspectRatio="xMidYMid meet">
<metadata>
Created by potrace 1.15, written by Peter Selinger 2001-2017
</metadata>
<g transform="translate(0.000000,253.000000) scale(0.100000,-0.100000)"
fill="#000000" stroke="none">
<path d="M496 2228 l-84 -162 23 -34 c22 -32 22 -36 9 -85 -8 -29 -14 -55 -14
-59 0 -4 33 -34 72 -68 l73 -61 51 7 51 6 6 -50 c3 -27 11 -115 18 -196 10
-122 10 -151 -1 -174 -8 -15 -15 -30 -17 -34 -2 -3 36 -55 85 -115 122 -149
186 -262 186 -328 l1 -50 -43 -3 c-70 -5 -104 28 -138 133 l-28 85 -46 0 c-75
0 -77 -4 -39 -119 32 -96 35 -101 61 -101 15 0 28 -2 28 -5 0 -3 -18 -53 -40
-111 -22 -59 -40 -111 -40 -115 0 -5 32 -6 71 -3 l71 7 -12 -22 c-6 -13 -10
-24 -8 -25 2 -1 34 -28 72 -60 66 -55 70 -57 120 -54 l51 3 3 47 3 48 25 -16
c23 -16 27 -15 94 26 38 23 70 45 70 49 0 3 -40 43 -89 88 l-89 82 10 48 c7
34 21 60 50 89 39 41 40 43 33 93 l-7 50 41 7 c40 6 41 8 37 38 -3 17 -8 62
-11 99 -6 64 -10 72 -66 141 -32 41 -59 79 -59 84 0 6 13 21 28 34 27 22 28
27 24 89 -4 64 -3 69 47 160 61 111 61 114 -11 246 l-50 91 -82 23 c-101 28
-132 27 -167 -7 -38 -37 -50 -25 -88 89 -37 109 -106 207 -147 207 -17 0 -24
6 -24 19 0 10 -7 21 -15 24 -10 4 -37 -38 -99 -155z m179 28 c22 -27 47 -77
65 -131 28 -83 38 -103 75 -149 15 -19 16 -19 53 17 45 44 70 46 163 17 l64
-20 40 -74 39 -75 -17 -37 c-15 -30 -16 -39 -5 -45 10 -7 4 -25 -25 -81 -35
-66 -38 -79 -36 -135 4 -61 3 -62 -36 -96 l-39 -34 71 -87 c73 -90 83 -116 83
-212 0 -32 -2 -34 -36 -34 l-37 0 6 -64 c6 -62 5 -64 -28 -96 -26 -25 -37 -49
-51 -103 l-17 -71 82 -77 83 -76 -35 -22 c-44 -27 -50 -26 -95 4 -20 14 -41
25 -45 25 -5 0 -7 -28 -6 -62 4 -59 3 -63 -19 -66 -15 -2 -39 9 -69 35 -26 21
-51 41 -56 44 -6 4 -1 21 12 42 11 19 21 37 21 41 0 3 -34 3 -75 -1 -41 -3
-75 -2 -75 2 0 19 64 175 72 175 5 0 20 -7 34 -16 19 -13 40 -15 88 -12 35 3
68 8 73 11 5 3 6 37 3 75 -6 59 -14 82 -58 158 -28 49 -87 133 -132 188 -44
54 -80 103 -80 110 1 6 6 21 13 34 10 18 10 48 -1 155 -7 72 -16 168 -20 212
l-7 80 -67 0 c-65 0 -68 1 -120 46 l-53 46 13 59 c11 55 10 61 -8 87 l-21 27
61 115 c57 105 64 115 90 115 22 0 37 -11 65 -44z"/>
<path d="M1412 1880 c-29 -4 -38 -13 -70 -74 l-36 -69 37 -71 c48 -93 75 -136
85 -136 4 0 15 35 24 78 13 63 14 97 7 173 -5 52 -11 96 -12 99 -1 3 -17 3
-35 0z"/>
</g>
</svg>
