<?xml version="1.0" standalone="no"?>
<!DOCTYPE svg PUBLIC "-//W3C//DTD SVG 20010904//EN"
 "http://www.w3.org/TR/2001/REC-SVG-20010904/DTD/svg10.dtd">
<svg version="1.0" xmlns="http://www.w3.org/2000/svg"
 width="509.000000pt" height="356.000000pt" viewBox="0 0 509.000000 356.000000"
 preserveAspectRatio="xMidYMid meet">
<metadata>
Created by potrace 1.15, written by Peter Selinger 2001-2017
</metadata>
<g transform="translate(0.000000,356.000000) scale(0.100000,-0.100000)"
fill="#000000" stroke="none">
<path d="M3920 3279 c0 -6 -9 -9 -20 -6 -21 5 -115 -62 -153 -109 -32 -40
-166 -106 -232 -114 -58 -7 -97 -18 -160 -45 -16 -8 -62 -16 -102 -19 -39 -2
-82 -11 -95 -19 -13 -8 -34 -18 -48 -22 -14 -4 -42 -23 -62 -41 -20 -18 -56
-43 -80 -55 -24 -12 -56 -32 -73 -44 -32 -24 -120 -65 -139 -65 -14 0 -46 -62
-46 -88 0 -10 -7 -28 -17 -41 -9 -13 -29 -55 -43 -94 l-28 -70 30 -43 c32 -47
45 -52 158 -58 69 -3 89 -19 30 -24 -108 -7 -114 -10 -215 -97 -119 -103 -157
-119 -260 -113 -64 4 -82 10 -118 35 -50 36 -86 43 -267 49 -74 3 -139 10
-144 15 -6 5 -22 9 -37 9 -40 0 -88 20 -100 41 -8 16 -21 19 -75 19 -57 0 -71
-4 -108 -30 -51 -37 -78 -33 -69 11 4 21 -1 37 -19 61 -49 64 -108 170 -108
193 0 15 8 26 20 30 11 4 20 15 20 26 0 13 6 19 17 17 26 -4 18 71 -8 90 -12
9 -18 20 -14 31 5 15 -3 19 -47 24 -118 15 -168 3 -168 -39 0 -7 -10 -16 -22
-18 -43 -9 -108 -11 -108 -4 0 5 -9 8 -20 8 -11 0 -20 5 -20 10 0 6 -17 10
-39 10 -69 0 -102 11 -112 38 -8 20 -14 23 -38 19 -20 -4 -31 -2 -35 8 -3 8
-15 15 -26 15 -17 0 -20 -6 -20 -44 0 -42 2 -45 36 -56 40 -13 54 -40 54 -101
0 -26 -7 -46 -20 -59 -23 -23 -26 -55 -6 -63 13 -5 20 -27 35 -122 10 -64 18
-82 40 -88 9 -2 37 -34 61 -71 24 -36 48 -66 53 -66 4 0 6 -8 3 -18 -4 -12 6
-35 26 -63 33 -46 35 -61 28 -214 -2 -49 10 -115 22 -115 6 0 7 7 3 18 -15 34
-23 117 -12 130 6 8 7 42 4 87 -6 64 -4 76 11 84 16 9 16 10 -1 16 -9 4 -24 5
-32 1 -17 -6 -44 40 -38 67 3 10 -1 17 -10 17 -8 0 -20 14 -27 30 -7 17 -16
30 -19 30 -4 0 -17 18 -30 40 -12 22 -28 40 -36 40 -20 0 -26 14 -36 78 -15
99 -21 123 -35 129 -15 6 -19 33 -6 33 14 0 32 48 32 85 0 54 -17 85 -55 101
-31 12 -35 19 -35 49 0 24 5 35 15 35 8 0 15 -7 15 -15 0 -13 7 -15 34 -10 28
6 34 4 39 -14 6 -26 45 -41 103 -41 31 0 46 -5 51 -16 3 -8 12 -13 19 -10 8 3
14 2 14 -3 0 -8 81 -5 128 5 13 2 22 12 22 22 0 40 39 50 144 36 33 -5 46 -11
46 -23 0 -9 9 -22 20 -29 13 -8 20 -23 20 -43 0 -17 -4 -28 -10 -24 -5 3 -12
-5 -16 -19 -3 -14 -15 -28 -25 -31 -24 -8 -27 -76 -3 -96 8 -7 26 -34 39 -59
13 -26 36 -61 51 -79 21 -25 25 -38 20 -65 -6 -30 -4 -34 19 -40 18 -5 36 1
66 24 35 25 51 30 99 30 40 0 62 -5 71 -16 21 -25 72 -48 103 -46 15 2 34 -2
40 -7 6 -5 70 -12 141 -14 170 -6 224 -16 272 -53 36 -28 43 -29 138 -29 93 0
103 2 145 29 24 16 56 39 70 52 128 116 142 124 223 124 110 0 93 42 -18 47
-107 4 -118 9 -143 57 -27 51 -26 59 24 159 19 37 34 75 34 85 1 37 28 64 92
91 35 15 84 41 109 58 24 17 59 38 78 48 18 9 43 28 55 42 12 14 37 31 56 38
19 7 53 20 75 29 22 8 65 15 95 16 32 0 63 7 74 15 11 8 32 15 46 15 14 0 31
5 38 12 7 7 40 15 74 19 87 9 167 47 238 114 73 68 134 113 148 108 7 -3 19 0
27 7 19 16 35 4 35 -26 0 -13 4 -24 9 -24 12 0 121 -108 121 -119 0 -5 16 -15
35 -21 45 -15 81 -63 90 -120 4 -25 18 -63 31 -86 28 -48 29 -54 9 -54 -8 0
-15 -7 -15 -15 0 -8 -7 -15 -15 -15 -9 0 -15 -9 -15 -23 0 -13 -5 -28 -12 -35
-9 -9 -7 -13 7 -18 11 -5 20 -3 23 4 2 7 8 9 14 6 5 -3 2 -14 -8 -25 -9 -10
-18 -35 -20 -56 -2 -21 -6 -50 -10 -65 -4 -19 0 -35 16 -56 18 -24 21 -38 16
-67 -7 -36 -7 -37 18 -31 21 5 26 3 26 -12 0 -10 -11 -29 -24 -42 -40 -37 -42
-70 -7 -128 17 -27 31 -63 31 -79 0 -17 7 -36 15 -43 11 -9 12 -17 4 -32 -8
-15 -14 -17 -22 -9 -18 18 -57 14 -57 -7 0 -10 -6 -26 -14 -37 -7 -11 -17 -40
-21 -65 -17 -106 -66 -170 -129 -170 -14 0 -26 -5 -26 -11 0 -6 -9 -8 -21 -4
-40 13 -58 -46 -22 -68 10 -6 12 -18 8 -38 -6 -25 -4 -29 14 -29 25 0 18 -27
-12 -49 -14 -10 -18 -23 -15 -53 3 -33 0 -40 -18 -44 -12 -3 -31 -16 -42 -29
-11 -12 -26 -25 -33 -27 -11 -4 -12 -11 -3 -36 10 -27 9 -33 -10 -51 -17 -16
-35 -21 -79 -21 -31 0 -58 4 -62 10 -3 5 -12 7 -20 3 -8 -3 -15 0 -15 6 0 6
-11 11 -25 11 -20 0 -25 -5 -25 -26 0 -21 -4 -25 -24 -22 -13 1 -33 -5 -45
-16 -12 -11 -30 -17 -44 -14 -16 3 -28 -1 -36 -14 -9 -15 -19 -17 -46 -12 -30
5 -36 3 -46 -19 -6 -14 -19 -27 -29 -30 -15 -4 -18 -15 -17 -65 1 -41 5 -58
13 -55 7 2 15 -5 19 -16 3 -11 18 -26 32 -33 14 -7 31 -22 37 -33 6 -11 17
-24 24 -30 10 -8 10 -17 1 -43 -9 -25 -9 -40 0 -59 30 -66 -41 -163 -118 -163
-35 0 -40 -3 -50 -32 -11 -31 -3 -47 22 -48 4 0 3 -9 -3 -20 -8 -15 -6 -29 10
-60 l21 -41 -23 -19 c-36 -30 -50 -24 -91 41 -36 58 -38 60 -59 45 -35 -25
-85 -20 -113 10 -13 14 -27 35 -30 45 -4 13 -16 19 -35 19 -16 0 -33 6 -37 14
-4 8 -12 15 -18 15 -5 0 -13 24 -17 52 -12 97 -28 137 -64 160 -25 15 -42 19
-71 13 -21 -4 -44 -11 -50 -16 -7 -6 -19 -8 -27 -5 -17 7 -40 -18 -31 -33 3
-6 -3 -10 -14 -10 -12 0 -21 -7 -21 -15 0 -8 -4 -15 -10 -15 -6 0 -18 -8 -28
-18 -11 -11 -37 -21 -60 -24 l-41 -6 -3 52 -3 51 -42 -3 c-39 -3 -43 -2 -49
25 -3 15 -8 35 -10 45 -3 9 0 19 6 23 16 10 -50 75 -76 75 -26 0 -46 -22 -39
-41 3 -8 1 -20 -4 -28 -7 -10 -13 -11 -30 -2 -18 10 -25 8 -45 -14 -14 -15
-27 -22 -31 -16 -10 18 -86 34 -98 22 -6 -6 -18 -11 -27 -11 -9 0 -27 -11 -40
-25 -13 -14 -29 -24 -34 -21 -6 2 -21 -5 -33 -16 -24 -22 -43 -17 -43 13 0 10
-4 19 -10 19 -5 0 -10 -5 -10 -11 0 -7 -11 -9 -30 -5 -28 5 -30 4 -24 -18 4
-16 1 -25 -11 -30 -12 -4 -18 0 -22 14 -3 11 -13 20 -22 20 -9 0 -28 15 -43
34 -19 24 -33 33 -47 29 -10 -2 -22 0 -25 6 -11 16 -66 14 -66 -3 0 -21 -32
-30 -42 -11 -5 8 -20 15 -34 15 -14 0 -35 5 -47 12 -12 6 -34 11 -49 10 -17
-2 -31 4 -37 16 -15 28 -63 21 -79 -12 -9 -17 -24 -29 -43 -33 -16 -3 -29 -11
-29 -18 0 -6 -9 -20 -20 -30 -17 -15 -24 -16 -45 -7 -14 6 -25 16 -25 22 0 5
-11 10 -23 10 -25 0 -47 33 -47 70 0 11 -5 20 -11 20 -8 0 -8 4 0 14 9 10 8
16 -4 26 -9 7 -14 18 -12 24 3 6 -2 19 -11 29 -17 19 -9 35 10 20 43 -34 118
-5 144 56 15 36 9 44 -20 26 -33 -22 -86 0 -93 38 -3 15 -17 37 -31 48 -22 17
-25 27 -23 68 2 33 -3 53 -13 64 -9 9 -12 18 -7 22 6 3 13 26 17 50 3 25 10
45 14 45 5 0 7 40 7 90 -1 53 -6 90 -12 90 -6 0 -8 -27 -5 -72 4 -40 3 -75 0
-78 -4 -3 -10 -27 -13 -54 -3 -32 -12 -55 -23 -63 -17 -13 -17 -14 5 -29 21
-15 23 -23 19 -71 -4 -50 -3 -56 18 -63 13 -5 27 -24 34 -45 15 -44 67 -73
100 -55 31 17 25 -7 -11 -41 -33 -31 -67 -37 -98 -17 -10 6 -25 8 -34 5 -14
-5 -13 -12 9 -53 14 -27 22 -54 19 -65 -4 -11 -2 -19 5 -19 6 0 10 -6 8 -12
-4 -24 32 -78 52 -78 10 0 23 -7 27 -15 5 -8 23 -17 41 -21 28 -6 34 -3 49 24
10 18 28 33 44 36 18 3 30 15 37 34 8 25 14 29 36 25 14 -3 31 -11 37 -19 6
-8 23 -14 37 -14 27 0 87 -17 112 -31 36 -22 44 -22 61 -1 20 26 42 28 59 7 6
-8 21 -13 33 -12 14 1 28 -9 41 -30 12 -18 27 -30 34 -28 8 3 21 -4 30 -14 13
-15 22 -17 39 -11 14 6 21 15 17 23 -3 10 4 16 20 19 19 4 27 0 31 -13 8 -24
31 -24 52 0 9 11 21 17 27 15 7 -3 23 7 36 21 13 14 34 25 46 25 13 0 26 5 29
10 8 13 55 2 77 -18 15 -13 20 -13 35 -1 10 8 23 20 29 28 8 10 13 11 18 3 4
-7 14 -12 21 -12 17 0 44 49 38 68 -3 7 4 12 17 12 27 0 72 -51 59 -67 -6 -7
-7 -19 -1 -30 5 -10 15 -31 23 -48 15 -30 17 -30 74 -22 6 1 11 -24 13 -55 3
-57 3 -57 28 -48 14 6 39 10 55 10 19 0 29 5 29 15 0 8 7 15 15 15 8 0 20 9
27 20 7 11 21 20 30 20 11 0 18 8 18 20 0 14 7 20 23 20 13 0 27 4 32 9 6 5
27 13 47 16 33 6 41 3 66 -22 31 -30 52 -101 52 -169 0 -27 5 -37 20 -41 11
-3 20 -9 20 -14 0 -5 13 -9 29 -9 22 0 31 -6 41 -30 7 -17 19 -30 26 -30 8 0
14 -7 14 -15 0 -21 87 -21 111 1 16 15 20 12 48 -38 17 -29 31 -56 31 -60 0
-18 57 -6 83 17 l27 24 -24 36 c-20 29 -23 41 -16 61 13 33 13 31 -10 37 -16
4 -18 9 -11 29 6 18 18 24 55 29 37 4 55 13 80 40 37 39 53 97 35 130 -9 17
-8 32 1 62 10 35 10 41 -4 49 -9 5 -16 15 -16 22 0 17 -32 46 -51 46 -17 0
-53 66 -44 80 3 5 1 11 -5 15 -16 10 -12 55 5 55 9 0 21 11 27 25 11 25 32 33
43 15 7 -11 55 8 55 23 0 5 11 7 25 5 16 -3 30 1 42 14 11 13 27 18 48 16 26
-3 30 0 33 25 3 28 26 37 35 13 4 -9 14 -12 25 -9 11 2 23 0 26 -5 5 -9 58 -7
113 4 33 6 59 49 43 69 -15 18 -6 45 14 45 8 0 17 8 21 19 3 10 19 21 36 25
26 5 29 9 23 31 -8 34 3 75 21 75 8 0 15 6 15 14 0 8 3 21 6 30 4 12 0 16 -16
16 -17 0 -20 4 -15 21 4 13 1 27 -10 39 -21 24 -16 55 10 56 11 0 28 4 37 8 9
4 21 5 26 2 5 -3 27 7 49 23 32 23 43 41 61 95 12 37 22 74 22 83 0 9 8 34 18
54 17 39 38 49 60 27 9 -9 15 -8 27 8 18 24 18 29 0 44 -8 7 -15 27 -15 44 0
17 -14 54 -30 81 -16 28 -30 55 -30 62 0 7 14 28 30 46 22 25 30 45 30 71 0
20 -4 36 -10 36 -5 0 -10 -4 -10 -9 0 -5 -6 -11 -14 -14 -11 -5 -13 1 -9 28 4
25 0 42 -17 66 -20 27 -22 36 -12 61 6 16 8 36 5 44 -3 9 4 28 16 44 22 30 19
65 -5 56 -10 -4 -14 3 -14 19 0 16 6 25 15 25 8 0 15 7 15 15 0 8 9 15 20 15
25 0 26 0 -9 59 -16 27 -33 71 -36 98 -8 53 -46 103 -95 123 -15 6 -32 22 -38
36 -7 13 -15 24 -20 24 -17 0 -102 90 -102 109 0 10 -7 22 -16 25 -23 9 -34 7
-34 -5z"/>
</g>
</svg>
