<?xml version="1.0" standalone="no"?>
<!DOCTYPE svg PUBLIC "-//W3C//DTD SVG 20010904//EN"
 "http://www.w3.org/TR/2001/REC-SVG-20010904/DTD/svg10.dtd">
<svg version="1.0" xmlns="http://www.w3.org/2000/svg"
 width="726.000000pt" height="459.000000pt" viewBox="0 0 726.000000 459.000000"
 preserveAspectRatio="xMidYMid meet">
<metadata>
Created by potrace 1.15, written by Peter Selinger 2001-2017
</metadata>
<g transform="translate(0.000000,459.000000) scale(0.100000,-0.100000)"
fill="#000000" stroke="none">
<path d="M2865 4250 c-10 -11 -26 -20 -35 -20 -23 0 -50 -32 -50 -59 0 -12 6
-37 14 -56 13 -31 13 -36 -2 -44 -14 -8 -14 -11 -2 -26 9 -11 10 -19 4 -23 -6
-4 -13 -15 -17 -24 -3 -10 -15 -18 -25 -18 -14 0 -21 -9 -25 -30 -5 -24 -12
-30 -32 -30 -31 0 -42 -23 -25 -55 15 -29 7 -55 -20 -62 -10 -3 -26 -16 -35
-29 -10 -16 -25 -24 -44 -24 -47 0 -61 -10 -61 -43 0 -17 -11 -44 -25 -63 -14
-18 -25 -40 -25 -48 0 -9 -8 -16 -19 -16 -10 0 -30 -9 -44 -20 -14 -11 -30
-20 -36 -20 -14 0 -14 -17 -1 -25 6 -3 10 -21 10 -40 0 -19 5 -37 10 -40 6 -3
10 -16 10 -27 0 -12 9 -31 19 -42 13 -15 17 -30 14 -53 -5 -30 -7 -31 -60 -35
-45 -2 -58 0 -67 15 -6 9 -19 17 -28 17 -18 0 -22 -15 -18 -54 1 -10 -4 -30
-11 -43 -11 -20 -11 -26 1 -34 8 -5 21 -7 27 -4 23 8 35 -32 22 -73 -6 -20
-13 -43 -15 -49 -2 -7 -12 -13 -23 -13 -11 0 -25 -9 -30 -19 -9 -15 -7 -20 10
-24 16 -4 19 -10 14 -29 -10 -32 -13 -34 -35 -20 -11 7 -31 12 -44 12 -19 0
-23 -4 -19 -21 4 -15 0 -22 -15 -26 -12 -3 -27 -19 -33 -37 -11 -29 -79 -86
-79 -66 0 6 -7 10 -15 10 -8 0 -15 7 -15 15 0 8 -6 15 -12 15 -7 0 -23 3 -35
6 -17 5 -23 2 -23 -10 0 -13 -11 -16 -59 -16 -50 0 -59 -3 -64 -20 -3 -13 -14
-20 -30 -20 -14 0 -27 -3 -29 -7 -1 -5 -25 -16 -51 -25 -44 -16 -51 -16 -87
-2 -49 20 -82 15 -95 -13 -10 -24 -28 -32 -19 -9 3 7 -1 16 -10 19 -8 3 -17
-1 -20 -9 -3 -8 -15 -14 -26 -14 -26 0 -46 -47 -31 -72 12 -20 5 -48 -13 -48
-25 1 -46 28 -46 62 0 32 -14 58 -32 58 -4 0 -8 -6 -8 -14 0 -18 -50 -50 -75
-48 -10 0 -25 -4 -32 -9 -6 -6 -16 -9 -20 -6 -4 3 -23 -8 -42 -24 -30 -25 -33
-30 -20 -45 10 -12 14 -47 14 -123 0 -89 -3 -108 -18 -121 -9 -8 -19 -31 -21
-49 -2 -23 -10 -38 -23 -44 -23 -10 -20 -57 4 -57 9 0 13 -6 10 -14 -7 -18 7
-23 96 -32 62 -6 67 -8 67 -30 0 -14 6 -24 14 -24 21 0 38 -26 46 -70 7 -36 5
-40 -12 -40 -14 0 -18 -5 -14 -16 3 -9 6 -27 6 -40 0 -30 25 -32 36 -1 6 17 8
9 11 -33 2 -30 9 -60 15 -68 9 -10 4 -21 -20 -45 -35 -36 -41 -62 -17 -71 13
-5 13 -10 -2 -41 -9 -19 -22 -35 -29 -35 -9 0 -11 -11 -7 -35 5 -34 4 -35 -25
-35 -26 0 -33 -5 -43 -34 -8 -22 -21 -37 -36 -41 -19 -4 -23 -12 -23 -46 0
-53 -15 -79 -45 -79 -14 0 -25 -6 -25 -13 0 -7 -9 -21 -21 -31 -20 -16 -21
-28 -5 -67 5 -10 -3 -28 -20 -48 -23 -28 -25 -35 -15 -58 6 -14 9 -34 6 -45
-5 -15 2 -22 34 -36 22 -9 41 -22 41 -28 0 -7 19 -18 43 -25 34 -9 49 -21 66
-51 12 -21 33 -44 46 -50 13 -6 25 -18 28 -28 5 -21 58 -34 72 -17 6 7 17 11
27 9 9 -2 19 2 23 7 3 6 22 11 41 11 19 0 45 7 59 16 21 14 26 14 55 -1 17 -9
35 -13 40 -10 6 3 14 -5 19 -18 16 -41 71 -46 71 -6 0 10 9 23 20 29 15 8 24
6 39 -9 18 -18 36 -20 166 -22 80 -1 148 1 151 4 3 3 -2 26 -11 52 -8 26 -13
50 -10 53 2 3 0 11 -6 18 -9 11 -7 15 5 20 11 4 15 13 11 25 -8 26 3 59 20 59
8 0 29 -7 47 -14 18 -8 55 -18 81 -21 33 -4 58 -16 82 -36 30 -27 36 -29 56
-17 17 10 23 10 26 1 3 -8 24 -13 55 -13 61 0 108 -25 108 -57 0 -30 45 -61
68 -46 10 5 51 9 92 8 61 -1 76 -4 78 -18 2 -9 10 -17 18 -17 8 0 14 -7 14
-15 0 -9 7 -18 15 -21 8 -4 15 -16 15 -28 0 -12 6 -31 14 -41 12 -17 18 -18
40 -7 15 6 26 20 26 31 0 28 66 34 100 9 16 -11 48 -20 85 -22 33 -3 63 -5 68
-5 4 -1 7 -12 7 -26 0 -20 5 -25 26 -25 l27 0 -26 -24 c-24 -23 -46 -90 -33
-103 3 -3 29 -8 57 -11 32 -3 66 -14 87 -28 19 -13 44 -24 56 -24 20 0 56 -53
56 -84 0 -7 10 -22 23 -34 37 -35 89 -21 139 40 32 37 46 47 61 42 11 -3 37
-1 58 6 34 11 44 10 103 -14 37 -14 74 -26 84 -26 9 -1 31 -19 47 -40 25 -33
36 -39 66 -40 24 0 39 5 42 15 5 11 19 13 72 8 l66 -6 -10 25 c-8 21 -5 31 18
58 25 30 31 33 69 28 39 -6 44 -3 71 29 27 33 33 35 70 30 34 -4 41 -2 47 15
4 14 9 17 16 10 6 -6 26 -8 45 -5 31 5 38 2 65 -31 22 -27 34 -34 41 -27 6 6
28 11 50 11 21 0 37 3 35 8 -2 4 -13 27 -25 52 -12 25 -24 53 -27 63 -4 11
-16 17 -35 17 -19 0 -34 7 -40 19 -6 10 -15 89 -22 176 -8 122 -8 175 1 236
10 61 10 88 0 126 -11 41 -10 57 3 104 18 61 56 146 90 199 29 46 196 210 214
210 8 0 28 7 44 16 28 14 32 14 48 0 26 -24 68 -20 82 7 22 43 142 157 166
157 13 0 23 5 23 10 0 6 22 23 48 40 26 16 62 46 79 67 49 62 143 119 207 127
63 8 102 -5 91 -32 -4 -9 -9 -21 -11 -27 -2 -5 5 -21 16 -33 27 -33 113 -38
118 -7 3 19 62 65 83 65 5 0 9 4 9 9 0 5 16 15 36 21 22 7 39 21 44 36 7 16
17 24 34 24 16 0 26 7 30 23 9 33 8 36 -14 30 -32 -9 -37 24 -7 55 14 15 27
36 29 47 4 26 60 32 93 11 42 -27 51 -21 51 37 0 31 6 61 15 74 10 15 14 42
13 88 -2 54 0 67 14 72 22 9 72 58 72 72 0 6 7 11 15 11 9 0 23 16 32 35 9 19
25 37 35 41 20 6 25 44 6 44 -7 1 -26 21 -41 45 -17 26 -36 45 -47 45 -31 0
-45 29 -42 87 4 59 -12 113 -34 113 -8 0 -14 7 -14 15 0 23 -30 65 -46 65 -8
0 -17 7 -20 15 -4 8 -16 15 -29 15 -13 0 -25 7 -29 15 -3 8 -17 20 -31 25 -14
5 -25 13 -25 17 0 5 -13 8 -29 8 -27 0 -30 -4 -36 -42 -5 -35 -10 -43 -27 -43
-18 0 -19 4 -14 34 8 42 2 46 -51 39 -36 -5 -43 -10 -59 -44 -25 -57 -37 -63
-76 -43 -18 9 -39 25 -46 35 -6 9 -28 23 -46 29 -28 9 -40 8 -65 -5 -17 -8
-31 -14 -31 -13 0 2 4 29 10 61 8 49 6 63 -9 90 -9 18 -27 36 -39 42 -14 6
-22 19 -22 35 0 28 -27 109 -42 127 -5 6 -15 10 -22 7 -12 -5 -36 48 -36 79 0
25 -24 97 -32 97 -4 0 -4 16 -1 35 5 31 3 35 -17 35 -17 0 -21 4 -17 20 4 15
0 20 -14 20 -24 0 -68 38 -80 68 -6 17 -16 22 -42 22 -26 0 -36 6 -45 25 -9
20 -19 25 -46 25 -35 0 -46 -13 -46 -51 0 -16 -7 -19 -40 -19 -27 0 -43 -5
-46 -15 -10 -25 -20 -17 -43 38 -13 28 -27 60 -32 69 -5 10 -9 29 -9 42 0 14
-11 36 -25 50 -25 25 -26 25 -45 6 -11 -11 -27 -20 -35 -20 -9 0 -18 -7 -21
-15 -5 -11 -10 -13 -19 -5 -19 16 -45 1 -45 -27 0 -60 -38 -84 -74 -48 -14 14
-29 25 -35 25 -8 0 -18 -28 -27 -78 -1 -7 -13 -27 -27 -45 -17 -22 -27 -52
-32 -94 -4 -34 -13 -67 -20 -73 -8 -7 -19 -27 -25 -46 -22 -66 -45 -36 -54 69
-8 95 -12 106 -36 100 -15 -4 -21 6 -36 56 -16 54 -21 61 -44 61 -14 0 -31 -5
-37 -11 -7 -7 -12 1 -17 28 -5 33 -35 83 -49 83 -2 0 -10 -14 -17 -30 -7 -17
-22 -33 -36 -36 -13 -3 -26 -15 -29 -25 -4 -10 -13 -19 -21 -19 -8 0 -14 -10
-14 -23 0 -13 -6 -32 -14 -42 -8 -11 -12 -24 -10 -30 3 -6 -4 -20 -16 -30 -12
-11 -20 -31 -20 -51 0 -22 -7 -39 -23 -51 -12 -10 -31 -37 -41 -60 l-19 -43
-69 0 c-54 0 -68 3 -68 15 0 12 -10 14 -44 11 -53 -5 -86 -21 -86 -41 0 -17
-9 -19 -29 -6 -8 5 -12 18 -8 31 6 22 -10 70 -23 70 -11 0 -3 79 10 95 16 20
5 62 -20 75 -11 6 -20 15 -20 21 0 6 -9 22 -20 36 -22 28 -27 63 -9 63 6 0 1
12 -10 26 -12 15 -21 37 -21 50 0 32 -29 38 -81 14 -38 -17 -45 -18 -55 -5
-17 23 -31 18 -70 -20 -29 -29 -42 -35 -71 -33 -24 1 -40 9 -50 25 -9 13 -20
23 -27 23 -6 0 -24 16 -39 35 -40 50 -66 64 -129 70 -46 4 -58 2 -73 -15z m55
1 c0 -5 17 -7 38 -4 35 5 41 1 85 -46 26 -28 52 -51 57 -51 5 0 17 -12 28 -28
14 -19 28 -27 49 -26 36 1 91 32 99 56 7 22 30 23 42 2 8 -14 14 -14 60 6 56
24 72 21 72 -14 0 -13 7 -29 15 -36 9 -7 12 -22 9 -39 -6 -28 23 -83 66 -126
23 -24 25 -36 8 -53 -16 -16 -17 -104 -1 -120 7 -7 13 -30 13 -50 1 -27 7 -42
25 -55 24 -17 25 -17 31 7 8 33 21 42 72 50 34 5 42 3 42 -9 0 -12 15 -15 78
-15 l77 0 18 44 c10 25 29 52 43 61 17 11 24 25 24 49 0 18 8 44 18 57 11 13
25 45 32 71 8 26 18 45 22 42 4 -3 13 6 19 20 7 14 21 28 31 32 11 3 24 17 30
30 6 13 14 24 18 24 15 0 32 -31 35 -64 5 -47 15 -64 27 -42 5 9 19 16 31 16
18 0 26 -11 43 -63 17 -52 24 -62 41 -59 20 3 22 -4 28 -82 6 -69 11 -88 30
-106 l22 -21 22 51 c12 27 25 50 30 50 5 0 12 30 16 67 6 54 13 74 36 101 17
19 29 44 29 60 0 47 14 57 38 28 11 -14 27 -26 36 -26 23 0 56 41 56 70 0 33
9 43 26 29 10 -8 20 -6 40 10 15 12 33 21 40 21 8 0 14 5 14 10 0 6 11 3 25
-6 17 -11 25 -25 25 -45 0 -15 5 -31 10 -34 6 -3 10 -15 10 -26 0 -28 38 -99
57 -106 9 -4 19 1 25 10 6 11 22 17 48 17 36 0 39 2 42 33 3 28 7 32 34 35 24
2 33 -2 42 -23 9 -20 19 -25 47 -25 25 0 35 -4 35 -16 0 -20 61 -79 78 -76 6
2 12 -6 12 -18 0 -14 7 -20 21 -20 18 0 21 -4 16 -30 -4 -16 -2 -32 4 -36 6
-3 8 -11 6 -18 -3 -6 1 -20 9 -31 8 -10 14 -32 14 -47 0 -40 27 -89 47 -86 12
2 20 -8 27 -34 6 -20 14 -40 19 -44 4 -4 7 -22 7 -40 0 -26 6 -36 28 -46 15
-8 27 -21 27 -32 0 -11 6 -21 13 -24 6 -2 9 -8 6 -14 -7 -11 -13 -109 -7 -120
2 -4 18 0 36 8 29 14 36 14 70 -1 20 -8 37 -20 37 -25 0 -10 71 -50 89 -50 6
0 22 23 36 50 20 39 31 50 50 52 14 0 31 1 37 2 9 1 12 -11 10 -36 -3 -36 -2
-38 26 -38 27 0 30 4 36 40 5 34 10 40 31 40 14 0 25 -4 25 -10 0 -5 9 -10 19
-10 11 0 23 -9 26 -20 4 -12 15 -20 30 -20 12 0 25 -7 29 -15 3 -8 14 -15 24
-15 18 0 42 -37 42 -65 0 -8 6 -15 13 -15 24 0 39 -41 36 -99 -4 -63 12 -101
41 -101 10 0 27 -12 37 -26 10 -15 28 -38 41 -51 l23 -25 -24 -22 c-14 -13
-28 -33 -32 -44 -3 -13 -15 -22 -26 -22 -12 0 -19 -7 -19 -20 0 -11 -6 -20
-14 -20 -8 0 -16 -7 -20 -15 -3 -8 -16 -20 -30 -26 -24 -11 -40 -42 -28 -54
10 -10 2 -86 -15 -137 -8 -26 -12 -59 -9 -73 7 -29 5 -30 -35 -9 -42 21 -103
15 -108 -11 -2 -11 -14 -33 -27 -48 -13 -16 -24 -36 -24 -46 0 -23 19 -41 36
-34 10 4 12 0 8 -10 -3 -9 -18 -17 -32 -19 -18 -2 -28 -10 -30 -24 -3 -24 -60
-48 -87 -37 -14 5 -17 3 -13 -9 4 -10 -6 -23 -33 -39 -27 -17 -39 -31 -39 -48
0 -22 -3 -23 -42 -17 -53 8 -83 38 -67 68 9 17 7 24 -10 41 -19 19 -25 20 -89
10 -59 -9 -80 -18 -138 -61 -39 -28 -76 -63 -84 -77 -8 -15 -30 -35 -50 -45
-19 -10 -44 -27 -54 -39 -11 -12 -29 -21 -40 -21 -23 0 -148 -121 -159 -153
-10 -26 -36 -32 -67 -14 -25 15 -31 15 -71 0 -24 -9 -57 -28 -74 -41 -45 -35
-155 -144 -155 -153 0 -4 -11 -21 -25 -37 -31 -37 -78 -141 -95 -210 -10 -43
-10 -62 0 -97 10 -36 10 -61 0 -124 -9 -60 -10 -114 -1 -230 6 -83 11 -158 11
-165 0 -24 30 -46 61 -46 19 0 29 -5 29 -15 0 -9 9 -34 21 -56 11 -23 19 -42
17 -44 -2 -1 -22 -5 -46 -9 -40 -6 -44 -5 -60 24 -15 27 -22 31 -57 29 -23 -2
-46 0 -52 4 -7 4 -16 -1 -22 -11 -7 -14 -18 -18 -35 -15 -35 7 -76 -4 -76 -21
0 -17 -34 -48 -43 -39 -4 3 -22 6 -41 5 -49 -2 -99 -51 -90 -88 l7 -26 -60 7
c-50 5 -61 4 -66 -9 -10 -25 -58 -19 -89 11 -15 15 -28 33 -28 40 0 7 -12 13
-27 14 -16 0 -59 13 -98 29 -64 26 -72 27 -94 13 -15 -9 -35 -13 -55 -9 -26 5
-36 2 -54 -19 -12 -14 -22 -29 -22 -34 0 -15 -28 -33 -64 -41 -29 -6 -38 -4
-55 14 -12 12 -21 27 -21 32 0 5 -9 28 -20 49 -16 32 -25 39 -44 37 -14 -2
-35 7 -54 22 -22 19 -41 26 -73 26 -24 0 -50 4 -58 9 -19 12 -6 63 25 91 31
30 30 40 -1 40 -20 0 -25 5 -25 25 0 14 -6 25 -12 26 -106 6 -133 11 -156 27
-16 11 -43 17 -67 16 -35 -1 -40 -4 -43 -27 -6 -49 -62 -37 -62 14 0 9 -7 22
-15 29 -8 7 -15 19 -15 26 0 8 -7 14 -15 14 -8 0 -15 7 -15 15 0 21 -40 35
-62 21 -12 -7 -29 -7 -56 0 -30 8 -43 7 -61 -4 -19 -13 -24 -13 -41 3 -11 10
-20 26 -20 36 0 27 -61 59 -112 59 -28 0 -50 6 -58 15 -9 11 -16 12 -29 3 -15
-9 -25 -6 -52 15 -22 17 -54 28 -89 33 -30 4 -67 13 -82 20 -48 24 -66 18 -73
-23 -4 -21 -9 -45 -12 -53 -9 -23 -12 -70 -4 -70 6 0 31 -57 31 -71 0 -9 -285
3 -289 12 -2 6 -14 15 -28 20 -29 11 -50 -2 -64 -39 -11 -28 -29 -25 -46 9 -7
13 -22 25 -33 25 -12 1 -32 7 -46 15 -21 11 -29 10 -53 -4 -16 -9 -43 -17 -59
-17 -17 0 -34 -5 -38 -11 -3 -6 -17 -8 -30 -5 -17 5 -24 2 -24 -7 0 -21 -52
-8 -57 14 -3 9 -15 20 -26 23 -25 6 -67 63 -67 90 0 12 -5 16 -19 11 -20 -6
-71 13 -71 26 0 5 -18 18 -40 29 -24 12 -37 25 -34 33 3 8 0 26 -6 42 -9 25
-7 32 16 56 24 25 25 31 15 60 -10 28 -9 35 9 51 11 10 20 23 20 28 0 6 11 10
24 10 31 0 39 13 46 75 4 41 9 51 26 53 13 2 23 14 30 35 7 27 15 33 43 35 31
3 33 5 29 38 -2 21 0 33 6 31 6 -2 19 17 29 42 15 41 15 47 2 57 -21 15 -19
19 17 53 29 27 30 31 19 60 -7 16 -11 51 -9 76 3 44 -4 53 -28 37 -6 -4 -13
-14 -16 -22 -3 -8 -7 0 -10 18 -4 28 -2 32 19 32 13 0 23 5 23 10 0 6 -4 10
-10 10 -5 0 -10 11 -10 24 0 39 -19 77 -40 83 -13 3 -20 14 -20 29 0 21 -5 24
-34 24 -19 0 -37 4 -40 9 -3 5 -24 7 -46 4 -36 -5 -40 -3 -40 16 0 12 -6 21
-15 21 -8 0 -15 5 -15 10 0 6 5 10 11 10 5 0 8 4 5 9 -3 5 0 11 8 14 8 3 14
20 14 40 0 24 8 42 27 61 22 22 24 30 15 42 -9 9 -10 30 -6 62 14 95 12 123
-7 134 -18 9 -18 11 3 33 21 22 70 40 99 36 7 -2 30 11 51 28 42 34 50 32 50
-15 0 -25 7 -38 31 -54 29 -22 31 -22 44 -4 17 23 19 51 4 56 -6 2 -8 14 -4
31 5 20 13 27 31 27 13 0 24 5 24 10 0 6 4 10 10 10 5 0 7 -7 4 -15 -4 -10 0
-15 14 -15 13 0 22 9 26 25 8 30 38 33 91 8 33 -16 37 -16 70 0 19 9 41 14 49
11 7 -3 16 2 19 10 4 9 17 16 31 16 16 0 27 7 31 20 5 17 15 20 61 20 40 0 56
4 60 15 11 27 84 -14 84 -46 0 -6 15 0 33 13 17 13 40 27 50 31 9 4 17 10 16
14 -4 27 4 45 26 55 14 6 25 19 25 30 0 22 32 24 50 4 17 -21 38 -9 46 27 5
22 2 34 -10 42 -18 14 -11 25 15 25 17 0 31 25 34 63 1 10 6 22 12 28 16 16
-17 71 -39 65 -22 -5 -34 12 -19 27 6 6 11 28 11 49 0 42 10 48 31 19 12 -16
23 -18 75 -14 l62 5 5 42 c5 32 2 46 -14 62 -10 11 -19 30 -19 42 0 11 -5 24
-11 28 -6 3 -9 17 -6 30 2 13 -2 29 -10 35 -11 10 -7 16 20 34 18 13 44 25 58
27 18 2 23 8 21 23 -1 12 8 31 23 45 17 16 25 34 25 56 0 33 13 44 54 44 12 0
33 11 46 25 12 13 26 22 30 20 11 -7 40 40 40 64 0 11 -5 21 -12 23 -21 7 0
38 26 38 19 0 26 7 31 30 4 20 13 30 25 30 10 0 22 9 25 20 3 11 13 20 21 20
17 0 18 5 2 30 -11 17 -10 22 0 29 11 7 11 15 -2 46 -25 60 -21 84 17 100 19
8 39 21 47 29 13 17 50 22 50 7z"/>
</g>
</svg>
