<?xml version="1.0" standalone="no"?>
<!DOCTYPE svg PUBLIC "-//W3C//DTD SVG 20010904//EN"
 "http://www.w3.org/TR/2001/REC-SVG-20010904/DTD/svg10.dtd">
<svg version="1.0" xmlns="http://www.w3.org/2000/svg"
 width="523.000000pt" height="385.000000pt" viewBox="0 0 523.000000 385.000000"
 preserveAspectRatio="xMidYMid meet">
<metadata>
Created by potrace 1.15, written by Peter Selinger 2001-2017
</metadata>
<g transform="translate(0.000000,385.000000) scale(0.100000,-0.100000)"
fill="#000000" stroke="none">
<path d="M2944 3547 c-5 -15 -13 -18 -40 -15 -36 4 -44 -5 -44 -49 0 -21 -3
-24 -22 -19 -13 3 -38 6 -56 6 -18 0 -31 4 -27 9 3 5 0 22 -7 36 -11 24 -16
26 -46 21 -19 -3 -44 0 -55 5 -29 16 -49 -9 -51 -67 -2 -27 -6 -56 -10 -64 -9
-20 14 -51 39 -52 11 -1 32 2 48 5 24 7 27 5 27 -17 0 -34 10 -56 25 -56 8 0
14 -20 18 -57 5 -61 -7 -91 -24 -60 -12 21 -42 22 -60 1 -10 -12 -28 -15 -81
-12 -47 2 -68 -1 -68 -9 0 -6 -13 -21 -30 -33 -25 -18 -32 -19 -50 -8 -18 11
-23 10 -34 -4 -7 -10 -25 -22 -40 -28 l-28 -10 23 -19 23 -19 -51 -26 c-29
-14 -54 -22 -57 -17 -3 4 -17 6 -31 4 -19 -4 -26 -13 -31 -40 -4 -23 -2 -38 5
-43 9 -5 9 -13 0 -33 -9 -20 -20 -27 -41 -27 -19 0 -28 -5 -28 -16 0 -13 -8
-15 -37 -12 -21 3 -47 8 -57 13 -17 7 -18 5 -12 -18 4 -19 -1 -42 -20 -79
l-26 -52 36 -29 c40 -32 46 -48 16 -40 -16 4 -20 0 -20 -21 0 -29 -25 -35 -63
-14 -12 6 -39 15 -59 18 -32 6 -37 4 -42 -14 -9 -34 -7 -45 14 -66 l21 -21
-23 6 c-13 3 -30 1 -38 -5 -12 -8 -13 -13 -2 -30 6 -11 12 -31 12 -44 0 -41
51 -64 132 -61 63 3 67 1 58 -16 -8 -14 -6 -23 10 -39 11 -11 20 -25 20 -31 0
-6 6 -9 14 -6 10 4 15 -8 20 -45 9 -64 -4 -80 -58 -76 -38 3 -41 1 -40 -22 1
-18 -8 -33 -34 -52 -47 -37 -77 -37 -91 2 -7 23 -16 30 -35 30 -23 0 -26 4
-26 34 0 40 -25 55 -60 36 -17 -9 -26 -7 -47 9 -31 25 -42 26 -57 5 -20 -26
-59 -8 -77 36 -14 32 -15 40 -3 44 19 7 18 46 -1 46 -8 0 -20 -9 -27 -20 -14
-22 -39 -26 -66 -9 -13 8 -32 4 -85 -20 -38 -17 -77 -31 -87 -31 -11 0 -31
-11 -46 -25 -15 -14 -30 -25 -35 -25 -4 0 -10 24 -14 52 -4 30 -15 58 -24 65
-9 7 -44 13 -77 13 l-62 0 -4 -42 c-3 -25 1 -54 9 -70 7 -15 13 -34 13 -43 0
-8 6 -15 13 -15 24 0 39 -41 36 -99 -4 -63 12 -101 41 -101 10 0 27 -12 37
-26 10 -15 28 -38 41 -51 l23 -25 -24 -22 c-14 -13 -28 -33 -32 -44 -3 -13
-15 -22 -26 -22 -12 0 -19 -7 -19 -20 0 -11 -6 -20 -14 -20 -8 0 -16 -7 -20
-15 -3 -8 -16 -20 -30 -26 -24 -11 -40 -42 -28 -54 10 -10 2 -86 -15 -137 -8
-26 -12 -59 -9 -73 7 -29 5 -30 -35 -9 -42 21 -103 15 -108 -11 -2 -11 -14
-33 -27 -48 -13 -16 -24 -36 -24 -46 0 -23 19 -41 36 -34 10 4 12 0 8 -10 -3
-9 -18 -17 -32 -19 -18 -2 -28 -10 -30 -24 -3 -24 -60 -48 -87 -37 -14 5 -17
3 -13 -9 4 -10 -6 -23 -33 -39 -29 -18 -39 -31 -39 -51 0 -17 6 -29 18 -32 24
-7 166 -7 237 0 52 5 64 3 88 -16 30 -24 34 -42 12 -60 -45 -38 3 -61 137 -66
60 -2 118 -9 129 -15 15 -8 25 -7 37 2 37 28 56 64 28 53 -7 -3 -21 3 -31 12
-16 17 -16 18 7 35 12 10 28 19 34 19 7 0 14 6 17 14 9 22 61 5 65 -21 2 -12
12 -29 23 -39 10 -9 19 -25 19 -34 0 -32 23 -39 127 -36 90 2 106 5 141 28
l39 26 28 -22 c23 -19 27 -28 22 -53 -4 -19 -1 -38 8 -49 12 -16 12 -22 -1
-41 -17 -27 -8 -56 15 -48 9 2 46 1 83 -3 45 -6 71 -5 78 2 8 8 13 8 18 0 14
-21 73 -49 80 -38 4 6 22 14 39 17 30 6 33 4 39 -21 9 -34 20 -42 62 -42 22 0
32 -5 32 -15 0 -9 9 -15 21 -15 19 0 20 -4 15 -35 -5 -24 -3 -35 5 -35 7 0 21
-8 32 -17 18 -17 20 -17 37 5 10 12 25 22 34 22 18 0 32 20 19 29 -15 10 -25
44 -11 35 7 -4 32 -7 56 -5 37 2 44 0 49 -19 6 -21 20 -22 84 -4 11 3 21 -6
29 -26 7 -16 17 -30 23 -30 6 0 8 -2 5 -5 -3 -3 -17 -1 -32 4 -22 9 -26 8 -26
-7 0 -15 8 -18 35 -18 30 1 35 4 31 20 -9 34 6 75 32 92 38 25 90 35 96 19 3
-8 13 -11 24 -9 10 3 24 -2 31 -10 23 -27 41 -20 35 14 -8 39 10 60 52 60 19
0 34 5 34 10 0 6 13 10 29 10 39 0 61 9 61 26 0 22 51 30 65 10 26 -35 65 10
65 75 0 17 6 32 15 35 17 7 18 13 6 32 -6 11 -17 11 -55 1 -26 -6 -50 -9 -53
-5 -8 7 22 33 55 46 12 5 22 18 22 30 0 13 9 22 25 26 16 4 25 13 25 25 0 10
7 36 15 57 l16 39 54 -5 c37 -3 55 -1 55 7 0 6 6 11 13 11 18 0 57 42 57 61 0
8 7 25 16 38 11 14 13 26 7 30 -7 3 -7 15 -2 28 7 20 16 23 58 23 41 0 51 4
56 20 7 24 37 26 55 5 18 -22 33 -19 20 4 -13 25 -13 82 0 116 9 23 15 27 40
23 26 -4 34 0 51 29 14 22 28 33 44 33 13 0 26 4 29 9 3 5 26 14 50 20 34 8
49 19 66 46 22 36 34 43 45 25 10 -16 25 -12 25 8 0 9 9 23 19 29 17 10 18 18
11 44 -5 17 -14 37 -20 44 -19 23 -7 59 23 73 15 7 27 21 27 32 0 32 22 70 41
70 29 0 71 63 63 95 -5 21 -3 27 15 32 29 7 30 72 1 98 -14 13 -20 31 -20 62
0 39 -2 43 -25 43 -17 0 -29 -8 -36 -24 -7 -15 -17 -22 -26 -19 -16 6 -83 -11
-123 -32 -14 -7 -46 -16 -71 -19 -37 -5 -48 -4 -52 9 -5 10 -20 15 -50 15 -31
0 -49 6 -61 19 -10 11 -23 18 -30 15 -7 -3 -18 7 -26 21 -10 20 -21 25 -49 25
-20 0 -47 7 -59 16 -14 10 -33 14 -47 10 -27 -7 -65 22 -65 50 0 14 -21 41
-87 111 -16 17 -23 36 -23 63 0 36 2 40 26 40 l26 0 -39 44 c-56 63 -66 86
-54 119 7 17 18 27 30 27 23 0 40 25 34 50 -3 10 0 21 6 24 6 4 11 29 11 56 0
27 5 52 12 56 19 12 61 14 73 4 6 -5 17 -5 24 -1 17 11 6 48 -19 61 -11 6 -22
26 -26 46 -4 20 -13 38 -20 41 -11 4 -11 9 0 30 11 22 11 28 -3 42 -9 9 -32
21 -50 28 -27 10 -36 10 -48 -2 -20 -20 -57 -10 -120 32 -50 33 -53 37 -49 71
3 20 -1 43 -9 55 -7 11 -12 24 -10 31 7 19 -19 44 -50 48 -26 3 -30 8 -33 36
-2 17 -9 32 -16 32 -7 0 -19 14 -27 32 -18 37 -65 47 -75 15z m93 -54 c7 -3
13 -18 13 -34 0 -23 5 -30 28 -34 58 -13 62 -20 65 -123 1 -28 5 -52 8 -52 4
0 30 -15 57 -34 63 -42 97 -51 126 -33 18 12 26 12 54 0 28 -11 34 -20 34 -43
0 -3 -3 -15 -7 -27 -5 -17 -2 -23 9 -23 9 0 16 -8 16 -20 0 -28 21 -70 35 -70
15 0 27 -38 15 -45 -5 -3 -11 -1 -14 4 -8 12 -67 11 -83 -2 -7 -5 -13 -31 -13
-58 0 -26 -4 -51 -10 -54 -5 -3 -10 -20 -10 -36 0 -24 -6 -32 -29 -40 -21 -7
-30 -19 -35 -40 -7 -36 3 -57 51 -110 31 -35 33 -39 15 -39 -18 0 -21 -7 -24
-47 -3 -44 0 -50 39 -86 25 -23 40 -44 36 -53 -3 -9 2 -14 15 -14 14 0 21 -9
26 -31 8 -41 33 -60 72 -53 21 4 34 1 43 -10 8 -9 29 -16 51 -16 29 0 41 -6
54 -25 9 -14 25 -25 35 -25 10 0 21 -7 25 -15 4 -10 20 -15 50 -15 34 0 48 -5
55 -19 9 -16 16 -17 53 -9 24 6 58 17 76 26 17 8 35 12 39 9 3 -4 17 0 31 9
15 10 35 14 52 10 24 -4 29 -1 34 19 4 16 13 25 26 25 17 0 20 -7 20 -43 0
-31 6 -49 20 -62 27 -25 27 -72 -1 -80 -17 -6 -20 -12 -15 -39 5 -26 1 -37
-19 -56 -13 -12 -34 -28 -47 -34 -13 -7 -27 -27 -33 -48 -5 -20 -22 -46 -37
-58 -31 -24 -35 -55 -13 -84 8 -11 15 -29 15 -40 -1 -28 -36 -70 -51 -60 -8 4
-25 -7 -44 -30 -31 -37 -111 -75 -160 -76 -14 0 -25 -10 -32 -30 -9 -24 -17
-30 -41 -30 -39 0 -54 -20 -60 -80 -3 -35 -8 -47 -18 -43 -7 3 -24 -7 -37 -21
-20 -21 -34 -26 -71 -26 -50 0 -57 -7 -60 -60 -1 -16 -5 -32 -9 -36 -4 -4 -7
-17 -7 -28 0 -22 -36 -52 -57 -48 -7 2 -13 -5 -13 -14 0 -14 -8 -16 -50 -12
-58 6 -64 1 -82 -65 -9 -36 -18 -49 -35 -53 -14 -4 -23 -14 -23 -25 0 -12 -10
-23 -25 -29 -14 -5 -25 -14 -25 -20 0 -5 -7 -10 -15 -10 -20 0 -19 -29 1 -37
9 -3 32 -1 52 5 38 12 72 -1 39 -14 -12 -4 -17 -18 -17 -43 0 -20 -7 -47 -16
-60 -15 -21 -18 -21 -26 -7 -13 24 -53 20 -84 -9 -18 -16 -39 -25 -60 -25 -19
0 -34 -4 -34 -10 0 -5 -15 -10 -33 -10 -42 0 -57 -15 -57 -59 0 -32 -1 -33
-18 -18 -10 10 -26 17 -35 17 -9 0 -18 4 -21 9 -9 14 -88 -8 -113 -31 -13 -12
-23 -29 -23 -39 0 -29 -16 -30 -29 -3 -7 17 -17 24 -29 21 -62 -17 -71 -17
-77 3 -5 16 -15 20 -55 20 -29 0 -50 5 -53 13 -3 8 -10 7 -23 -7 -14 -13 -15
-20 -6 -23 14 -6 16 -33 2 -33 -6 0 -15 -11 -22 -25 -11 -24 -12 -24 -39 -8
-23 14 -27 21 -22 45 5 24 2 30 -16 35 -11 3 -21 11 -21 19 0 8 -15 14 -42 16
-38 3 -43 6 -52 36 -8 31 -11 32 -45 26 -20 -4 -40 -10 -45 -15 -12 -11 -62
16 -70 37 -5 12 -10 13 -19 6 -9 -8 -159 -10 -185 -3 -1 1 5 15 13 32 15 28
15 32 1 48 -12 13 -14 25 -7 48 8 27 5 33 -26 57 l-34 28 -40 -27 c-23 -15
-52 -25 -67 -24 -15 1 -34 -1 -42 -4 -8 -4 -42 -6 -74 -4 -58 2 -60 4 -83 42
-13 22 -28 52 -34 66 -7 19 -19 28 -42 32 -18 2 -33 1 -35 -4 -2 -5 -21 -19
-43 -31 -46 -25 -49 -41 -13 -64 l25 -17 -20 -20 c-16 -16 -23 -18 -34 -8 -9
7 -60 13 -124 15 -105 4 -153 15 -153 37 0 5 7 12 15 15 23 9 18 42 -11 69
-22 20 -37 25 -83 25 -31 0 -61 -4 -67 -8 -7 -4 -52 -5 -100 -2 -80 4 -89 7
-91 25 -2 13 9 27 33 43 19 12 40 22 45 22 5 0 9 4 9 9 0 5 16 15 36 21 22 7
39 21 44 36 7 17 17 24 35 24 14 0 25 3 25 8 0 4 3 17 6 29 5 18 3 21 -15 16
-33 -9 -38 23 -8 55 14 15 27 36 29 47 4 26 60 32 93 11 42 -27 51 -21 51 37
0 31 6 61 15 74 10 15 14 42 13 88 -2 54 0 67 14 72 22 9 72 58 72 72 0 6 7
11 15 11 9 0 23 16 32 35 9 19 25 37 35 41 20 6 25 44 6 44 -7 1 -26 21 -41
45 -17 26 -36 45 -47 45 -31 0 -45 29 -42 87 4 59 -12 113 -34 113 -8 0 -14 9
-14 19 0 11 -4 23 -10 26 -5 3 -10 28 -10 56 l0 49 51 0 c73 0 85 -10 94 -75
3 -30 10 -57 14 -59 4 -3 23 8 42 24 19 16 44 29 56 30 12 0 34 6 50 14 91 46
106 51 110 39 7 -21 61 -15 75 7 15 24 28 26 28 5 0 -8 -7 -15 -15 -15 -19 0
-19 -34 0 -50 8 -7 15 -18 15 -26 0 -30 65 -45 84 -18 10 14 14 13 38 -5 29
-23 49 -26 64 -11 20 20 44 0 44 -36 0 -30 3 -34 25 -34 17 0 29 -9 40 -30 21
-40 55 -39 105 2 33 26 39 35 33 56 -5 21 -3 24 11 19 10 -4 24 -7 32 -7 7 0
16 -11 20 -25 7 -28 8 -29 35 -15 25 14 24 30 -1 30 -25 0 -26 12 -1 27 17 11
18 17 10 45 -5 18 -9 46 -9 62 0 21 -4 27 -15 22 -8 -3 -15 -1 -15 4 0 5 -9
18 -21 29 -13 12 -17 21 -10 26 6 3 11 13 11 22 0 12 -9 14 -50 8 -35 -5 -50
-3 -50 4 0 8 -6 9 -19 1 -31 -16 -81 17 -79 52 1 14 -4 33 -10 41 -17 20 3 34
23 17 16 -13 35 -6 35 13 0 7 -9 18 -21 25 -13 8 -19 21 -17 35 4 27 47 35 80
13 13 -8 37 -16 53 -18 26 -3 30 0 33 25 3 22 7 27 23 22 12 -4 19 -2 19 7 0
20 -29 58 -45 58 -26 0 -26 20 1 65 15 26 24 54 21 65 -6 23 -6 23 45 11 30
-7 41 -5 57 10 11 11 27 19 34 19 17 0 47 42 47 64 0 8 -5 16 -12 18 -7 3 -9
14 -4 32 6 24 11 27 33 23 30 -6 101 22 123 48 12 15 12 18 -3 27 -16 8 -13
13 20 35 34 23 38 24 49 8 11 -15 16 -13 51 18 34 30 45 34 103 36 44 2 68 7
73 17 11 19 27 18 52 -6 33 -31 44 -9 38 72 -5 53 -9 67 -24 71 -11 3 -19 16
-21 38 l-3 34 -51 -3 c-58 -4 -71 9 -53 56 6 15 11 44 10 64 -1 41 12 56 34
38 9 -8 28 -10 49 -6 28 5 37 3 45 -13 6 -11 8 -27 5 -35 -5 -12 1 -16 22 -16
16 0 46 -3 67 -6 l37 -7 0 38 c0 35 2 37 26 32 17 -3 33 2 44 13 30 30 53 29
69 -3 8 -16 20 -31 28 -34z"/>
<path d="M1456 1206 c3 -8 0 -24 -6 -36 -16 -29 -3 -82 18 -78 29 4 42 -12 42
-52 0 -45 12 -52 67 -40 34 8 123 77 123 96 0 3 -9 17 -19 30 -16 20 -21 22
-28 11 -4 -8 -18 -19 -29 -25 -19 -10 -24 -8 -38 13 -9 13 -16 34 -16 45 0 18
-4 20 -33 15 -25 -5 -37 -2 -51 14 -22 24 -38 28 -30 7z m74 -32 c26 5 30 3
30 -18 0 -33 39 -66 66 -56 12 5 25 14 29 20 5 8 11 8 21 -1 16 -13 19 -39 3
-39 -6 0 -25 -16 -43 -35 -20 -21 -44 -36 -60 -36 -14 -1 -32 -2 -38 -3 -7 -1
-14 13 -15 32 -4 48 -21 74 -43 67 -25 -8 -36 29 -19 61 9 18 15 21 26 13 7
-7 26 -9 43 -5z"/>
<path d="M1328 2461 c-18 -10 -28 -24 -28 -39 0 -13 -12 -35 -27 -49 -15 -16
-21 -29 -15 -31 7 -2 12 -14 12 -27 0 -21 5 -24 53 -27 62 -5 97 18 97 64 0
21 5 28 19 28 20 0 35 25 25 41 -3 5 -16 9 -28 9 -15 0 -26 7 -29 19 -6 25
-46 31 -79 12z m75 -21 c3 -14 14 -20 32 -20 32 0 29 -23 -3 -28 -16 -3 -22
-10 -22 -30 0 -15 -8 -36 -18 -48 -14 -17 -25 -20 -64 -16 -39 3 -47 7 -51 28
-2 13 2 29 9 35 7 6 16 26 20 45 7 38 26 53 65 54 18 0 28 -6 32 -20z"/>
</g>
</svg>
