<?xml version="1.0" standalone="no"?>
<!DOCTYPE svg PUBLIC "-//W3C//DTD SVG 20010904//EN"
 "http://www.w3.org/TR/2001/REC-SVG-20010904/DTD/svg10.dtd">
<svg version="1.0" xmlns="http://www.w3.org/2000/svg"
 width="396.000000pt" height="319.000000pt" viewBox="0 0 396.000000 319.000000"
 preserveAspectRatio="xMidYMid meet">
<metadata>
Created by potrace 1.15, written by Peter Selinger 2001-2017
</metadata>
<g transform="translate(0.000000,319.000000) scale(0.100000,-0.100000)"
fill="#000000" stroke="none">
<path d="M1468 2840 c-96 -7 -110 -19 -181 -152 l-51 -98 -42 0 c-23 0 -61 -3
-86 -6 l-45 -6 -9 -74 c-8 -62 -7 -81 8 -119 16 -42 17 -50 2 -113 -24 -105
-21 -101 -66 -104 -41 -3 -42 -4 -55 -53 -8 -33 -10 -81 -6 -140 5 -75 12
-101 40 -159 19 -37 42 -70 52 -73 10 -3 38 -47 69 -111 50 -105 51 -109 61
-239 12 -168 31 -215 94 -242 41 -18 45 -24 81 -109 l37 -90 58 5 58 5 46 -60
c29 -38 47 -71 47 -88 0 -26 1 -26 46 -21 l46 5 19 -45 c19 -45 20 -46 59 -40
37 5 40 3 40 -20 0 -23 2 -24 46 -17 61 9 266 -48 299 -84 21 -23 24 -23 129
-16 100 6 109 9 118 30 9 18 22 25 58 30 36 5 50 12 58 29 9 18 21 23 79 28
76 7 78 9 125 101 l30 60 -21 247 -21 246 35 92 35 93 -24 94 c-30 117 -74
183 -121 184 -27 0 -35 8 -69 68 -22 37 -58 85 -80 107 -37 35 -44 50 -60 121
-16 69 -23 84 -47 98 -31 18 -34 30 -45 161 -7 95 -54 199 -105 236 -17 12
-40 42 -51 66 -18 42 -20 43 -65 43 -38 0 -53 6 -93 40 l-47 39 -86 -6 c-71
-5 -91 -3 -112 11 -20 13 -44 17 -96 15 -56 -2 -73 1 -92 17 -19 17 -32 19
-99 14z m86 -48 c14 -16 27 -18 90 -14 58 4 78 1 100 -13 22 -15 41 -17 113
-12 l87 5 46 -39 c38 -32 54 -39 88 -39 40 0 43 -2 58 -40 10 -23 29 -47 46
-58 19 -11 42 -41 63 -82 28 -56 34 -81 42 -180 7 -79 14 -115 24 -119 33 -11
56 -50 74 -129 16 -73 22 -85 50 -102 21 -13 51 -53 84 -110 49 -83 54 -89 79
-84 42 9 83 -50 110 -155 l21 -84 -36 -95 -35 -95 21 -244 21 -244 -30 -60
c-34 -67 -54 -79 -131 -79 -43 0 -51 -3 -61 -25 -9 -20 -21 -26 -58 -31 -36
-5 -50 -12 -58 -29 -9 -20 -20 -23 -101 -29 -85 -7 -93 -6 -109 13 -23 28
-242 94 -294 89 -34 -3 -38 -1 -38 20 0 23 -2 24 -45 18 l-45 -7 -20 46 -20
47 -40 -7 c-34 -6 -40 -4 -40 10 0 10 -24 49 -52 87 l-53 69 -57 -3 -57 -3
-36 86 c-34 82 -38 87 -79 103 -59 23 -73 61 -87 229 -10 131 -11 133 -67 250
-37 78 -61 117 -72 117 -9 0 -27 23 -44 57 -34 69 -50 203 -34 270 10 40 12
42 52 45 l41 3 23 95 c23 93 23 96 7 146 -13 38 -16 67 -11 107 8 62 15 67
104 67 64 0 72 8 132 122 55 105 83 128 161 128 42 0 60 -5 73 -18z"/>
</g>
</svg>
