<?xml version="1.0" standalone="no"?>
<!DOCTYPE svg PUBLIC "-//W3C//DTD SVG 20010904//EN"
 "http://www.w3.org/TR/2001/REC-SVG-20010904/DTD/svg10.dtd">
<svg version="1.0" xmlns="http://www.w3.org/2000/svg"
 width="300.000000pt" height="200.000000pt" viewBox="0 0 313.000000 208.000000"
 preserveAspectRatio="xMidYMid meet">
<metadata>
Created by potrace 1.15, written by Peter Selinger 2001-2017
</metadata>
<g transform="translate(0.000000,208.000000) scale(0.100000,-0.100000)"
fill="#000000" stroke="none">
<path d="M823 1872 c-6 -10 -14 -38 -18 -62 -17 -106 -66 -170 -129 -170 -14
0 -26 -5 -26 -11 0 -6 -9 -8 -21 -4 -40 13 -58 -46 -22 -68 10 -6 12 -18 8
-38 -6 -24 -3 -29 13 -29 15 0 18 -5 15 -24 -3 -16 2 -31 16 -45 12 -12 21
-25 21 -31 0 -5 5 -10 11 -10 6 0 8 -8 5 -18 -4 -12 1 -25 13 -36 16 -14 18
-27 14 -76 -5 -52 -3 -59 16 -69 26 -14 26 -26 2 -57 -18 -23 -19 -27 -4 -57
9 -18 19 -39 23 -47 4 -8 11 -14 15 -12 4 2 13 -7 19 -20 6 -13 22 -24 34 -26
17 -3 22 -10 22 -33 0 -22 5 -29 20 -29 32 0 55 -31 52 -67 -4 -37 22 -93 42
-93 8 0 16 -7 20 -15 4 -10 20 -15 51 -15 43 0 45 -1 45 -30 0 -23 4 -30 20
-30 18 0 20 -7 20 -64 0 -39 -4 -66 -11 -68 -9 -3 -8 -10 1 -25 11 -17 22 -21
56 -18 24 2 51 8 61 13 10 5 33 7 51 5 20 -3 32 -1 32 6 0 19 39 51 55 45 8
-4 15 -15 15 -25 0 -20 15 -26 25 -9 4 6 13 9 20 8 8 -2 21 6 29 17 16 20 16
20 34 -1 10 -12 29 -21 42 -20 20 1 25 -4 26 -25 1 -34 11 -49 32 -49 22 0 72
-46 72 -66 0 -21 -15 -48 -45 -80 -14 -15 -25 -31 -25 -35 0 -5 20 -9 45 -9
34 0 45 4 45 15 0 17 39 15 113 -7 33 -10 44 -9 73 7 21 11 33 24 30 32 -4 8
3 13 18 13 19 0 23 -4 19 -19 -8 -29 35 -39 53 -12 8 11 33 25 54 31 26 7 40
17 40 27 0 19 28 42 53 43 10 0 17 8 17 19 0 11 7 26 15 35 18 17 20 53 4 58
-8 3 -10 21 -5 61 7 56 8 56 37 50 18 -3 35 0 46 8 9 8 45 15 82 17 112 4 161
13 161 28 0 8 10 14 24 14 24 0 46 32 27 38 -6 2 -11 16 -11 30 0 15 -4 33 -9
41 -6 10 -3 20 12 32 20 16 20 20 9 40 -13 20 -12 21 7 16 24 -6 41 17 41 53
0 14 8 24 20 27 14 4 19 11 15 23 -3 11 1 20 10 24 10 3 15 15 13 28 -2 19 -9
23 -43 24 -34 0 -41 4 -43 23 -2 13 1 28 7 34 27 27 -8 106 -46 107 -7 0 -13
7 -13 17 0 9 3 13 7 10 10 -11 33 13 33 34 0 12 7 19 20 19 16 0 20 7 20 35 0
19 -4 35 -10 35 -5 0 -10 -4 -10 -10 0 -18 -18 -10 -23 11 -4 15 -12 20 -29
17 -18 -2 -27 5 -41 32 -10 20 -23 34 -32 32 -8 -2 -20 8 -26 22 -8 17 -19 25
-33 23 -15 -1 -22 4 -24 19 -2 12 -13 26 -26 32 -34 15 -68 66 -54 80 8 8 5
23 -12 55 -19 37 -29 45 -66 53 -43 10 -44 10 -44 -14 0 -22 -3 -24 -29 -19
-16 3 -32 3 -36 -1 -3 -4 -12 -7 -18 -7 -7 -1 -33 -5 -58 -9 -36 -6 -54 -4
-78 9 -32 16 -33 16 -52 -9 -27 -35 -56 -33 -96 6 l-33 32 -24 -23 c-20 -19
-28 -21 -45 -12 -13 8 -21 22 -21 38 0 25 -1 26 -16 11 -16 -16 -21 -14 -70
17 -42 27 -60 33 -84 29 -25 -5 -31 -2 -41 20 -15 31 -45 34 -54 5 -5 -15 -13
-20 -28 -15 -12 3 -35 8 -52 12 -16 4 -38 13 -47 22 -10 8 -26 12 -38 9 -13
-3 -20 0 -20 9 0 21 -31 17 -58 -8 -19 -19 -39 -24 -115 -29 -55 -4 -97 -3
-104 3 -6 5 -20 8 -30 6 -25 -4 -43 10 -43 31 0 10 -8 25 -18 34 -16 15 -19
15 -29 -1z m32 -23 c1 -8 7 -24 14 -37 10 -19 18 -22 41 -17 15 3 31 2 34 -3
3 -5 46 -7 98 -4 79 4 97 9 121 28 33 28 47 30 47 9 0 -11 7 -14 23 -10 15 4
29 0 40 -13 12 -13 26 -18 44 -14 18 3 24 1 19 -7 -5 -7 4 -11 28 -11 25 0 38
6 46 20 14 27 28 25 42 -6 11 -22 17 -25 46 -20 27 4 44 -2 87 -30 30 -20 59
-33 64 -29 6 3 11 0 11 -8 0 -7 11 -19 24 -27 21 -11 28 -10 54 9 l30 21 22
-30 c27 -38 67 -40 100 -5 22 24 25 24 48 9 19 -12 36 -15 71 -9 25 3 56 7 69
7 12 0 22 4 22 8 0 5 16 6 35 3 31 -5 35 -3 35 15 0 19 4 21 33 15 17 -3 32
-6 32 -7 0 -1 11 -16 24 -35 20 -29 22 -37 11 -54 -11 -19 -8 -25 33 -64 25
-23 49 -52 52 -64 5 -14 13 -19 26 -16 14 4 24 -3 34 -24 8 -15 21 -26 28 -24
6 3 19 -10 28 -28 12 -23 22 -31 39 -29 15 1 24 -4 27 -18 5 -18 15 -24 36
-21 4 0 7 -6 7 -14 0 -10 -10 -15 -34 -15 -19 0 -38 -4 -41 -10 -3 -5 3 -10
14 -10 12 0 21 -7 21 -15 0 -8 -8 -15 -19 -15 -10 0 -21 -9 -24 -19 -5 -22 0
-31 20 -31 37 0 68 -71 42 -97 -6 -6 -9 -23 -7 -39 3 -27 6 -29 39 -26 44 4
58 -12 34 -38 -9 -10 -14 -23 -11 -29 4 -5 -3 -12 -13 -16 -13 -4 -21 -17 -23
-38 -2 -27 -8 -33 -30 -35 -27 -3 -38 -25 -18 -37 13 -8 1 -35 -17 -35 -10 0
-13 -6 -9 -16 3 -9 8 -27 11 -40 3 -13 7 -35 10 -49 5 -21 2 -25 -20 -25 -15
0 -25 -6 -25 -14 0 -16 -53 -24 -160 -27 -40 -1 -71 -7 -81 -16 -9 -8 -30 -13
-45 -11 -24 3 -29 -1 -35 -27 -10 -47 -10 -105 1 -105 6 0 10 -7 10 -15 0 -8
-4 -15 -9 -15 -5 0 -12 -14 -16 -30 -4 -20 -13 -30 -24 -30 -19 0 -44 -24 -54
-52 -4 -10 -15 -18 -26 -18 -11 0 -33 -12 -50 -26 -33 -27 -56 -24 -46 7 6 17
1 19 -36 19 -35 0 -40 -2 -30 -14 19 -23 -41 -51 -78 -37 -14 5 -50 13 -78 16
-45 6 -53 4 -53 -9 0 -11 -9 -16 -30 -16 -16 0 -30 3 -30 8 0 15 17 33 30 30
7 -2 14 4 16 12 15 63 15 72 0 95 -9 14 -33 33 -54 43 -24 12 -36 23 -34 35 2
9 -2 26 -8 37 -8 16 -15 18 -29 10 -14 -7 -23 -5 -36 10 -22 25 -42 26 -49 3
-6 -18 -56 -26 -56 -9 0 9 -30 35 -42 36 -4 0 -10 -9 -13 -20 -3 -11 -13 -20
-21 -20 -8 0 -14 -6 -14 -14 0 -10 -11 -14 -32 -14 -18 1 -55 -4 -83 -10 -27
-6 -52 -8 -54 -6 -3 3 -4 43 -2 89 2 80 1 85 -18 85 -17 0 -21 6 -21 30 0 29
-1 30 -50 30 -38 0 -50 4 -50 15 0 8 -8 15 -19 15 -25 0 -45 51 -38 95 4 26 2
35 -9 35 -8 0 -14 7 -14 15 0 9 -10 15 -26 15 -22 0 -25 4 -22 27 3 24 -1 28
-27 33 -21 4 -31 12 -33 27 -2 11 -12 23 -23 26 -11 3 -19 14 -19 25 0 11 -7
25 -15 32 -13 11 -12 16 9 44 20 27 22 35 11 49 -7 9 -18 17 -24 17 -9 0 -11
17 -7 65 5 58 4 66 -15 75 -12 7 -18 17 -15 27 3 8 -8 34 -25 58 -22 30 -29
49 -24 64 5 17 2 21 -15 21 -17 0 -20 4 -15 21 4 13 1 27 -10 39 -21 24 -16
55 10 55 11 0 26 4 33 8 7 5 19 6 27 3 7 -2 31 8 52 23 32 23 44 41 61 95 12
37 22 77 22 90 0 12 3 26 7 30 10 10 28 1 28 -15z"/>
</g>
</svg>
